<svg width="66" height="66" viewBox="0 0 66 66" fill="none" xmlns="http://www.w3.org/2000/svg">
<path d="M39.822 32.4035C39.7245 32.403 39.6278 32.3851 39.5365 32.3507C37.8288 31.6808 34.207 20.842 34.207 18.24C34.2083 16.7512 34.8003 15.3238 35.8531 14.271C36.9058 13.2183 38.3332 12.6263 39.822 12.625C41.3103 12.6267 42.7371 13.219 43.7893 14.2717C44.8414 15.3244 45.4328 16.7516 45.4336 18.24C45.4336 20.842 41.8152 31.6808 40.1074 32.3507C40.0161 32.3851 39.9195 32.403 39.822 32.4035ZM39.822 14.1892C38.7485 14.1905 37.7194 14.6175 36.9603 15.3766C36.2012 16.1357 35.7742 17.1648 35.7729 18.2383C35.7729 20.7694 38.5416 28.2323 39.822 30.4103C41.1024 28.234 43.8678 20.7694 43.8678 18.2383C43.8678 16.0058 42.0528 14.1892 39.822 14.1892Z" fill="#8C8C8C"/>
<path d="M40.8927 53.3736C40.6327 53.3718 40.3778 53.3019 40.1535 53.1707L21.1735 41.6025L2.21171 53.1591C1.91331 53.3324 1.56407 53.3968 1.2235 53.3414C0.882927 53.2861 0.57208 53.1144 0.343908 52.8555C0.118608 52.5883 -0.00275648 52.2489 0.00209303 51.8994C0.00694255 51.5499 0.137681 51.2139 0.370308 50.9531C19.8667 26.4242 19.8898 26.4143 20.1852 26.3103L31.5537 21.7085C31.7209 21.6442 31.9045 21.6361 32.0767 21.6854L34.3372 22.3784C34.7497 22.5054 34.9824 22.9443 34.857 23.3568C34.7942 23.5542 34.6566 23.7191 34.4737 23.8163C34.2908 23.9134 34.0772 23.9351 33.8785 23.8766L31.8837 23.2644L20.9145 27.7013C19.6027 29.2869 7.18481 44.8943 1.90976 51.5289L20.7676 40.0152C20.8901 39.9396 21.0312 39.8995 21.1752 39.8995C21.3191 39.8995 21.4602 39.9396 21.5827 40.0152L40.8943 51.7863L40.9471 51.7649L58.9816 41.3913L59.7027 22.6853L47.0158 27.7128C46.8508 27.7788 46.6693 27.7854 46.4977 27.7343L44.3857 27.0908C44.1925 27.0255 44.0324 26.8874 43.9393 26.706C43.8462 26.5245 43.8276 26.3139 43.8873 26.1189C43.947 25.9239 44.0804 25.7598 44.2591 25.6615C44.4378 25.5633 44.6478 25.5385 44.8444 25.5926L46.6941 26.1585L59.3842 21.1293C59.9188 20.9808 60.3792 21.0864 60.7438 21.3801C60.9206 21.523 61.061 21.7058 61.1534 21.9134C61.2457 22.1211 61.2875 22.3478 61.2751 22.5747L60.4749 41.5613C60.4625 41.796 60.3946 42.0245 60.2767 42.2279C60.1588 42.4313 59.9943 42.6037 59.7967 42.7311L41.6352 53.1707C41.581 53.1979 41.5253 53.2222 41.4685 53.2433C41.2889 53.3297 41.092 53.3742 40.8927 53.3736Z" fill="#8C8C8C"/>
<path d="M21.209 41.4221C21.0714 41.4217 20.9363 41.385 20.8174 41.3158C20.6984 41.2466 20.5998 41.1473 20.5314 41.0279C20.463 40.9085 20.4273 40.7732 20.4277 40.6356C20.4282 40.498 20.4649 40.3629 20.5342 40.244L31.0744 22.2161C31.1262 22.1274 31.1949 22.0497 31.2767 21.9876C31.3585 21.9254 31.4518 21.88 31.5511 21.8538C31.6505 21.8277 31.754 21.8214 31.8558 21.8353C31.9576 21.8492 32.0557 21.883 32.1444 21.9348C32.2331 21.9866 32.3108 22.0553 32.373 22.1371C32.4351 22.2189 32.4805 22.3122 32.5067 22.4115C32.5328 22.5109 32.5391 22.6144 32.5252 22.7162C32.5113 22.818 32.4775 22.9161 32.4257 23.0048L21.8855 41.0327C21.816 41.1505 21.7171 41.2483 21.5986 41.3165C21.48 41.3848 21.3458 41.4212 21.209 41.4221ZM41.0354 53.0794C40.9187 53.0792 40.8034 53.0529 40.6981 53.0026C40.5928 52.9523 40.5 52.8791 40.4265 52.7883C40.353 52.6976 40.3006 52.5917 40.2733 52.4782C40.2459 52.3647 40.2441 52.2465 40.2682 52.1323L45.6835 26.9434C45.7293 26.7415 45.8524 26.5656 46.0263 26.4533C46.2003 26.3411 46.4112 26.3014 46.6141 26.3428C46.8168 26.3871 46.9938 26.5098 47.1063 26.6842C47.2189 26.8585 47.2578 27.0704 47.2147 27.2734L41.7994 52.4623C41.7628 52.6375 41.6668 52.7947 41.5275 52.9071C41.3883 53.0196 41.2144 53.0805 41.0354 53.0794Z" fill="#8C8C8C"/>
</svg>
