<svg width="128" height="128" viewBox="0 0 128 128" fill="none" xmlns="http://www.w3.org/2000/svg">
<path d="M45.333 77.3307H82.6663M45.333 50.6641H63.9997" stroke="white" stroke-width="8" stroke-linecap="round" stroke-linejoin="round"/>
<path d="M75.5732 111.41C97.8879 109.933 115.659 91.9064 117.12 69.2771C117.403 64.8504 117.403 60.2637 117.12 55.8371C115.659 33.2131 97.8879 15.1971 75.5732 13.7091C67.866 13.2011 60.1337 13.2011 52.4265 13.7091C30.1119 15.1917 12.3412 33.2131 10.8799 55.8424C10.5973 60.3179 10.5973 64.8068 10.8799 69.2824C11.4132 77.5224 15.0559 85.1544 19.3492 91.597C21.8399 96.1037 20.1972 101.73 17.5999 106.653C15.7332 110.2 14.7945 111.97 15.5465 113.25C16.2932 114.53 17.9732 114.573 21.3279 114.653C27.9679 114.813 32.4425 112.936 35.9945 110.317C38.0052 108.829 39.0132 108.088 39.7065 108.002C40.3999 107.917 41.7705 108.482 44.5012 109.602C46.9545 110.616 49.8079 111.24 52.4212 111.416C60.0212 111.917 67.9625 111.917 75.5785 111.416L75.5732 111.41Z" stroke="white" stroke-width="8" stroke-linejoin="round"/>
</svg>
