<svg width="70" height="70" viewBox="0 0 70 70" fill="none" xmlns="http://www.w3.org/2000/svg">
<path d="M37.7086 0.819181C39.7378 1.36501 41.492 2.72751 43.6253 4.37751L44.8628 5.33585C45.8753 6.11502 46.117 6.29418 46.3586 6.42335C46.6181 6.56448 46.8919 6.67761 47.1753 6.76085C47.4378 6.84001 47.7336 6.88585 49.0003 7.05252L50.5545 7.24835C53.2295 7.59002 55.4295 7.86918 57.2503 8.91501C58.8461 9.83168 60.167 11.1525 61.0836 12.7483C62.1295 14.565 62.4086 16.7692 62.7503 19.4442L62.9503 20.9983C63.1128 22.265 63.1586 22.5608 63.2378 22.8233C63.3211 23.1067 63.4322 23.3789 63.5711 23.64C63.7045 23.8817 63.8836 24.1233 64.6628 25.1358L65.6211 26.3733C67.2711 28.5067 68.6336 30.2608 69.1795 32.29C69.6571 34.064 69.6571 35.9327 69.1795 37.7067C68.6336 39.7358 67.2711 41.49 65.6211 43.6233L64.6628 44.8608C63.8836 45.8733 63.7045 46.115 63.5753 46.3567C63.4336 46.6178 63.3211 46.89 63.2378 47.1733C63.1586 47.4358 63.1128 47.7317 62.9461 48.9983L62.7503 50.5525C62.4086 53.2275 62.1295 55.4275 61.0836 57.2483C60.1666 58.8421 58.844 60.1646 57.2503 61.0817C55.4336 62.1275 53.2295 62.4067 50.5545 62.7483L49.0003 62.9483C47.7336 63.1108 47.4378 63.1567 47.1753 63.2358C46.892 63.3192 46.6197 63.4303 46.3586 63.5692C46.117 63.7025 45.8753 63.8817 44.8628 64.6608L43.6253 65.6192C41.492 67.2692 39.7378 68.6317 37.7086 69.1775C35.9347 69.6552 34.0659 69.6552 32.292 69.1775C30.2628 68.6317 28.5086 67.2692 26.3753 65.6192L25.1378 64.6608C24.1253 63.8817 23.8836 63.7025 23.642 63.5733C23.3825 63.4322 23.1087 63.3191 22.8253 63.2358C22.5628 63.1567 22.267 63.1108 21.0003 62.9442L19.4461 62.7483C16.7711 62.4067 14.5711 62.1275 12.7503 61.0817C11.1566 60.1646 9.83402 58.8421 8.91697 57.2483C7.87113 55.4317 7.59197 53.2275 7.2503 50.5525L7.0503 48.9983C6.8878 47.7317 6.84197 47.4358 6.7628 47.1733C6.6809 46.8901 6.56916 46.6163 6.42947 46.3567C6.29613 46.115 6.11697 45.8733 5.3378 44.8608L4.37947 43.6233C2.72947 41.49 1.36697 39.7358 0.821134 37.7067C0.343476 35.9327 0.343476 34.064 0.821134 32.29C1.36697 30.2608 2.72947 28.5067 4.37947 26.3733L5.3378 25.1358C6.11697 24.1233 6.29614 23.8817 6.4253 23.64C6.56643 23.3805 6.67957 23.1068 6.7628 22.8233C6.84197 22.5608 6.8878 22.265 7.05447 20.9983L7.2503 19.4442C7.59197 16.7692 7.87113 14.5692 8.91697 12.7483C9.83402 11.1546 11.1566 9.83207 12.7503 8.91501C14.567 7.86918 16.7711 7.59002 19.4461 7.24835L21.0003 7.04835C22.267 6.88585 22.5628 6.84001 22.8253 6.76085C23.1086 6.67895 23.3823 6.56721 23.642 6.42752C23.8836 6.29418 24.1253 6.11502 25.1378 5.33585L26.3753 4.37751C28.5086 2.72751 30.2628 1.36501 32.292 0.819181C34.0659 0.341523 35.9347 0.341523 37.7086 0.819181ZM50.4461 23.7192C49.6648 22.9381 48.6051 22.4992 47.5003 22.4992C46.3955 22.4992 45.3358 22.9381 44.5545 23.7192L30.8336 37.44L25.4461 32.0525C24.6603 31.2935 23.6078 30.8735 22.5153 30.883C21.4228 30.8925 20.3778 31.3307 19.6052 32.1033C18.8327 32.8758 18.3945 33.9209 18.385 35.0133C18.3755 36.1058 18.7955 37.1583 19.5545 37.9442L27.8878 46.2775C28.6692 47.0586 29.7288 47.4975 30.8336 47.4975C31.9385 47.4975 32.9981 47.0586 33.7795 46.2775L50.4461 29.6108C51.2273 28.8295 51.6661 27.7699 51.6661 26.665C51.6661 25.5602 51.2273 24.5005 50.4461 23.7192Z" fill="#0088FF"/>
</svg>
