<?xml version="1.0" encoding="UTF-8"?>
<svg id="Layer_1" data-name="Layer 1" xmlns="http://www.w3.org/2000/svg" xmlns:xlink="http://www.w3.org/1999/xlink" viewBox="0 0 530 150">
  <defs>
    <style>
      .cls-1 {
        mask: url(#mask);
      }

      .cls-2 {
        fill: #fff;
      }

      .cls-2, .cls-3, .cls-4 {
        fill-rule: evenodd;
      }

      .cls-5, .cls-3 {
        fill: #157bff;
      }

      .cls-4 {
        fill: #faaf40;
      }
    </style>
    <mask id="mask" x="-14.26" y="26.92" width="119.98" height="102.09" maskUnits="userSpaceOnUse">
      <g id="b-2" data-name="b">
        <path id="a-3" data-name="a" class="cls-2" d="M61.14,26.92l44.58,25.46v50.91l-44.58,25.45-44.58-25.45v-50.91l44.58-25.46ZM46.86,52.6v50.53l44.24-25.26-44.24-25.26Z"/>
      </g>
    </mask>
  </defs>
  <g>
    <path class="cls-5" d="M158.17,115.03c-11.3,0-20.67-3.72-28.1-11.16-7.44-7.44-11.16-16.59-11.16-27.47s3.72-20.03,11.16-27.47c7.44-7.44,16.8-11.16,28.1-11.16,8.35,0,15.98,2.47,22.89,7.42,6.91,4.95,11.38,11.46,13.42,19.53h-18.21c-1.62-3.44-4.07-6.09-7.37-7.95-3.3-1.86-6.88-2.79-10.74-2.79-6.74,0-12.16,2.14-16.26,6.42-4.11,4.28-6.16,9.61-6.16,16s2.05,11.72,6.16,16c4.1,4.28,9.53,6.42,16.26,6.42,3.86,0,7.44-.93,10.74-2.79,3.3-1.86,5.75-4.51,7.37-7.95h18.21c-2.04,8.07-6.51,14.58-13.42,19.53-6.91,4.95-14.54,7.42-22.89,7.42Z"/>
    <path class="cls-5" d="M211.43,53.98c-2.67,0-4.98-.96-6.95-2.89-1.97-1.93-2.95-4.26-2.95-7s.98-5.07,2.95-7c1.96-1.93,4.28-2.9,6.95-2.9,2.81,0,5.17.97,7.1,2.9,1.93,1.93,2.89,4.26,2.89,7s-.96,5.07-2.89,7c-1.93,1.93-4.3,2.89-7.1,2.89ZM203.53,113.76v-52.63h15.89v52.63h-15.89Z"/>
    <path class="cls-5" d="M232.48,113.76v-52.63h15.89v7.89c.84-2.38,2.42-4.4,4.74-6.05,2.32-1.65,4.91-2.47,7.79-2.47,1.82,0,3.54.21,5.16.63v16.1c-2.46-.84-4.81-1.26-7.05-1.26-3.37,0-5.98,1.18-7.84,3.53-1.86,2.35-2.79,5.46-2.79,9.32v24.95h-15.89Z"/>
    <path class="cls-5" d="M297.53,114.92c-7.93,0-14.53-2.65-19.79-7.95-5.26-5.3-7.89-11.81-7.89-19.53s2.63-14.23,7.89-19.53c5.26-5.3,11.86-7.95,19.79-7.95,7.23,0,13.19,2,17.89,6,4.7,4,7.79,9.23,9.26,15.68h-16.42c-2.32-4.91-5.89-7.37-10.74-7.37-3.44,0-6.25,1.18-8.42,3.53-2.18,2.35-3.26,5.56-3.26,9.63s1.09,7.28,3.26,9.63c2.17,2.35,4.98,3.53,8.42,3.53,4.84,0,8.42-2.46,10.74-7.37h16.42c-1.47,6.46-4.56,11.68-9.26,15.68-4.7,4-10.67,6-17.89,6Z"/>
    <path class="cls-5" d="M333.84,113.76V34.82h15.89v78.94h-15.89Z"/>
    <path class="cls-5" d="M370.68,53.98c-2.67,0-4.98-.96-6.95-2.89-1.97-1.93-2.95-4.26-2.95-7s.98-5.07,2.95-7c1.96-1.93,4.28-2.9,6.95-2.9,2.81,0,5.17.97,7.1,2.9,1.93,1.93,2.89,4.26,2.89,7s-.96,5.07-2.89,7c-1.93,1.93-4.3,2.89-7.1,2.89ZM362.79,113.76v-52.63h15.89v52.63h-15.89Z"/>
    <path class="cls-5" d="M391.73,113.76v-52.63h15.89v5.37c3.02-4.35,7.89-6.53,14.63-6.53,6.38,0,11.38,2.14,15,6.42,3.61,4.28,5.42,9.93,5.42,16.95v30.42h-15.89v-27.68c0-7.79-2.84-11.68-8.53-11.68-3.16,0-5.72,1.16-7.68,3.47-1.96,2.32-2.95,5.75-2.95,10.31v25.58h-15.89Z"/>
    <path class="cls-5" d="M475,135.76h-17.16l10.95-25.05-21.89-49.58h17.37l13.05,32.52,12.95-32.52h17.47l-32.74,74.63Z"/>
  </g>
  <g>
    <g id="b">
      <path id="a" class="cls-2" d="M61.24,27.18l44.36,25.33v50.66l-44.36,25.33-44.36-25.33v-50.66l44.36-25.33ZM46.95,52.6v50.53l44.24-25.26-44.24-25.26Z"/>
    </g>
    <g>
      <path id="a-2" data-name="a" class="cls-3" d="M61.24,27.18l44.36,25.33v50.66l-44.36,25.33-44.36-25.33v-50.66l44.36-25.33ZM46.95,52.6v50.53l44.24-25.26-44.24-25.26Z"/>
      <g class="cls-1">
        <path class="cls-4" d="M19.59,37.02l71.35,40.82L10.71,123.84l-24.97,5.17L19.59,37.02Z"/>
      </g>
    </g>
  </g>
</svg>