<?xml version="1.0" encoding="UTF-8"?>
<svg id="Layer_1" data-name="Layer 1" xmlns="http://www.w3.org/2000/svg" xmlns:xlink="http://www.w3.org/1999/xlink" viewBox="0 0 530 150">
  <defs>
    <style>
      .cls-1 {
        mask: url(#mask);
      }

      .cls-2 {
        fill: #fff;
      }

      .cls-2, .cls-3, .cls-4 {
        fill-rule: evenodd;
      }

      .cls-5, .cls-3 {
        fill: #157bff;
      }

      .cls-4 {
        fill: #faaf40;
      }
    </style>
    <mask id="mask" x="-14.26" y="26.92" width="119.98" height="102.09" maskUnits="userSpaceOnUse">
      <g id="b-2" data-name="b">
        <path id="a-3" data-name="a" class="cls-2" d="M61.14,26.92l44.58,25.46v50.91l-44.58,25.45-44.58-25.45v-50.91l44.58-25.46ZM46.86,52.6v50.53l44.24-25.26-44.24-25.26Z"/>
      </g>
    </mask>
  </defs>
  <g>
    <g id="b">
      <path id="a" class="cls-2" d="M61.24,27.18l44.36,25.33v50.66l-44.36,25.33-44.36-25.33v-50.66l44.36-25.33ZM46.95,52.6v50.53l44.24-25.26-44.24-25.26Z"/>
    </g>
    <g>
      <path id="a-2" data-name="a" class="cls-3" d="M61.24,27.18l44.36,25.33v50.66l-44.36,25.33-44.36-25.33v-50.66l44.36-25.33ZM46.95,52.6v50.53l44.24-25.26-44.24-25.26Z"/>
      <g class="cls-1">
        <path class="cls-4" d="M19.59,37.02l71.35,40.82L10.71,123.84l-24.97,5.17L19.59,37.02Z"/>
      </g>
    </g>
  </g>
  <g>
    <path class="cls-5" d="M115.47,109.9V41.55h23.3c9.63,0,17.84,3.34,24.64,10.01,6.8,6.68,10.2,14.73,10.2,24.16s-3.4,17.49-10.2,24.16c-6.8,6.68-15.02,10.01-24.64,10.01h-23.3ZM130.78,95.85h7.99c5.65,0,10.28-1.94,13.91-5.82,3.62-3.88,5.44-8.65,5.44-14.29s-1.81-10.41-5.44-14.3c-3.63-3.88-8.26-5.82-13.91-5.82h-7.99v40.24Z"/>
    <path class="cls-5" d="M223.29,103.69c-4.94,4.85-10.91,7.27-17.91,7.27s-12.96-2.42-17.91-7.27c-4.94-4.84-7.41-10.8-7.41-17.86s2.47-13.01,7.41-17.86c4.94-4.84,10.91-7.27,17.91-7.27s12.96,2.42,17.91,7.27c4.94,4.85,7.41,10.8,7.41,17.86s-2.47,13.01-7.41,17.86ZM197.73,94.21c2.02,2.12,4.57,3.18,7.65,3.18s5.63-1.06,7.65-3.18c2.02-2.12,3.03-4.91,3.03-8.38s-1.01-6.26-3.03-8.38c-2.02-2.12-4.57-3.18-7.65-3.18s-5.63,1.06-7.65,3.18c-2.02,2.12-3.03,4.91-3.03,8.38s1.01,6.26,3.03,8.38Z"/>
    <path class="cls-5" d="M279.89,103.69c-4.94,4.85-10.91,7.27-17.91,7.27s-12.96-2.42-17.91-7.27c-4.94-4.84-7.41-10.8-7.41-17.86s2.47-13.01,7.41-17.86c4.94-4.84,10.91-7.27,17.91-7.27s12.96,2.42,17.91,7.27c4.94,4.85,7.41,10.8,7.41,17.86s-2.47,13.01-7.41,17.86ZM254.34,94.21c2.02,2.12,4.57,3.18,7.65,3.18s5.63-1.06,7.65-3.18c2.02-2.12,3.03-4.91,3.03-8.38s-1.01-6.26-3.03-8.38c-2.02-2.12-4.57-3.18-7.65-3.18s-5.63,1.06-7.65,3.18c-2.02,2.12-3.03,4.91-3.03,8.38s1.01,6.26,3.03,8.38Z"/>
    <path class="cls-5" d="M319.65,110.48c-5.65,0-10.29-1.55-13.91-4.67-3.63-3.11-5.44-7.62-5.44-13.53v-17.91h-9.63v-12.61h9.63v-13.38h14.54v13.38h13.48v12.61h-13.48v14.92c0,2.89.64,4.97,1.92,6.26,1.28,1.29,3.37,1.93,6.26,1.93,2.18,0,3.95-.29,5.29-.87v12.9c-2.12.64-5.01.96-8.66.96Z"/>
    <path class="cls-5" d="M337.46,109.9V37.7h14.54v72.2h-14.54Z"/>
    <path class="cls-5" d="M371.15,55.22c-2.44,0-4.56-.88-6.35-2.65-1.8-1.76-2.7-3.9-2.7-6.4s.9-4.64,2.7-6.4c1.8-1.76,3.91-2.65,6.35-2.65,2.57,0,4.73.88,6.5,2.65,1.76,1.77,2.65,3.9,2.65,6.4s-.88,4.64-2.65,6.4c-1.77,1.77-3.93,2.65-6.5,2.65ZM363.93,109.9v-48.13h14.54v48.13h-14.54Z"/>
    <path class="cls-5" d="M390.4,109.9v-48.13h14.54v4.91c2.76-3.98,7.22-5.97,13.38-5.97,5.84,0,10.41,1.96,13.72,5.87,3.3,3.92,4.96,9.08,4.96,15.5v27.82h-14.54v-25.32c0-7.12-2.6-10.69-7.8-10.69-2.89,0-5.23,1.06-7.03,3.18-1.8,2.12-2.7,5.26-2.7,9.43v23.39h-14.54Z"/>
    <path class="cls-5" d="M471.07,130.98c-6.74,0-12.24-1.75-16.51-5.25-4.27-3.5-6.59-7.91-6.98-13.24h14.15c1.48,4.3,4.72,6.45,9.72,6.45,2.7,0,4.97-.85,6.83-2.55,1.86-1.7,2.79-4.16,2.79-7.36v-5.68c-1.16,1.73-2.9,3.15-5.25,4.24-2.34,1.09-4.96,1.64-7.85,1.64-6.16,0-11.46-2.36-15.88-7.08-4.43-4.72-6.64-10.45-6.64-17.18s2.21-12.47,6.64-17.18c4.43-4.72,9.72-7.08,15.88-7.08,2.89,0,5.5.55,7.85,1.64,2.34,1.09,4.09,2.5,5.25,4.24v-4.81h14.54v45.15c0,4.3-.69,8.05-2.07,11.26-1.38,3.21-3.24,5.71-5.58,7.51-2.34,1.8-4.93,3.13-7.75,4-2.83.87-5.87,1.3-9.15,1.3ZM463.37,92.96c2.18,2.05,4.78,3.08,7.8,3.08s5.62-1.03,7.8-3.08c2.18-2.05,3.27-4.72,3.27-7.99s-1.09-5.94-3.27-7.99c-2.18-2.05-4.78-3.08-7.8-3.08s-5.62,1.03-7.8,3.08c-2.18,2.05-3.27,4.72-3.27,7.99s1.09,5.94,3.27,7.99Z"/>
  </g>
</svg>