<?xml version="1.0" encoding="UTF-8"?>
<svg id="Layer_1" data-name="Layer 1" xmlns="http://www.w3.org/2000/svg" viewBox="0 0 300 300">
  <defs>
    <style>
      .cls-1 {
        fill: #157bff;
      }

      .cls-2 {
        fill: #fff;
      }
    </style>
  </defs>
  <path class="cls-1" d="M259.36,39.32c-8.51-7.84-49.45-20.51-110.59-20.66h-.94c-60.96.15-102.08,12.83-110.59,20.66-8.99,7.97-20.8,49.45-20.8,110.33s11.81,102.36,20.8,110.33c8.51,7.84,49.47,20.51,110.59,20.66h.94c61.11,0,102.08-12.67,110.59-20.66,8.97-7.97,20.78-49.45,20.78-110.33s-11.81-102.34-20.78-110.33Z"/>
  <g>
    <polygon class="cls-2" points="63.16 189.96 63.16 189.97 63.18 190 63.16 189.96"/>
    <path class="cls-2" d="M56.49,173.87l-.21-1.26c-.37-.63-.45-2.46-.92-2.61l.34,2.69.37,1.94c.05,0,.1-.02.15-.06.17.04.27-.17.27-.69Z"/>
    <path class="cls-2" d="M57.37,178.5l-.06-.3-.07-.3-.32-.62c-.4-.2-.26,1.07-.43,1.47.28.79.54.76.81,1.14l.07-1.4Z"/>
    <path class="cls-2" d="M56.94,167.69c-.09,1.01-.1,2.07.14,3.28.08.3.17.54.28.73l.47.75c.07-.88.14-1.77.54-1.61.14-1.08-.1-2.19-.32-3.32-.15-.62-.28-1.19-.52-1.35-.3.09-.5.69-.6,1.52Z"/>
    <polygon class="cls-2" points="96.66 238.46 96.64 238.44 96.63 238.44 96.66 238.46"/>
    <path class="cls-2" d="M55.81,156.61c-.08.12-.15.29-.21.51-.08.66.02,1.13.15,1.55.07.15.16.23.24.24.09-.05.15-.21.19-.48.16-.7.45.27.59-.55l.21-1.93-.37-.05c-.26.39-.56.22-.81.72Z"/>
    <polygon class="cls-2" points="63.06 194.3 63.06 194.3 63.03 194.27 63.06 194.3"/>
    <polygon class="cls-2" points="229.95 65.02 229.96 65.04 229.97 65.05 229.95 65.02"/>
    <polygon class="cls-2" points="251.99 117.49 251.99 117.47 251.97 117.44 251.99 117.49"/>
    <polygon class="cls-2" points="253.11 113.42 253.11 113.42 253.13 113.45 253.11 113.42"/>
    <path class="cls-2" d="M253.56,135.05c-.23.82-.45,1.66-.82,1.43-.35,1-.3,2.1-.26,3.2.03.61.08,1.18.28,1.36.32-.04.59-.57.85-1.34.26-.94.44-1.94.43-3.12-.02-.3-.07-.55-.15-.74l-.33-.8Z"/>
    <path class="cls-2" d="M255.18,129.43v.29s.01.29.01.29l.2.64c.36.27.45-.95.7-1.3-.12-.8-.37-.81-.56-1.23l-.35,1.3Z"/>
    <path class="cls-2" d="M253.18,148.19c-.09.03-.18.18-.26.43-.26.64-.4-.32-.67.44l-.46,1.81.36.1c.31-.33.58-.13.9-.57.09-.11.18-.26.27-.45.16-.61.14-1.08.07-1.49-.05-.15-.12-.24-.2-.26Z"/>
    <path class="cls-2" d="M255.25,122.88h0s-.08-.53-.08-.53c-.23-.86-.58-1.12-.85-1.83-.31-.66-.62-1.34-.95-.95-.17.57-.38,1.08-.46,1.82-.18-.66-.42-.69-.63-1.06l-.14.76c-.11-1.12-.24-2.23-.38-3.34.08-.11.14-.24.18-.48.01.08.03.18.03.21.8,2.23.86.33.98-.51.01.21.09.54.24.93.06.04.11.04.16.01.38.1.71,1.17,1.02,1.8l.39.43v.09c.15.63.23,1.54.53,1.28,0-1.24.73-1.88-.04-3.77l-.55-.08-.08-.49c-.43.09-.48-1.04-.67-1.9-.35-.21-.87.76-.87-1.86-.29-.49-.38-1.17-.48-1.87-.1-.59-.24-1.1-.46-1.55-.25-.64-.49.23-.74-1.06-.39-.48-.72-.44-1.13-1.12-.16-.21-.32-.39-.46-.43,0,0,0,.02-.01.03-.04-.17-.09-.34-.13-.51l.08.13c.08-.21.3-.08.19-.72-.11-.55-.25-1.06-.46-1.55-.37-.9-.57-1.76-.66-2.62-.05-.26-.11-.52-.22-.78-.94-2.22.16-.93.16-1.54.26.2.04-1.18.61.06.18.77.38,1.55.69,2.35.02.05.04.09.07.13.05.77.04,1.46.06,2.19.04.48.07,1,.21,1.6.19.72.45,1.33.7,1.93.58,1.61.95,1.37,1.3.97.04-.08.09-.14.14-.19-.34-1.44.05-1.93-.19-3.2-.56-.98-.7-2-.83-3.03.03.05.06.1.1.14.21.17.37.18.49.05.17-.27.31-.6.25-1.36l-.5-1.05c-.49-.79-.8-1.64-1.04-2.52.05.05.1.03.15-.06-.15-.89-.35-1.77-.57-2.65-.41-1.68-1.19-2.89-2.01-4.1-.2-.26-.31-.31-.36-.21-.26-.42-.51-.7-.73-.77-.06,0-.13-.01-.2-.03-.23-.49-.5-.99-.78-1.13-.14-.08-.22-.03-.24.13l.03.12c-.19,0-.3.24-.72-.35-.37-.42-.56-.38-.67-.18-.03.17-.04.37-.05.57l-.12-.35c-.06-.16-.13-.3-.19-.46-.12-.82-.15-1.53.12-1.82.03-.55-.57-1.43-.81-2.12l-.58-1.09c-.54-.79-.94-1.51-1.21-2.25h0c.15,0-.39-.99.22-.36l-.12-.58-.7-1.08c-.49-.56-1.03-1.09-1.54-1.63-.19-.29-.38-.58-.55-.87-.19-.31-.39-.61-.6-.91l-.34-.43-.19-.42-1.06-1.61c-.89-1-1.87-2.17-2.85-2.95l-.22-.28c.16-.05.3-.13.45-.2.08-.09.1-.23-.09-.55-.13-.17-.26-.33-.39-.49-.84-1.02-1.48-1.27-2.14-1.62-1.27-.37-.91-.98-1.35-1.46-.1-.03-.16-.04-.24-.05,0-.15-.08-.36-.22-.62-1.05-.59-.73.17-1.05.31l.22.21.23.2c.19.08.33.12.45.14,0,.09.04.21.11.36l.32.3c-.42-.13-.56,0-.44.37-.36-.3-.72-.61-.99-.63-.6-.46-.84-.89-1.21-1.34l.57-.12.32.16c.03-.73-1.76-1.81-2.28-2.6-.76-.51-.9-.79-.74-.96-.04-.19-.24-.46-.62-.74-.82-.53-1.44-.71-2.13-1.01-.37-.14-.7-.25-.97-.28-.25-.02-.33.06-.25.23h-.02c-.34-.25-.71-.45-1.06-.66l-.31.24.19.1.32.63-.15-.09c-.27-.05-.39-.01-.42.08-.33-.26-.68-.51-1.04-.76,0-.04-.03-.1-.08-.17.48.17.81.21.87.02-.38-.59-.9-1.2-1.98-1.89.1.02.19.04.27.05.3,0,.53-.05.68-.17.07-.17-.08-.44-.67-.82l-1.86-.84c-1.37-.88-2.77-1.52-3.89-1.52-.14.03-.17.12-.1.25-.82-.25-1.67-.34-2.38-.99l-2.03-.42-.47-.17-.76-.64c-2.33-.76-4.01-2.01-6.64-2.35l-.66.14c-.14-.12-.3-.24-.53-.37-1.51-.77-3.53-1.04-5.38-1.38-.77-.13-1.51-.33-2.3-.39-.77.34-1.46-.22-2.19-.25-1.26-.14-2.49-.12-3.75-.21-.27,0-.54.02-.78.04-.52.08-1.04.08-1.55.02.27-.07.4-.17.36-.31-.4-.33-1.22-.44-2.24-.46-.91-.17-1.75-.02-2.61,0-.28.21-1.26.3-1.34.55-.47.04-.94.07-1.42.09.13-.21-.39-.36-1.21-.48-.62.13-1.24.28-1.86.44l-.36.17h-.05c-1.42.05-3.07.55-4.11-.04-.19-.11-.42-.21-.83-.25-1.33,0-1.62.69-3.11.6-1.04.08-1.9.03-2.74-.06-1.34.21-2.73.64-3.73.2-.95.13-1.74.44-2.77.49-1.31.24-1.86.68-2.83,1.01-.14.16-.33.34-.18.43l-.35.04c-.12,0-.24.02-.37.04l-.37.05c-.55.08-1.09.16-1.64.26-.08,0-.16,0-.26-.01-.11-.22-.28-.42-1.36-.29-1.36.45-2.87.8-4.43,1.05l-.02.06h-.07c-1,.21-2,.46-3,.68-.4-.02-.86.05-1.34.14-.49.1-1.03.25-1.31.12l-.68-.03c-1.16.44-2.19,1.05-3.67.97l-.62.17c-1.9.43-3.82.76-5.7,1.38-.18.03-.35.08-.53.14l-.54.9c-.16.05-.31.09-.47.13l-.2.06c.17-.86-.24-.89-2.5-.17-.97.49-1.76,1.11-3.2,1.2-.75-.03-1.42.37-2.1.68-.55.29-1.02.57-1.3.87-.17.2-.17.32,0,.36l-.06.02c-.61.06-1.16.27-1.66.61.05-.1-.06-.15-.29-.16-.23.02-.48.06-.75.11-.91.2-1.58.19-2.49.44-.42.14-.79.3-1.03.52l-.55.42c-.51.46-1.26.7-2.05.95-1.76.7-3.26,1.6-4.91,2.42l-1.18.54c-1.05.42-1.97.85-1.53,1.08h-.01c-.94.45-1.88.82-2.82,1.22-1.04.42-2.05.86-3.08,1.39-2.56,1.3-5.34,2.52-7.25,4.45-.19.19-.71.4-1.08.6-4.32,2.57-8.45,5.45-12.04,8.78-.12.14-.27.26-.45.38-1.71,1.61-3.8,3.07-5.35,4.8-1.02,1.11-2.33,2.2-3.12,3.34h0s0,0,0,0c-.37.37-.84.76-.83,1.05l-.94.64c-1.73,1.03-2.87,2.35-3.56,3.83-1.51,2.23-4.17,4.37-5.3,6.73h0c-.02.34-1.54,2.04-.14,1.1.55-.03,1.51-.97,2.09-1.67,1.75-2.05,3.58-3.54,5.43-5.13-4.3,4.42-8.32,9.11-11.91,14.12.72-.47,1.46-.93,2.19-1.4-.15.28-.29.57-.41.85h0c0,.34-1.38,2.08-.06,1.09.55-.06,1.43-1.03,1.95-1.75.66-.9,1.36-1.68,2.06-2.42,11.38-6.99,23.46-12.99,36.06-17.82,8.6-3.29,17.36-6.2,26.63-8.24,2.03-.45,4.1-.86,6.18-1.22,0,.02-.02.02-.03.04.28.27.61.05.93.03,0-.06,0-.11-.02-.17-.03-.02-.05-.03-.08-.04.34-.06.69-.1,1.03-.16-.24.11-.53.17-.54.48-.03.01-.06.02-.1.04l.06.36c.14.3.28.61.66.75.08.04.16.07.25.1.25.08.49.19.68.36.2.2.2.54.5.68-.11.31.04.51.35.66l.14-.02c-.02-.27,0-.54.16-.79h0c.06-.02.12-.04.17-.06.27-.2.32-.53.55-.76.2-.27.41-.54.25-.89-.22-.2-.42-.43-.7-.55.22-.14.21-.38.32-.57l-.29-.18c.4-.05.8-.1,1.19-.14.04.08.1.15.18.21-.03,0-.07.01-.07.01-.75.61-.05.82.26,1.02-.08,0-.19.04-.32.16,0,.05,0,.11,0,.16,0,.37-.36.59-.55.88l-.11.36h-.03c-.21.11-.51.14-.39.46.43.07.71.79,1.3.21l-.02-.54.16-.04c-.06-.43.32-.4.62-.47.05-.32-.32-.95.6-.64.16-.21.4-.2.64-.19.21,0,.38-.08.54-.2.22-.13-.1-.53.36-.53.17-.29.15-.63.39-.89.08-.11.14-.22.16-.35.05,0,.1,0,.15-.01l-.02.03c.08.12.03.31.26.34.2.02.38-.03.57-.09.33-.13.65-.09.96.05.09.02.19.02.29,0,.83-.22.32.44.54.62-.08.18.41.4-.05.56-.28-.08-.56-.11-.85-.02l-.05.03c-.27-.15-.51-.34-.77-.51-.17-.1-.36-.17-.57-.16-.26.03-.48.14-.69.27-.57.27-.47.68-.33,1.1.03.06.05.12.07.18.5-.07.68.43,1.11.47.34-.35.7-.2,1.05-.06-.02.02-.04.03-.05.05-.06.15-.07.31-.03.46.09.24.2.46.45.59l.36-.21c.28-.23.58-.25.88-.2-.02.04-.02.09.01.16l.89.36c.57.2,1.01-.07,1.47-.29.1-.08.13-.16.1-.24.16-.07.27-.18.32-.35l.03-.17c.18-.02.36-.03.45-.21.04-.09.04-.18-.01-.27-.02-.01-.02-.02-.04-.03.02-.17-.04-.37.2-.48.18-.14.19-.32.15-.51-.05-.11-.11-.21-.17-.3l.13.06c.06.02.11.02.17.04.28.27.5.56.54.93.16.27.51.21.76.34l.41.05c.32-.08.59,0,.85.17-.03.13.34.21.06.38l.18.22h.42s.73-.28.73-.28c.11.02.23.04.33.07.12.03.24.05.36.06h.18s.14.13.14.13l.62.21c.44-.08.93.05,1.34-.14l.11.03-.08.46c0,.12.02.23.13.31.07.01.13.03.19.06.41.15.62-.12.87-.32.42-.61.42.1.62.17.03-.04.05-.08.08-.12.02.11.08.22.16.33.39-.23.19-.6.26-.91h-.1s-.1-.01-.1-.01c-.07.06-.12.12-.15.19-.02-.07-.05-.14-.09-.21l-.14-.03c.14-.17.16-.36.07-.57.16,0,.31,0,.39-.15.25-.04.39.14.57.24h0s0,0,0,0l-.16.46-.12.09c.1.54.79.3,1.04.65.3-.04.37.1.34.33.03.13.13.21.27.24.31,0,.52-.2.77-.32.13-.07.25-.16.34-.28.08-.12.1-.22.07-.32h0s.4.02.4.02l.09-.36h-.07s-.15-.38-.15-.38h.06c.1-.08.14-.18.14-.27.13.06.27.12.41.16,0,.03.02.07.04.1-.18.08-.29.21-.3.4.17.32.38.6.78.68-.04.03-.07.05-.1.09-.1.15-.18.3-.23.47-.02.19.05.33.26.4l.65-.03c.49.18.95.26,1.35-.14.05-.08.06-.17.04-.26.29-.08.59-.28.82.13l.71-.23c.05,0,.11.01.16.03l.23.41c.78.12,1.25.94,2.12.84l.25-.23c.03.09.07.18.14.27.42.51,1.07.54,1.64.74.24.07.45.21.71.21.33-.36.44.17.68.18.4.09.81.09,1.2.19.09,0,.18,0,.27-.03.2-.08.36-.03.51.05-.11.05-.18.15-.2.28.04.33.27.48.59.54.24.21.54.15.82.2.15-.18.49-.18.59-.41.16.01.31.04.46.07-.11.19,0,.39.21.59l.7-.17.17-.11h.01c.44.15,1.1-.05,1.18.68.02.13.04.26.14.37.37.23.72-.33,1.09.03.32.12.53.36.71.62.44.08.98.04,1.04.66.3.1.63.01.9.23.42.13.75-.12,1.13-.16.11-.11.24-.21.25-.33l.1.05s.07.05.11.06l.11.06c.16.09.32.17.49.24.01.03.03.06.05.08-.08.22-.14.44.16.64.53,0,1,.19,1.45.45l.03-.04h.02s.93.44.93.44c.07.15.18.25.32.33.14.08.33.14.3.35l.1.26c.43.06.95-.08,1.13.53l.19.1c.53.37.98.83,1.56,1.13.04.05.09.08.15.1l.6-.46s.09.05.14.09l.06.04c-.54.58-.51.76.14,1.18.39.05.86-.09,1.01.49.03.35.33.36.57.44.22.04.43.04.64-.03.14-.06.22-.15.23-.25h.02c.07.25.23.36.47.36-.07.05-.1.13-.09.24.02.09.06.18.1.26.17.27.18.6.36.87.1.11.21.17.36.15h.29c.31-.07.49.12.64.36.44.43,1.04.58,1.52.96l.32.28c.24.28.48.51.67.16h0c.24.25.43.53.63.81.22.3.41.62.67.9.66.68,1.08,1.61,2.15,1.78.11.02.17.21.24.32,1.04,1.28,2.09,2.51,3.41,3.52.06.03.11.07.14.14.64.49.97,1.29,1.64,1.73.41.31.67.82,1.18,1.05h0s0,0,0,0c.11.14.18.34.4.27l.05.42c-.03.81.37,1.23,1.09,1.42.85.55.97,1.8,1.93,2.27h0c.23-.02.52.72.68,0,.3-.31.19-.78.03-1.06-.46-.76-.59-1.58-.81-2.38,2.26,3.79,4.18,7.8,5.51,11.95,0,.01,0,.03.01.04-.02,0-.02-.02-.05-.03-.22.34.05.66.12.99.06,0,.11-.02.16-.05.01-.02.01-.04.02-.06.1.33.19.66.29.98-.13-.23-.25-.48-.53-.45-.02-.04-.03-.06-.05-.1l-.35.11c-.28.19-.56.38-.64.79-.02.09-.05.18-.06.28-.04.28-.11.55-.26.76-.17.24-.5.28-.6.61-.32-.08-.5.11-.61.45l.04.14c.27-.05.54-.06.81.08h0c.03.06.06.12.09.18.24.26.57.28.83.49.3.18.6.38.92.16.17-.26.37-.5.45-.8.17.22.41.18.61.28l.13-.31c.11.42.2.84.3,1.25-.07.05-.12.11-.16.2,0-.03-.02-.07-.02-.08-.71-.73-.83.04-.98.39,0-.08-.07-.19-.2-.32-.06,0-.11,0-.16.03-.37.04-.64-.31-.95-.48l-.38-.08v-.03c-.14-.21-.22-.53-.51-.36-.01.47-.68.84-.03,1.39l.54-.08.06.17c.42-.11.44.3.55.6.32.02.9-.44.72.57.23.15.25.41.27.66.03.22.12.4.26.55.15.22.51-.15.57.34.31.15.65.1.93.34.11.07.22.12.34.13,0,.05.02.1.03.15h0c-.11.09-.31.06-.31.31,0,.22.06.41.15.6.16.35.15.69.04,1.03-.01.1,0,.21.02.31.28.88-.41.37-.58.62-.19-.08-.37.46-.56-.02.06-.3.07-.6-.06-.9l-.03-.05c.13-.3.3-.57.43-.87.08-.19.13-.4.11-.63-.06-.27-.19-.5-.34-.72-.33-.58-.73-.44-1.13-.25-.05.04-.11.07-.17.09.13.52-.36.76-.34,1.22.38.33.28.72.16,1.11-.02-.02-.04-.04-.06-.05-.16-.06-.31-.05-.46,0-.23.11-.44.24-.55.52l.24.36c.25.28.29.59.28.91-.04-.02-.09-.01-.16.02l-.29.96c-.17.6.14,1.04.38,1.52.08.11.16.13.25.1.08.16.19.28.37.32l.17.03c.03.19.05.4.24.48.09.04.18.03.27-.02.01-.02.02-.03.03-.05.18.02.37-.06.49.2.15.19.33.2.52.14.1-.06.2-.13.29-.2l-.05.14c-.02.07-.02.12-.03.19-.25.31-.53.56-.9.63-.26.19-.18.56-.3.83l-.02.44c.1.34.02.64-.13.92-.13-.02-.2.38-.38.08l-.21.2v.45s.33.77.33.77c-.01.12-.03.25-.06.36-.02.13-.04.25-.05.39v.19s-.12.16-.12.16l-.18.67c.09.47-.02,1,.19,1.43l-.02.12-.46-.06c-.12,0-.23.03-.3.15,0,.07-.03.14-.05.21-.14.44.13.66.34.92.62.43-.08.46-.15.67.04.03.08.05.12.08-.11.03-.22.09-.33.18.24.41.61.18.92.25v-.11s0-.11,0-.11c-.06-.07-.13-.12-.19-.16.07-.02.13-.05.2-.1l.02-.15c.18.15.37.16.57.05,0,.17,0,.33.17.42.04.27-.13.43-.23.62h0s0,0,0,0l-.46-.15-.09-.12c-.54.13-.29.85-.62,1.14.05.32-.09.4-.32.37-.13.04-.21.14-.24.3,0,.33.2.55.33.81.08.14.17.26.28.36.12.09.23.11.32.06h0s-.01.44-.01.44l.36.09v-.08s.38-.17.38-.17v.06c.09.1.18.14.28.14-.06.14-.11.29-.16.45-.03,0-.07.02-.11.05-.08-.19-.21-.31-.4-.32-.32.19-.6.43-.69.88-.03-.04-.05-.07-.09-.1-.15-.11-.3-.19-.47-.23-.19-.01-.33.07-.4.3l.06.71c-.17.54-.22,1.07.17,1.46.08.05.17.06.27.04.08.3.28.62-.12.87l.23.75c0,.06-.01.12-.03.17l-.41.26c-.11.85-.94,1.37-.81,2.32l.24.27c-.09.04-.18.09-.26.16-.25.24-.37.53-.47.83l-.27,1.01c-.08.27-.22.52-.22.81.36.35-.17.5-.17.77-.08.44-.08.88-.17,1.31,0,.1.01.19.04.29.08.21.04.38-.04.55-.06-.11-.15-.18-.29-.2-.33.06-.48.31-.53.65-.21.26-.14.56-.18.85.18.15.19.48.41.6-.02.18-.05.38-.1.55-.19-.11-.4.02-.61.26l.16.75.11.17v.02c-.16.48.03,1.19-.7,1.32-.13.03-.27.07-.38.18-.23.42.34.75-.02,1.19-.12.36-.36.6-.61.83-.07.49,0,1.07-.63,1.2-.1.33.02.69-.18,1.01-.12.47.12.79.16,1.2.11.11.22.23.34.23l-.06.11s-.05.08-.06.12l-.06.12c-.09.18-.17.36-.24.55l-.08.06c-.23-.07-.45-.11-.65.23.02.56-.16,1.1-.41,1.6l.04.03v.02s-.4,1.03-.4,1.03c-.14.08-.24.22-.32.38-.08.16-.14.36-.35.35l-.27.13c-.05.46.09,1-.52,1.27l-.1.21c-.36.62-.81,1.15-1.09,1.81-.04.05-.08.11-.1.17l.5.59c-.02.05-.05.11-.09.15l-.04.07c-.61-.5-.8-.45-1.2.3-.03.42.13.91-.45,1.14-.36.08-.35.4-.42.66-.03.24-.02.47.06.67.07.14.16.21.27.21v.02c-.26.1-.36.29-.35.55-.05-.07-.14-.09-.25-.06-.09.04-.18.09-.27.15-.27.22-.61.27-.87.5-.1.12-.17.25-.13.4l.03.31c.07.32-.12.54-.35.74-.42.54-.55,1.21-.9,1.78l-.27.38c-.28.31-.5.6-.12.74h0c-.23.31-.52.55-.78.82-.3.29-.61.54-.87.87-.64.81-1.57,1.43-1.65,2.59,0,.11-.2.22-.31.32-1.22,1.35-2.39,2.71-3.27,4.3-.02.07-.06.13-.12.17-.42.77-1.21,1.29-1.58,2.1-.28.5-.75.9-.91,1.45h0s0,0,0,0c-.13.14-.32.27-.22.48l-.42.15c-.84.16-1.21.67-1.29,1.44-.43,1-1.71,1.41-2.04,2.48h0c.05.22-.65.71.11.69.36.22.84,0,1.1-.23.72-.64,1.55-.98,2.35-1.39-4.27,3.82-9.06,7.27-14.43,10.14-1.32.73-2.72,1.35-4.09,2-1.42.6-2.79,1.22-4.3,1.74-1.52.52-3.02,1.06-4.56,1.47-.28.08-.57.15-.86.23.07-.04.16-.06.23-.11-1-.09-2.38.41-3.61.67-.05.07-.04.13.02.17.23.02.51-.03.85-.16.27-.07.56-.11.85-.14-.7.16-1.4.31-2.11.45-1.14.23-2.28.42-3.43.59,1.01-.22,2.19-.44,2.35-.79l.41-.1-.07-.36c-.41-.25-.84-.48-2.24-.46-.3,0-.61,0-.94,0-.96.01-1.85-.03-2.48-.17-.68-.17-.52-.5-1.6-.61.58-.34.09-.51-1.04-.64l-.54.03c-.06.28-.29.54-1.05.8h0c-.24.02-.48.04-.72.05-1.17.18-1.56.48-2.56.66-.94.22-1.94.41-1.47.79.76.26,1.43.54,2.46.71-.95.09-1.04.33-1.6.48l1.04.24c-1.6-.03-3.22-.12-4.83-.28-.13-.1-.31-.19-.61-.29.12.01.27.02.3.03,3.33-.22.68-.74-.42-1.09.29.04.76.06,1.34.01.07-.05.09-.1.06-.16.24-.35,1.75-.4,2.66-.63l.65-.32h.12c.87-.04,2.09-.03,1.78-.36-1.66-.15-2.34-.89-4.95-.59l-.24.52-.66-.05c0,.44-1.51.22-2.68.07-.39.24.69,1.13-2.73.12-.74.05-1.68-.18-2.6-.44-.79-.2-1.5-.34-2.17-.42-.92-.17.02.57-1.72,0-.82.02-.97.34-2.08.21-.36-.02-.68-.03-.82.06,0,0,0,0,0,0-.22-.08-.44-.15-.65-.23l.18.03c-.21-.21.1-.29-.74-.68-.72-.33-1.44-.59-2.15-.86-1.3-.48-2.43-1.09-3.41-1.79-.32-.2-.65-.39-1-.57-3.02-1.59-.77-.99-1.37-1.57.41.05-1.06-1.16.59-.29.87.64,1.8,1.24,2.88,1.7.07.02.12.04.19.06.84.61,1.59,1.21,2.42,1.78.55.38,1.18.73,1.98,1.07.98.38,1.87.61,2.76.81,2.33.54,2.23.04,1.95-.48-.07-.09-.12-.16-.15-.24-1.92-.59-2.23-1.25-3.78-1.94-1.47-.25-2.64-.95-3.81-1.72.07.02.15.03.22.05.34,0,.46-.11.42-.3-.13-.34-.4-.71-1.15-1.26l-1.35-.52c-1.1-.38-2.1-.98-3.04-1.68.09.01.12-.03.08-.14-.88-.74-1.76-1.52-2.59-2.31-1.47-1.41-3.03-2.45-4.49-3.56-.35-.24-.48-.26-.48-.13-.5-.4-.9-.66-1.17-.69-.07.01-.14.02-.22.01-.51-.5-1.01-1.04-1.38-1.17-.19-.07-.25,0-.19.19l.08.14c-.2.04-.2.34-.93-.31-.59-.45-.76-.4-.8-.14.03.21.12.45.21.7l-.29-.42c-.14-.19-.27-.36-.41-.54-.49-.99-.79-1.85-.6-2.22-.17-.66-1.06-1.74-1.5-2.61l-.88-1.37c-.76-1.02-1.26-1.99-1.62-2.95h0c.16.02-.49-1.29.21-.4l-.16-.73-.79-1.47c-.53-.81-1.05-1.63-1.54-2.46-.17-.42-.35-.83-.48-1.25-.16-.44-.33-.88-.5-1.33l-.26-.67-.11-.59c-.24-.8-.46-1.6-.68-2.41-.66-1.62-1.12-3.55-1.75-5.07l-.1-.45c.17.06.33.06.5.08.11-.04.19-.18.14-.66-.06-.27-.11-.53-.15-.79-.27-1.67-.71-2.4-1.11-3.28-.93-1.38-.27-1.73-.36-2.57-.06-.11-.11-.17-.17-.24.08-.15.14-.41.19-.79-.48-1.48-.69-.46-1.03-.6l.06.4.07.4c.11.24.2.4.29.52-.05.1-.09.24-.12.46l.09.57c-.27-.49-.47-.47-.58.01-.13-.62-.24-1.24-.45-1.49-.2-.99-.15-1.64-.16-2.42l.53.41.16.43c.43-.67-.21-3.34-.03-4.55-.19-1.2-.1-1.58.14-1.56.11-.2.14-.63.1-1.24-.15-1.26-.41-2.04-.63-3-.12-.5-.25-.93-.4-1.25-.14-.28-.25-.3-.33-.09v-.03s-.12-1.66-.12-1.66l-.38-.16.03.29-.33.85v-.24c-.13-.34-.23-.45-.33-.41,0-.58.02-1.16.03-1.76.03-.03.06-.11.09-.22.13.67.28,1.07.47,1.01.27-.87.47-1.89.46-3.6.03.13.07.24.11.34.17.33.34.56.51.65.19-.05.31-.4.33-1.31l-.17-2.68c.09-2.14.11-4.16-.35-5.54-.09-.16-.18-.14-.27,0-.06-.58-.15-1.12-.18-1.65-.04-.55.02-1.1.23-1.62l-.11-1.25c-.02-.41,0-.79,0-1.2.02-.19.05-.38.09-.57.16-.34.39-.65.59-.97.7-2.76,2.29-4.44,3.78-6.94l.19-.73c.17-.1.38-.21.63-.36,1.48-1.15,3.13-2.64,4.97-3.66.73-.47,1.56-.69,2.31-1.14.6-.66,1.55-.56,2.32-.79.68-.16,1.33-.42,2.03-.51.68-.13,1.37-.28,2.09-.28.31-.04.6-.08.87-.14.59-.15,1.18-.07,1.77-.02-.31.07-.45.17-.41.3.22.17.56.26.97.37.41.13.91.22,1.47.29.48.14.93.31,1.4.39.47.08.93.18,1.37.35.36-.1,1.43.18,1.61.03.49.21,1,.41,1.49.66-.23.1.2.56.9,1.14.67.25,1.27.63,1.94.94.15.04.28.11.42.16l.04.04c1.25,1.04,2.85,2.32,2.99,3.67.03.24.11.49.27.93.71,1.3,1.46,1.38,1.96,3.03.2.57.35,1.09.47,1.59.06.52.1,1,.14,1.47.24.73.37,1.52.51,2.25.04.74-.02,1.44-.26,1.97-.06,1.09.17,1.88-.13,3.47-.15,1.91.12,2.8.17,4.26.12.24.24.56.37.38l-.05.5c-.03.17-.04.35-.05.53l-.05.53c-.08.79-.15,1.59-.2,2.38-.02.11-.05.23-.08.36-.24.09-.48.27-.63,1.84.11,2.08.07,4.33.04,6.67l.05.05v.11c.03,1.52.08,3.05.2,4.58-.06.59-.04,1.29.02,2.04.07.76.21,1.6.07,2l-.03,1.04c.47,1.87,1.19,3.54,1.55,5.91l.39,1.02c.41,1.07.89,2.12,1.49,3.17.72,1.14,1.29,1.87,2.11,2.98l.67.66.59.55c.4.36,1.03.85,1.48,1.12.2.16.46.34.77.52.53.05,1.04.07,1.55.07l.76.38.32.15c-.48.21-.59.41-.09.78.5.35,1.63.89,3.6,1.38,1.73.24,3.34.15,5.62.65,1.14.32,2.49.13,3.66-.07.96-.23,1.82-.41,2.33-.71.33-.19.37-.32.12-.37l.09-.02c.93.01,1.84-.21,2.68-.6-.11.11.04.16.39.15l.27-.03c.19-.04.33-.05.48-.1.07-.01.5-.15.51-.14l.28-.07c1.33-.35,2.2-.39,3.65-.95.64-.28,1.21-.57,1.58-.9l.83-.67c.76-.69,1.82-1.29,2.92-1.92,2.46-1.59,4.34-3.47,6.35-5.39.47-.45.94-.9,1.4-1.36,1.25-1.18,2.26-2.32,1.67-2.24l.02-.02c1.05-1.14,2.07-2.23,3.06-3.39,1.08-1.27,2.14-2.57,3.1-4.02.16-.25.32-.49.48-.72l.58-.83,1.48-2.46.7-1.19.58-1.24c.73-1.65,1.47-3.28,1.79-4.91.08-.38.46-1.1.7-1.67,2.7-7,4.03-14.58,3.29-21.93-.05-.27-.08-.57-.08-.88-.41-3.49-.9-7.37-2.29-10.62-.39-1.07-.91-2.19-1.4-3.28-.54-1.06-1.11-2.08-1.72-2.9h0s0,0,0,0c-.37-.68-.85-1.51-1.17-1.63-.26-.5-.51-1.03-.8-1.52-1.34-2.72-3.28-4.61-5.33-5.8-1.61-1.19-3.33-2.61-5.14-3.88-1.8-1.26-3.74-2.36-5.52-2.93h0c-.44-.03-3.41-1.52-1.49-.08.32.59,1.98,1.6,3.13,2.26,3.23,1.89,5.65,4.1,7.89,6.56-2.18-2.09-4.64-4-7.35-5.68-6.15-3.71-13.32-6.27-20.94-7.4-.75-.11-1.51-.21-2.26-.3.02-.01.03-.01.05-.03-.25-.35-.71-.26-1.09-.31-.02.05-.03.11-.02.17.06.08.15.1.26.07.01,0,.02,0,.03,0-.5-.06-1.01-.09-1.52-.14.33-.05.72-.02.82-.33.05,0,.09,0,.13,0l.04-.37c-.08-.33-.16-.66-.59-.9-.09-.06-.18-.11-.29-.16-.29-.15-.56-.31-.75-.53-.2-.25-.11-.57-.45-.79.22-.27.08-.51-.28-.72h-.18c-.04.26-.14.52-.41.73h0c-.08,0-.16.01-.24.03-.4.14-.54.45-.87.63-.32.23-.64.45-.5.82.23.24.44.5.75.68-.3.1-.34.33-.52.49l.31.23c-.49-.02-.98-.05-1.47-.07-.04-.09-.09-.17-.19-.24.04,0,.08,0,.09,0,1.03-.48.22-.81-.13-1.04.09.02.24-.01.43-.11.02-.05.03-.11.02-.16.08-.37.57-.51.87-.76l.22-.33h.04c.29-.06.69-.03.6-.36-.54-.16-.75-.92-1.64-.46l-.08.54h-.22c0,.45-.49.36-.88.39-.12.31.25.98-.88.55-.23.19-.54.15-.85.11-.26-.02-.49.05-.71.15-.3.11.06.53-.52.5-.24.27-.25.62-.58.86-.11.1-.19.21-.23.34,0,0,0,0,0,0-.07,0-.14,0-.21,0l.05-.04c-.08-.12,0-.31-.3-.36-.25-.03-.48,0-.71.06-.42.12-.81.07-1.19-.07-.12-.02-.24-.02-.36,0-1.05.21-.39-.44-.65-.63.11-.18-.5-.4.08-.56.35.08.7.12,1.08.03l.06-.03c.34.16.63.35.95.52.21.11.44.19.71.2.33-.01.61-.11.89-.21.74-.23.67-.64.53-1.07-.03-.06-.05-.12-.07-.18-.65.04-.83-.48-1.39-.54-.47.32-.92.16-1.38.02.02-.02.05-.03.07-.05.09-.15.11-.3.07-.46-.1-.24-.23-.46-.56-.6l-.49.2c-.38.22-.78.25-1.17.2.03-.04.02-.09-.01-.16l-1.19-.33c-.76-.18-1.35.13-1.96.38-.13.08-.16.17-.13.25-.21.08-.35.19-.41.37l-.03.17c-.23.04-.47.07-.57.26-.05.1-.04.19.03.27.02.01.03.02.05.03-.02.18.07.37-.23.5-.22.16-.23.34-.15.53.07.1.15.19.24.28l-.17-.04c-.08-.02-.15,0-.22-.02-.37-.24-.67-.5-.77-.87-.23-.25-.68-.15-1.01-.25l-.54.02c-.4.14-.77.09-1.11-.03h0c.02-.14-.47-.15-.13-.37l-.26-.18-.55.07-.91.42c-.15,0-.3.01-.44,0-.16,0-.31,0-.47.02l-.24.03-.21-.08-.84-.06c-.55.18-1.22.16-1.7.48h-.15c0-.15,0-.31-.01-.46-.02-.12-.08-.22-.25-.26-.09,0-.18,0-.27,0-.57-.03-.79.29-1.05.56-.38.72-.57.04-.85.03-.03.05-.05.09-.06.14-.06-.1-.16-.19-.3-.27-.44.35-.06.64-.07.96l.13-.02.13-.03c.07-.08.11-.16.14-.23.04.06.1.11.17.17l.19-.02c-.13.21-.1.4.08.57-.2.05-.39.1-.45.28-.31.12-.53,0-.79-.04l.06-.49.12-.12c-.29-.49-1.1-.03-1.53-.26-.37.15-.51.04-.55-.19-.09-.12-.24-.16-.43-.13-.39.12-.6.39-.87.59-.14.12-.26.25-.33.4-.06.14-.05.25.03.33h0s-.51.14-.51.14l.02.37.09-.04.33.31-.07.02c-.09.12-.1.22-.07.32-.19,0-.37,0-.56.01-.02-.03-.05-.06-.09-.08.18-.15.28-.31.22-.49-.33-.23-.7-.41-1.23-.32.03-.04.06-.08.08-.12.07-.18.11-.35.1-.53-.05-.18-.19-.29-.48-.27l-.8.32c-.68.05-1.31.18-1.62.74-.03.1,0,.18.06.26-.32.21-.6.53-1.05.28l-.75.55c-.07.03-.13.04-.2.05l-.47-.25c-1,.29-1.98-.2-2.98.38l-.18.34c-.09-.06-.19-.12-.31-.16-.78-.22-1.57.13-2.36.3-.32.07-.66.09-.97.24-.18.5-.62.13-.91.27-.51.17-.99.43-1.5.59-.11.06-.2.12-.29.2-.18.19-.39.26-.61.29.09-.11.1-.23.05-.36-.26-.24-.62-.21-1.03-.05-.42-.01-.72.24-1.06.39-.05.24-.42.47-.38.72-.18.1-.37.18-.56.26-.01-.22-.27-.3-.65-.31l-.65.63-.1.2h-.02c-.58.21-1.14.83-1.77.36-.12-.09-.24-.16-.43-.17-.57.11-.51.78-1.18.8-.43.15-.83.14-1.23.11-.53.29-1.03.74-1.61.36-.39.16-.65.5-1.11.57-.53.26-.65.69-1,1.02-.02.16-.05.33.04.42l-.15.05c-.05,0-.1.03-.15.05l-.15.05c-.23.08-.46.16-.68.26h-.12c-.11-.22-.25-.41-.71-.27-.49.45-1.11.74-1.76.98v.05s-.03,0-.03,0l-1.23.57c-.19-.02-.39.02-.6.1-.2.08-.42.21-.59.07l-.34-.05c-.07.07-.31.23-.5.37-.2.14-.39.27-.6.39-.41.24-.86.42-1.52.46l-.46.21c-.39.66-.79,1.32-1.18,1.98l-.53.92c-.11.19-.21.39-.3.59-.05.06-.09.14-.12.21l.48.64c-.03.07-.06.13-.1.2l-.04.08c-.61-.52-.81-.42-1.27.54-.05.51.1,1.05-.51,1.45-.37.17-.37.55-.44.89-.02.29-.01.56.08.78.08.15.17.21.29.19v.02c-.26.18-.36.42-.34.72-.06-.07-.15-.07-.27,0-.1.07-.18.15-.27.24-.27.33-.61.49-.86.84-.1.17-.15.35-.1.51l.06.35c.11.36-.07.66-.28.98-.35.77-.38,1.59-.65,2.37l-.2.54c-.21.46-.38.88.04.89h0c-.17.44-.4.83-.61,1.24-.24.45-.47.88-.64,1.37-.43,1.21-1.14,2.4-.81,3.71.03.13-.12.34-.19.52-.68,2.13-1.18,4.32-1.18,6.53.02.09.01.17-.02.26.02,1.06-.41,2.13-.26,3.19.05.68-.13,1.42.08,2.05h0s0,0,0,0c-.01.23-.09.49.12.61l-.24.47c-.56.8-.56,1.58-.09,2.32.33,1.21-.33,2.65.23,3.81h0c.2.13.05,1.13.57.45.41-.14.59-.72.61-1.12.04-1.11.44-2.04.76-3-.96,8.72-.69,17.57.82,26.21-.03-.06-.05-.12-.1-.18-.19.72.15,1.74.31,2.64.06.03.12.03.17-.02.02-.08.02-.17,0-.26.22,1.08.46,2.16.71,3.23-.27-.74-.48-1.77-.85-1.87l-.08-.3-.36.07c-.26.32-.52.66-.48,1.72,0,.23,0,.46.02.72.05.72.08,1.4,0,1.91-.09.55-.45.49-.41,1.34-.4-.38-.53.03-.47.95l.12.41c.28-.02.58.1.97.6h0s.2.52.2.52c.45.81.84,1,1.27,1.67.46.6.93,1.22,1.15.76.03-.62.11-1.18.02-1.94.33.63.57.61.86.94l-.04-.79c.36,1.1.71,2.21,1.12,3.3-.05.12-.08.27-.05.51-.03-.08-.07-.18-.08-.2-1.25-2.09-.94-.14-.83.73-.07-.21-.24-.51-.46-.89-.07-.03-.12-.02-.16.02-.4-.02-.92-1.04-1.39-1.61l-.49-.36-.03-.09c-.28-.61-.58-1.51-.82-1.18.29,1.26-.23,2.05.9,3.82l.56-.04c.06.16.11.33.19.48.4-.18.76.93,1.13,1.76.39.13.66-.96,1.29,1.68.38.43.62,1.11.91,1.78.25.57.53,1.04.84,1.45.39.59.43-.34.97.91.49.4.81.28,1.37.88.21.18.41.32.56.33,0,0,0-.01,0-.01.08.15.16.29.24.44l-.09-.09c-.02.23-.27.15,0,.77.24.52.53,1,.84,1.46.57.83.93,1.68,1.27,2.49.12.25.26.49.42.73,1.44,2.04.06.97.21,1.59-.3-.15.24,1.2-.61.07-.34-.74-.73-1.48-1.26-2.2-.04-.04-.07-.08-.1-.11-.25-.75-.37-1.46-.57-2.2-.14-.48-.31-.99-.6-1.56-.37-.68-.8-1.22-1.17-1.78-.95-1.5-1.25-1.17-1.5-.69-.02.09-.06.16-.1.23.67,1.38.4,1.96.98,3.17.82.84,1.17,1.85,1.53,2.87-.04-.04-.08-.09-.12-.12-.24-.13-.4-.1-.49.06-.1.3-.19.69.09,1.41l.77.92c.66.69,1.16,1.48,1.6,2.31-.06-.04-.11,0-.13.1.35.87.8,1.67,1.2,2.52.82,1.58,1.82,2.66,2.93,3.68.26.22.38.24.4.13.36.36.67.59.91.62.06-.01.13-.01.2-.01.36.44.71.89,1.02.98.16.05.22,0,.2-.18l-.05-.12c.19-.04.24-.31.78.22.45.35.62.28.69.06,0-.18-.03-.38-.07-.59l.19.34c.09.16.2.28.3.42.32.79.52,1.47.33,1.82.11.54.87,1.33,1.26,1.98.27.33.52.67.81.98.75.65,1.27,1.32,1.7,2h0c-.15.04.59.92-.14.4l.24.56.92.95c.6.47,1.25.9,1.87,1.35.25.25.5.51.72.76.25.27.51.54.78.8l.41.39.26.4,1.38,1.4c1.13.79,2.22,1.92,3.38,2.5l.28.23c-.16.08-.28.18-.41.27-.07.1-.06.24.2.53.17.14.33.28.48.42,1,.9,1.68,1.06,2.4,1.32,1.33.2,1.09.82,1.6,1.25.1.02.17.01.25.01.03.15.13.34.31.59,1.15.45.71-.27,1.01-.45l-.26-.18-.26-.16c-.2-.05-.35-.07-.47-.08-.02-.09-.07-.21-.17-.35l-.37-.26c.44.07.56-.08.38-.43.41.26.82.51,1.09.5.67.38.99.78,1.43,1.17h0s0,0,0,0l-.56.2-.34-.11c.1.71,2.01,1.62,2.67,2.32.85.41,1.03.67.88.85.06.19.32.41.72.67.88.46,1.5.61,2.25.81.39.1.74.16,1.02.16.26-.01.33-.1.23-.25h.02s1.14.56,1.14.56l.29-.27-.21-.08-.39-.61.16.08c.28.03.4-.02.42-.12.36.24.74.47,1.13.69,0,.04.04.1.1.16-.5-.13-.83-.15-.88.04.45.54,1.01,1.18,2.2,1.71-.1-.01-.2-.02-.28-.02-.3.04-.54.12-.68.24-.05.18.14.41.76.73l1.95.71c.73.38,1.45.73,2.14.97.69.21,1.34.33,1.92.29.14-.04.17-.13.09-.25.86.18,1.72.23,2.48.89.69.14,1.39.22,2.09.31.16.04.33.09.49.15l.81.62c2.4.74,4.18,1.86,6.87,2.21l.67-.13c.14.12.32.23.56.34,1.58.68,3.65,1,5.57,1.31.79.12,1.57.29,2.39.34.79-.34,1.51.25,2.27.27,1.31.07,2.59.05,3.9.14.29,0,.56-.02.81-.05.54-.08,1.08-.1,1.62-.05-.28.08-.41.18-.37.32.42.31,1.28.41,2.35.39.95.14,1.83.04,2.73-.04.29-.23,1.31-.37,1.38-.62.49-.06.98-.1,1.48-.13-.13.22.42.35,1.29.44.65-.14,1.29-.34,1.93-.53l.37-.19h.05c1.49-.17,3.19-.69,4.32-.21.21.09.46.17.89.17,1.4-.12,1.66-.82,3.24-.85,1.09-.17,1.99-.24,2.88-.24,1.38-.39,2.83-.89,3.92-.64.99-.27,1.78-.71,2.85-.9,1.36-.39,1.87-.95,2.83-1.46.12-.19.29-.4.12-.46l.36-.11c.13-.03.25-.07.38-.11l.38-.11,1.67-.53c.08-.01.17-.02.27-.03.15.2.36.37,1.45,0,1.32-.78,2.85-1.36,4.4-2v-.06s.08-.03.08-.03l2.95-1.4c.42-.08.88-.25,1.35-.47.47-.25.98-.55,1.3-.5l.7-.17c1.07-.77,2-1.6,3.5-2.01l.58-.36c1.78-1.05,3.68-1.89,5.34-3.18.17-.1.33-.2.48-.32l.27-1.05c.14-.1.28-.2.42-.29l.18-.12c.09.87.52.78,2.56-.69.79-.84,1.33-1.75,2.73-2.36.75-.25,1.29-.86,1.84-1.43.42-.5.77-.97.94-1.36.09-.26.05-.37-.13-.34l.05-.04c.57-.3,1.03-.72,1.4-1.23-.01.12.11.12.34.03.22-.11.44-.25.68-.4.82-.54,1.44-.83,2.23-1.45.35-.31.64-.62.79-.92l.37-.63c.32-.64.93-1.19,1.61-1.74,1.38-1.43,2.4-2.95,3.68-4.4.31-.33.58-.69.87-1.04.79-.88,1.47-1.69.97-1.7h.01c.7-.85,1.45-1.59,2.15-2.4.75-.89,1.52-1.75,2.25-2.71.93-1.19,1.87-2.39,2.7-3.64.83-1.25,1.62-2.49,2.04-3.84.08-.26.46-.72.7-1.08,2.88-4.37,5.21-9.05,7.02-13.79.05-.18.13-.37.23-.56.75-2.32,2.09-4.62,2.62-6.97.41-1.51,1.13-3.12,1.31-4.55h0s0,0,0,0c.16-.52.41-1.1.26-1.36l.55-1.04c1.12-1.77,1.53-3.52,1.47-5.21.39-2.75,1.8-5.98,1.78-8.68h0c-.13-.32.47-2.6-.37-1.08-.48.29-.93,1.61-1.15,2.53-.59,2.56-1.53,4.68-2.43,6.87.33-1.08.67-2.15.97-3.24,2.94-10.59,4.74-21.61,4.95-32.59.02.05.02.1.05.14.32-.65.17-1.67.21-2.55-.06-.04-.11-.05-.17-.01-.07.16-.09.35-.05.6,0,.02,0,.04,0,.06,0-1.15,0-2.3-.04-3.45.09.73.1,1.63.43,1.79l.03.3h.37c.32-.26.63-.53.82-1.53.05-.22.09-.44.13-.68.09-.69.2-1.34.38-1.8.21-.5.55-.37.7-1.18.31.43.53.07.65-.79l-.03-.41c-.28-.04-.55-.21-.81-.76ZM251.6,113.91c0-.16,0-.31,0-.45.08.47.15.94.25,1.39.14.37.2.66.23.91-.14-.1-.29-.26-.44-.52h0s-.12-.51-.12-.51c-.09-.25-.19-.44-.29-.61-.07-.43-.13-.86-.21-1.29.18.59.32,1.33.58,1.07ZM246.43,96.09s.04.01.06.02c-.02.12-.04.25-.04.4l-.12-.55s.07.09.11.13ZM231.81,71.61c.52.42.97.62,1.53,1.17.61.65.48.85.55,1.18l-.04.04-1.27-1.07c-.03-.12-.12-.28-.3-.53-.16-.16-.3-.28-.46-.42-.18-.23-.35-.46-.56-.67l-.37-.38-.12-.2c.02-.06.03-.14.02-.23-.04-.1-.09-.19-.15-.28.38.47.79.91,1.15,1.39ZM213.75,55.03c.5.24.96.55,1.44.83-.53-.21-1.02-.54-1.53-.82.04,0,.07,0,.09-.02ZM199.56,49.91s-.09-.09-.13-.14c1.18.24,2.35.52,2.88,1.11.07.13.24.18.48.18-.34.11-.2.31.35.59-.03,0-.03.03-.05.04-.45-.11-.9-.21-1.32-.26-.2,0-.33,0-.41.02-.16-.13-.39-.27-.69-.38l-.34-.11c.03-.21-.23-.42-1.13-.66.34-.05.41-.2.37-.39ZM188.04,48.82c.45.2.91.2,1.38.2-.08.02-.13.05-.18.09-.49-.06-.89-.17-1.26-.29h.06ZM65.91,91.28s.08.01.14,0l-.61.59s-.08-.02-.12-.04l.59-.56ZM124.2,79.88s-.02,0-.02,0c.02,0,.04,0,.05,0-.01,0-.02,0-.03.01ZM127.72,80.05c-.15-.05-.33-.07-.55-.03-.2.11-.34.33-.63.28-.16-.07-.3-.18-.47-.22l-.21-.05.49-.12c0-.05-.02-.1-.03-.15,0-.08-.02-.14-.06-.2.33-.05.66-.1.99-.15l-.03.03c-.04.33.32.41.5.6ZM130.07,79.54c-.13.1-.23.12-.32.12.03-.13.08-.26.16-.38h0c.06-.02.12-.04.18-.06.07-.05.11-.12.16-.18.17-.02.34-.04.51-.06-.21.08-.47.13-.36.42.06.01.11.03.16.06-.17.02-.34.03-.49.08ZM136.95,78.74v.05c-.05-.06-.1-.13-.15-.18l.2.08s-.04.03-.05.05ZM147.01,79.53c-.24.09-.4.28-.68.32-.31,0-.32-.23-.41-.39v-.06s.58-.21.58-.21c.03.06.1.1.2.14.08,0,.15-.03.22-.05.1.03.2.05.3.06l.19.02.07.06c0,.06.02.12.04.18.03.04.06.07.1.1l-.61-.19ZM154.87,83.02l-.51-.17c.19-.03.37.05.54.13l-.03.05ZM159.63,84.07s.02.08.03.12c-.39-.05-.76-.12-.89-.57-.01-.11-.07-.12-.15-.07.14-.17.11-.34-.06-.49.01-.01.01-.03.02-.05.15.01.31.02.46-.02.07-.03.12-.07.15-.1.04.1.11.18.21.24l.11.05c-.04.2.03.37.32.46-.13.1-.18.26-.19.44ZM163.16,83.92c.06.02.09.07.14.1-.07-.01-.15-.01-.22,0,.03-.02.06-.05.08-.09ZM163.52,84.17s-.06-.04-.08-.06c.03.03.08.04.1.07h-.02ZM201.67,108.11l-.15-.24s.05-.05.06-.08l.18.25s-.05.05-.08.08ZM209.94,125.92c-.34,0-.36.39-.53.6.03-.17.03-.36-.04-.59-.14-.2-.38-.32-.37-.64.04-.18.13-.33.14-.53v-.23s.21.51.21.51c.05-.01.1-.03.15-.05.07,0,.13-.04.18-.09.1.35.21.69.31,1.04l-.04-.03ZM210.42,129.32c0,.06-.02.12-.04.18-.04-.18-.08-.36-.14-.52-.11-.12-.16-.23-.16-.33.13.02.27.06.4.13h0c.02.06.05.13.08.19.06.07.13.09.19.14.04.18.09.36.13.53-.1-.21-.18-.47-.46-.33ZM211.86,136.12l-.07.22s-.03-.04-.06-.05h-.05c.06-.06.12-.11.17-.17ZM211.47,145.99h.06s.23.62.23.62c-.05.04-.1.11-.13.22,0,.08.04.15.05.23-.02.11-.04.22-.05.33v.2s-.07.08-.07.08c-.06.01-.12.03-.18.05-.04.04-.07.07-.1.11l.17-.67c-.1-.25-.3-.42-.34-.72-.02-.33.22-.35.38-.46ZM208.27,155.2c.04.21-.03.41-.11.6-.02-.01-.03-.03-.05-.03l.15-.57ZM207.54,159.97c.11-.02.12-.08.07-.17.18.14.34.1.49-.08.01.01.03.01.05.02-.01.17-.01.33.03.49.03.08.07.13.11.16-.09.05-.17.13-.23.23l-.04.12c-.2-.03-.37.04-.45.36-.11-.14-.26-.18-.44-.19-.04,0-.08.02-.11.03.04-.42.1-.83.54-.98ZM207.29,164.78c-.02.07-.07.1-.09.16.01-.08,0-.16,0-.24.02.03.06.06.09.09ZM207.04,165.18s.04-.06.06-.09c-.03.03-.04.08-.07.12v-.02ZM184.83,208.93s.06.03.1.04l-.22.24s-.06-.04-.1-.06l.23-.21ZM138.21,228.25c.59.08,1.28.12,2.16.09.85-.11,1.53-.33,2.65-.32.61.05,1.09.13,1.77.13.27,0,.55,0,.82-.01l-2.03.24c-.01.05,0,.1.06.15-.04.09,0,.16.15.21-1.34.11-2.69.17-4.04.2l.13-.03c.34-.33-1.08-.43-1.67-.65ZM127.18,227.53c-.22-.05-.41-.12-.6-.2.67.13,1.34.26,1.98.33.55,0,.97.05,1.32.12-.19.1-.46.19-.87.23h0c-.25-.03-.5-.05-.75-.08-.35-.01-.62,0-.88.02-.61-.11-1.23-.24-1.84-.37.86.13,1.87.29,1.63-.06ZM103.09,216.93s.05,0,.08,0c.08.14.16.3.28.46-.2-.18-.38-.37-.57-.56.07.03.15.07.21.1ZM83.77,185.1c.37,1.19.17,1.33.15,1.78l-.05.03-.88-2.15c0-.16-.02-.42-.1-.84-.1-.3-.19-.55-.28-.83-.09-.4-.17-.8-.26-1.21l-.17-.73v-.32c.03-.06.08-.14.11-.25,0-.14,0-.29,0-.43l.44,2.49c.33.88.69,1.44,1.04,2.47ZM81.91,151.25c-.06-.77-.02-1.55.04-2.34.02.04.03.08.05.1-.03.75-.06,1.49-.09,2.23ZM84.41,134.53c-.14.06-.24.25-.29.51-.02-.4-.25-.28-.68.32,0-.03-.02-.04-.03-.06.25-.5.42-1.04.65-1.5.09-.23.13-.38.13-.47.2-.16.41-.38.65-.7.08-.12.16-.24.26-.35.18.1.53-.1,1.22-.97-.13.38-.02.51.17.54.06,0,.13-.05.19-.08-.86,1.1-1.53,2.27-2.29,2.74ZM97.49,123.98c-.59,0-1.15.15-1.66.4.08-.06.13-.12.16-.17.59-.16,1.11-.21,1.57-.24l-.07.02ZM179.26,119.77c.19.35.38.69.55,1.05-.02.03-.03.1-.02.18-.18-.37-.38-.73-.59-1.09.02-.03.03-.09.05-.14ZM137.15,97.52c.18.08.39.14.66.15.27-.07.5-.25.84-.14.18.1.32.24.52.33l.25.1-.63-.02c0,.05,0,.1,0,.16-.02.08-.01.16.02.22-.41-.03-.83-.05-1.24-.07l.05-.03c.12-.32-.3-.47-.47-.69ZM133.72,97.72c-.07-.02-.13-.05-.19-.08.21,0,.42,0,.62-.01.17-.08.3-.09.41-.07-.06.12-.14.24-.26.35h0c-.08,0-.16.02-.23.04-.1.04-.16.11-.23.17-.22,0-.43-.01-.65-.01.27-.06.63-.06.54-.38ZM125.56,98.1l.02-.05c.05.06.11.12.17.18l-.25-.07s.05-.03.07-.06ZM113.01,98.88c.27-.15.43-.39.76-.49.38-.09.44.15.6.28v.05s-.66.34-.66.34c-.06-.04-.14-.08-.28-.08-.1.03-.17.07-.26.11-.13,0-.26,0-.38.02l-.23.03-.11-.04c-.02-.05-.05-.11-.1-.16-.05-.03-.1-.05-.15-.07h.8ZM102.17,98.41l.7-.07c-.22.11-.47.12-.72.13,0-.02.02-.04.02-.06ZM97.18,99.78c.07.09.14.07.22-.02-.07.22.05.35.32.4,0,.02,0,.04,0,.05-.19.07-.37.15-.53.26-.07.07-.11.13-.12.17-.1-.06-.22-.09-.36-.1l-.15.02c-.06-.2-.23-.31-.62-.23.1-.16.07-.32-.01-.48-.03-.03-.06-.06-.09-.09.49-.16.97-.31,1.35.01ZM91.97,101.88s-.03.08-.04.12c-.08.02-.14,0-.21,0,.09-.03.17-.08.26-.13ZM91.38,102.01c.05.02.09,0,.14,0-.05,0-.11.01-.16,0h.03ZM58.45,144.51s.07-.01.1-.03l-.04.37s-.08,0-.11.01l.05-.35ZM59.47,176.06s0-.07,0-.1c.02.11.05.22.07.33-.02-.08-.03-.15-.06-.23ZM61.58,184.67c-.39-.14-.2.87-.26,1.35-.06-.43-.2-.92-.38-1.53-.26-.57-.59-1.01-.72-1.83-.03-.45,0-.81-.06-1.31l-.07-.6.41,1.43c.05,0,.1-.03.14-.07.1.01.16-.06.2-.21.26.96.51,1.92.79,2.87l-.07-.1ZM64.42,193.47c.05.16.08.31.1.45-.19-.46-.37-.92-.57-1.35-.23-.34-.36-.62-.44-.87.16.07.35.2.56.43h0s.24.49.24.49c.14.22.27.38.4.52.18.43.34.87.53,1.3-.3-.56-.61-1.31-.82-.98ZM73.82,210.24s-.04,0-.06,0c0-.13-.02-.26-.05-.41l.25.52s-.09-.08-.14-.11ZM93.68,232.14c-.61-.33-1.13-.43-1.77-.92-.72-.57-.62-.79-.76-1.11l.03-.05,1.45.9c.05.11.17.27.4.48.19.13.37.22.55.33.23.19.46.38.7.57l.44.33.15.18c0,.07,0,.14.02.24.06.09.13.18.19.26l-1.4-1.23ZM114.17,246.85c-.52-.23-1.01-.5-1.52-.75.56.17,1.08.47,1.61.73-.04,0-.07.01-.09.02ZM128.93,251.48s.09.1.14.14c-1.21-.26-2.42-.53-2.98-1.09-.08-.12-.25-.17-.49-.16.34-.12.19-.32-.38-.57.03-.01.03-.03.05-.04.47.1.93.18,1.37.22.21,0,.34-.01.42-.04.17.13.41.25.72.37l.35.11c-.02.21.25.43,1.17.68-.34.05-.41.2-.36.39ZM140.84,252.42c-.47-.19-.95-.15-1.44-.17.08-.02.14-.05.18-.08.51.08.93.14,1.31.26h-.06ZM244.46,176.88s-.08.03-.13.07l.28-.84s.09-.02.13-.03l-.28.8ZM253.24,124.97c-.07.43-.18.77-.23,1.25l-.05.58-.1-1.43c-.05,0-.1,0-.15.04-.09-.03-.16.01-.22.13-.05-.96-.11-1.92-.19-2.88l.06.15c.34.21.4-.78.57-1.22-.03.42-.04.91.01,1.52.13.59.35,1.07.32,1.86Z"/>
    <path class="cls-2" d="M255.16,133.96l-.03,1.23c.26.66,0,2.39.44,2.62.07-.86.11-1.73.14-2.59v-1.89s-.1,0-.15.03c-.17-.07-.29.11-.39.6Z"/>
    <polygon class="cls-2" points="148.75 83.08 148.74 83.07 148.74 83.08 148.75 83.08"/>
    <polygon class="cls-2" points="130.65 80.95 130.65 80.95 130.64 80.96 130.65 80.95"/>
    <polygon class="cls-2" points="129.12 79.4 129.12 79.4 129.13 79.39 129.12 79.4"/>
    <path class="cls-2" d="M122.44,80.42c-.41-.21-.77-.04-1.13.15-.2.12-.38.25-.39.47.08.3.32.49.62.63.36.12.73.19,1.12.03.1-.06.17-.13.22-.22l.21-.4c-.32-.15-.65-.28-.64-.66Z"/>
    <path class="cls-2" d="M122.56,83.34l.87-.14.62-.16c0-.05-.02-.1-.04-.15,0-.17-.09-.28-.27-.34l-.41.08c-.17.31-.79.25-.77.71Z"/>
    <path class="cls-2" d="M125.43,83.19c.25-.14.22-.4.33-.6l-.49-.3h-.1s-.1.03-.1.03l-.19.22c-.03.36.39.41.55.64Z"/>
    <path class="cls-2" d="M118.25,83.26c.23.01.36-.11.47-.26.03-.08.04-.17.03-.25-.03-.08-.1-.13-.2-.16-.26-.1,0-.45-.31-.54l-.68-.04.07.37c.19.22.2.53.42.73.06.06.13.12.21.16Z"/>
    <polygon class="cls-2" points="208.91 129.74 208.91 129.74 208.9 129.73 208.91 129.74"/>
    <polygon class="cls-2" points="207.93 149.16 207.94 149.15 207.94 149.15 207.93 149.16"/>
    <polygon class="cls-2" points="210.25 127.94 210.26 127.95 210.27 127.96 210.25 127.94"/>
    <path class="cls-2" d="M205.34,121.51l.28.87.26.62c.05-.01.1-.03.14-.06.16-.03.27-.13.29-.32l-.15-.41c-.33-.13-.37-.77-.83-.69Z"/>
    <path class="cls-2" d="M207.66,121.72c.09-.36.16-.72.55-.77.14-.46-.1-.82-.36-1.18-.16-.19-.32-.36-.55-.34-.28.14-.42.41-.5.75-.05.4-.05.79.17,1.17.07.09.15.16.25.2l.44.16Z"/>
    <path class="cls-2" d="M205.94,124.47c.18.24.43.18.65.27l.22-.56-.02-.11-.04-.1-.25-.17c-.36.01-.35.47-.55.66Z"/>
    <path class="cls-2" d="M205.25,116.25c-.17.24-.47.31-.62.58-.05.07-.08.15-.1.24.04.23.19.35.37.43.09.02.17,0,.25-.02.07-.05.11-.13.11-.23.04-.29.45-.1.46-.42l-.13-.71-.34.14Z"/>
    <path class="cls-2" d="M163.46,223.58c.79-.38,1.46-.85,1.58-1.14-.22-.25-1.01-.07-2.1.14-1.32.3-2.61.78-4.15,1.37-.38.16-.69.32-.92.48l-.94.68c1.17-.17,2.38-.36,2.22.09,1.48-.16,2.89-.94,4.31-1.61Z"/>
    <path class="cls-2" d="M174.68,216.42c.76-.45,1.51-.91,2.25-1.38l-.18-.33c-.58.11-.58-.26-1.27-.06-.18.04-.4.11-.66.23-.74.45-1.21.88-1.6,1.29-.12.17-.17.3-.13.38.1.04.32-.03.64-.19.87-.4-.05.57.95.07Z"/>
    <polygon class="cls-2" points="127.16 225.93 127.16 225.93 127.21 225.93 127.16 225.93"/>
    <path class="cls-2" d="M149,225.46l.39-.06.39-.09c.28-.12.55-.23.82-.37.28-.41-1.35-.19-1.84-.37-1.02.28-1.01.54-1.54.8.59.04,1.18.07,1.78.09Z"/>
    <polygon class="cls-2" points="132.25 228.4 132.23 228.39 132.18 228.4 132.25 228.4"/>
    <polygon class="cls-2" points="84.46 174.1 84.46 174.13 84.46 174.14 84.46 174.1"/>
    <path class="cls-2" d="M159.72,221.9c-1.04.45-2.21.73-3.3,1.1-.81.26-1.6.61-2.42.78,0,.05.03.1.08.14-.04.17.23.27.9.16l1.59-.53c.76-.54,3.09-1.08,3.15-1.66Z"/>
    <path class="cls-2" d="M149.98,98.01c-.04-.08-.09-.16-.17-.23-.26-.11-.48-.07-.69.03-.08.06-.13.13-.15.22,0,.09.06.17.16.23.26.21-.21.41.1.62l.77.34.11-.36c-.1-.28.03-.56-.12-.84Z"/>
    <path class="cls-2" d="M142.57,95.59c-.01.05-.01.1,0,.16-.05.16.01.3.22.41l.54.06c.32-.24,1.07.04,1.22-.4l-1.14-.17-.84-.06Z"/>
    <path class="cls-2" d="M145.02,98.89c.28-.03.53-.07.64-.28.02-.32-.18-.59-.49-.84-.39-.28-.81-.47-1.34-.45-.14.02-.25.06-.34.13l-.39.31c.34.24.68.48.54.84.4.34.89.29,1.39.28Z"/>
    <path class="cls-2" d="M140.92,95.96h.13s.3-.16.3-.16c.15-.34-.37-.5-.5-.77-.36.07-.4.33-.6.49l.54.42.13.02Z"/>
    <polygon class="cls-2" points="109.89 95.95 109.9 95.96 109.91 95.96 109.89 95.95"/>
    <polygon class="cls-2" points="133.64 96.15 133.64 96.15 133.65 96.14 133.64 96.15"/>
    <polygon class="cls-2" points="135.3 97.9 135.29 97.9 135.27 97.91 135.3 97.9"/>
  </g>
</svg>