<?xml version="1.0" encoding="UTF-8"?>
<svg id="Layer_1" data-name="Layer 1" xmlns="http://www.w3.org/2000/svg" viewBox="0 0 530 150">
  <defs>
    <style>
      .cls-1 {
        fill: #157bff;
      }

      .cls-2 {
        fill: #fff;
      }
    </style>
  </defs>
  <g>
    <path class="cls-1" d="M163.28,105.84v-62.48h21.3c8.8,0,16.31,3.05,22.53,9.15,6.22,6.1,9.33,13.46,9.33,22.09s-3.11,15.99-9.33,22.09c-6.22,6.1-13.73,9.15-22.53,9.15h-21.3ZM177.28,92.99h7.3c5.16,0,9.4-1.77,12.72-5.32,3.31-3.55,4.97-7.91,4.97-13.07s-1.66-9.52-4.97-13.07c-3.31-3.55-7.55-5.32-12.72-5.32h-7.3v36.78Z"/>
    <path class="cls-1" d="M261.84,100.16c-4.52,4.43-9.97,6.64-16.37,6.64s-11.85-2.21-16.37-6.64c-4.52-4.43-6.78-9.87-6.78-16.32s2.26-11.89,6.78-16.32c4.52-4.43,9.97-6.64,16.37-6.64s11.85,2.21,16.37,6.64c4.52,4.43,6.78,9.87,6.78,16.32s-2.26,11.9-6.78,16.32ZM238.48,91.49c1.85,1.94,4.18,2.9,7,2.9s5.15-.97,7-2.9c1.85-1.94,2.77-4.49,2.77-7.66s-.92-5.72-2.77-7.66c-1.85-1.94-4.18-2.9-7-2.9s-5.15.97-7,2.9c-1.85,1.94-2.77,4.49-2.77,7.66s.92,5.72,2.77,7.66Z"/>
    <path class="cls-1" d="M313.59,100.16c-4.52,4.43-9.97,6.64-16.37,6.64s-11.85-2.21-16.37-6.64c-4.52-4.43-6.78-9.87-6.78-16.32s2.26-11.89,6.78-16.32c4.52-4.43,9.97-6.64,16.37-6.64s11.85,2.21,16.37,6.64c4.52,4.43,6.78,9.87,6.78,16.32s-2.26,11.9-6.78,16.32ZM290.22,91.49c1.85,1.94,4.18,2.9,7,2.9s5.15-.97,7-2.9c1.85-1.94,2.77-4.49,2.77-7.66s-.92-5.72-2.77-7.66c-1.85-1.94-4.18-2.9-7-2.9s-5.15.97-7,2.9c-1.85,1.94-2.77,4.49-2.77,7.66s.92,5.72,2.77,7.66Z"/>
    <path class="cls-1" d="M349.93,106.36c-5.16,0-9.4-1.42-12.72-4.27-3.31-2.84-4.97-6.97-4.97-12.36v-16.37h-8.8v-11.53h8.8v-12.23h13.29v12.23h12.32v11.53h-12.32v13.64c0,2.64.59,4.55,1.76,5.72,1.17,1.17,3.08,1.76,5.72,1.76,1.99,0,3.61-.26,4.84-.79v11.79c-1.94.58-4.58.88-7.92.88Z"/>
    <path class="cls-1" d="M366.21,105.84V39.84h13.29v66h-13.29Z"/>
    <path class="cls-1" d="M397.01,55.85c-2.23,0-4.17-.81-5.81-2.42-1.64-1.61-2.46-3.56-2.46-5.85s.82-4.24,2.46-5.85c1.64-1.61,3.58-2.42,5.81-2.42,2.35,0,4.33.81,5.94,2.42,1.61,1.61,2.42,3.56,2.42,5.85s-.81,4.24-2.42,5.85-3.59,2.42-5.94,2.42ZM390.41,105.84v-44h13.29v44h-13.29Z"/>
    <path class="cls-1" d="M414.61,105.84v-44h13.29v4.49c2.52-3.64,6.6-5.46,12.23-5.46,5.34,0,9.52,1.79,12.54,5.37,3.02,3.58,4.53,8.3,4.53,14.17v25.43h-13.29v-23.14c0-6.51-2.38-9.77-7.13-9.77-2.64,0-4.78.97-6.42,2.9-1.64,1.94-2.46,4.81-2.46,8.62v21.38h-13.29Z"/>
    <path class="cls-1" d="M488.35,125.11c-6.16,0-11.19-1.6-15.09-4.8-3.9-3.2-6.03-7.23-6.38-12.1h12.94c1.35,3.93,4.31,5.9,8.89,5.9,2.46,0,4.55-.78,6.25-2.33,1.7-1.56,2.55-3.8,2.55-6.73v-5.19c-1.06,1.58-2.66,2.88-4.8,3.87-2.14,1-4.53,1.5-7.17,1.5-5.63,0-10.47-2.16-14.52-6.47-4.05-4.31-6.07-9.55-6.07-15.71s2.02-11.4,6.07-15.71,8.89-6.47,14.52-6.47c2.64,0,5.03.5,7.17,1.5,2.14,1,3.74,2.29,4.8,3.87v-4.4h13.29v41.27c0,3.93-.63,7.36-1.89,10.3-1.26,2.93-2.96,5.22-5.1,6.86-2.14,1.64-4.5,2.86-7.08,3.65-2.58.79-5.37,1.19-8.36,1.19ZM481.31,90.35c1.99,1.88,4.37,2.82,7.13,2.82s5.13-.94,7.13-2.82c1.99-1.88,2.99-4.31,2.99-7.3s-1-5.43-2.99-7.3c-2-1.88-4.37-2.82-7.13-2.82s-5.13.94-7.13,2.82c-2,1.88-2.99,4.31-2.99,7.3s1,5.43,2.99,7.3Z"/>
  </g>
  <path class="cls-1" d="M139.41,16.62c-4.44-4.09-25.8-10.7-57.69-10.78h-.49c-31.8.08-53.25,6.69-57.69,10.78-4.69,4.16-10.85,25.8-10.85,57.56s6.16,53.4,10.85,57.56c4.44,4.09,25.81,10.7,57.69,10.78h.49c31.88,0,53.25-6.61,57.69-10.78,4.68-4.16,10.84-25.8,10.84-57.56s-6.16-53.39-10.84-57.56Z"/>
  <g>
    <polygon class="cls-2" points="37.06 95.2 37.07 95.21 37.08 95.22 37.06 95.2"/>
    <path class="cls-2" d="M33.58,86.81l-.11-.66c-.2-.33-.23-1.28-.48-1.36l.18,1.4.19,1.01s.05,0,.08-.03c.09.02.14-.09.14-.36Z"/>
    <path class="cls-2" d="M34.04,89.22l-.03-.16-.04-.15-.17-.32c-.21-.11-.14.56-.22.77.15.41.28.4.42.6l.03-.73Z"/>
    <path class="cls-2" d="M33.82,83.58c-.05.53-.05,1.08.07,1.71.04.16.09.28.14.38l.25.39c.04-.46.07-.93.28-.84.08-.56-.05-1.14-.17-1.73-.08-.32-.15-.62-.27-.7-.16.05-.26.36-.31.79Z"/>
    <polygon class="cls-2" points="54.54 120.5 54.53 120.49 54.53 120.49 54.54 120.5"/>
    <path class="cls-2" d="M33.23,77.8c-.04.06-.08.15-.11.26-.04.34.01.59.08.81.04.08.08.12.13.12.05-.03.08-.11.1-.25.08-.37.23.14.31-.29l.11-1.01-.19-.03c-.14.2-.29.11-.42.38Z"/>
    <polygon class="cls-2" points="37.01 97.47 37.01 97.46 37 97.45 37.01 97.47"/>
    <polygon class="cls-2" points="124.08 30.02 124.08 30.04 124.09 30.04 124.08 30.02"/>
    <polygon class="cls-2" points="135.57 57.39 135.57 57.39 135.56 57.37 135.57 57.39"/>
    <polygon class="cls-2" points="136.16 55.27 136.16 55.27 136.17 55.29 136.16 55.27"/>
    <path class="cls-2" d="M136.39,66.56c-.12.43-.23.86-.43.75-.18.52-.15,1.09-.14,1.67.02.32.04.61.15.71.17-.02.31-.3.44-.7.13-.49.23-1.01.23-1.63-.01-.16-.04-.28-.08-.38l-.17-.42Z"/>
    <path class="cls-2" d="M137.23,63.63v.15s0,.15,0,.15l.1.34c.19.14.24-.5.37-.68-.06-.42-.2-.43-.29-.64l-.18.68Z"/>
    <path class="cls-2" d="M136.19,73.41s-.09.09-.14.22c-.13.34-.21-.17-.35.23l-.24.95.19.05c.16-.17.3-.07.47-.3.05-.06.1-.13.14-.24.08-.32.07-.56.04-.78-.03-.08-.06-.12-.11-.14Z"/>
    <path class="cls-2" d="M137.28,60.2h0s-.04-.28-.04-.28c-.12-.45-.3-.58-.44-.95-.16-.35-.33-.7-.49-.5-.09.3-.2.57-.24.95-.09-.34-.22-.36-.33-.55l-.08.4c-.06-.58-.12-1.16-.2-1.74.04-.06.08-.13.1-.25,0,.04.01.1.02.11.42,1.16.45.17.51-.27,0,.11.05.28.12.49.03.02.06.02.09,0,.2.05.37.61.53.94l.2.23v.05c.08.33.12.8.28.67,0-.65.38-.98-.02-1.97l-.29-.04-.04-.26c-.22.04-.25-.54-.35-.99-.18-.11-.45.4-.45-.97-.15-.25-.2-.61-.25-.98-.05-.31-.13-.57-.24-.81-.13-.33-.26.12-.39-.55-.2-.25-.38-.23-.59-.59-.08-.11-.16-.2-.24-.22,0,0,0,.01,0,.02-.02-.09-.04-.18-.07-.27l.04.07c.04-.11.16-.04.1-.38-.06-.29-.13-.55-.24-.81-.2-.47-.3-.92-.34-1.37-.03-.14-.06-.27-.11-.41-.49-1.16.08-.48.08-.8.13.1.02-.62.32.03.09.4.2.81.36,1.23.01.02.02.05.04.07.03.4.02.76.03,1.14.02.25.03.52.11.83.1.38.24.69.36,1.01.3.84.5.71.68.51.02-.04.05-.07.08-.1-.18-.75.03-1.01-.1-1.67-.29-.51-.37-1.04-.43-1.58.02.02.03.05.05.07.11.09.19.09.26.03.09-.14.16-.31.13-.71l-.26-.55c-.26-.41-.42-.86-.54-1.31.03.03.05.02.08-.03-.08-.47-.18-.93-.3-1.38-.21-.88-.62-1.51-1.05-2.14-.11-.14-.16-.16-.19-.11-.14-.22-.27-.37-.38-.4-.03,0-.07,0-.1-.01-.12-.26-.26-.51-.41-.59-.07-.04-.12-.02-.12.07v.06c-.09,0-.14.13-.36-.18-.2-.22-.29-.2-.35-.1-.02.09-.02.19-.03.3l-.06-.18c-.03-.09-.07-.16-.1-.24-.06-.43-.08-.8.06-.95.02-.29-.3-.75-.43-1.11l-.3-.57c-.28-.41-.49-.79-.63-1.17h0c.08,0-.2-.52.11-.19l-.06-.3-.36-.56c-.26-.29-.54-.57-.8-.85-.1-.15-.2-.3-.28-.45-.1-.16-.2-.32-.31-.48l-.18-.23-.1-.22-.55-.84c-.46-.52-.98-1.13-1.49-1.54l-.12-.14c.09-.03.16-.07.23-.1.04-.04.05-.12-.05-.29-.07-.09-.14-.17-.2-.25-.44-.53-.77-.66-1.12-.84-.66-.19-.47-.51-.71-.76-.05-.02-.09-.02-.12-.02,0-.08-.04-.19-.11-.32-.55-.31-.38.09-.55.16l.12.11.12.1c.1.04.17.06.24.07,0,.05.02.11.06.19l.16.16c-.22-.07-.29,0-.23.19-.19-.16-.37-.32-.51-.33-.31-.24-.44-.47-.63-.7l.3-.06.17.08c.02-.38-.92-.95-1.19-1.36-.4-.27-.47-.41-.39-.5-.02-.1-.13-.24-.32-.39-.43-.28-.75-.37-1.11-.53-.19-.08-.36-.13-.5-.15-.13-.01-.17.03-.13.12h0c-.18-.13-.37-.23-.55-.34l-.16.13.1.05.17.33-.08-.05c-.14-.03-.21,0-.22.04-.17-.13-.35-.27-.54-.4,0-.02-.02-.05-.04-.09.25.09.42.11.46.01-.2-.31-.47-.62-1.03-.99.05.01.1.02.14.02.15,0,.28-.03.35-.09.03-.09-.04-.23-.35-.43l-.97-.44c-.71-.46-1.44-.79-2.03-.79-.07.02-.09.06-.05.13-.43-.13-.87-.18-1.24-.52l-1.06-.22-.24-.09-.4-.33c-1.21-.4-2.09-1.05-3.46-1.23l-.34.07c-.07-.06-.16-.13-.28-.19-.79-.4-1.84-.54-2.81-.72-.4-.07-.79-.17-1.2-.2-.4.18-.76-.12-1.14-.13-.66-.07-1.3-.06-1.95-.11-.14,0-.28,0-.41.02-.27.04-.54.04-.81,0,.14-.04.21-.09.19-.16-.21-.17-.63-.23-1.17-.24-.47-.09-.91-.01-1.36,0-.15.11-.66.16-.7.29-.24.02-.49.04-.74.05.07-.11-.2-.19-.63-.25-.32.07-.65.15-.97.23l-.19.09h-.02c-.74.02-1.6.29-2.14-.02-.1-.06-.22-.11-.43-.13-.69,0-.85.36-1.62.31-.54.04-.99.02-1.43-.03-.7.11-1.42.33-1.95.1-.5.07-.91.23-1.44.26-.69.12-.97.36-1.48.52-.07.09-.17.18-.09.23l-.18.02c-.06,0-.13.01-.19.02l-.19.03c-.28.04-.57.08-.85.14-.04,0-.09,0-.13,0-.06-.11-.15-.22-.71-.15-.71.23-1.5.42-2.31.55v.03s-.05,0-.05,0c-.52.11-1.04.23-1.57.35-.21,0-.45.02-.7.07-.26.05-.54.13-.68.06h-.36c-.6.21-1.14.53-1.92.49l-.32.09c-.99.23-1.99.4-2.98.72-.09.02-.18.04-.28.07l-.28.47c-.08.03-.16.05-.25.07l-.1.03c.09-.45-.13-.47-1.31-.09-.5.26-.92.58-1.67.63-.39-.02-.74.19-1.09.35-.29.15-.53.3-.68.45-.09.11-.09.17,0,.19h-.03c-.32.04-.61.15-.87.33.03-.05-.03-.08-.15-.08-.12.01-.25.03-.39.06-.47.11-.82.1-1.3.23-.22.07-.41.16-.54.27l-.29.22c-.27.24-.66.36-1.07.5-.92.37-1.7.83-2.56,1.26l-.61.28c-.55.22-1.03.44-.8.56h0c-.49.24-.98.43-1.47.64-.54.22-1.07.45-1.6.72-1.34.68-2.79,1.31-3.78,2.32-.1.1-.37.21-.56.31-2.26,1.34-4.41,2.84-6.28,4.58-.06.07-.14.14-.23.2-.89.84-1.98,1.6-2.79,2.5-.53.58-1.22,1.15-1.63,1.74h0s0,0,0,0c-.19.19-.44.4-.43.55l-.49.33c-.9.54-1.5,1.23-1.86,2-.79,1.16-2.17,2.28-2.76,3.51h0c0,.18-.8,1.06-.07.57.29-.02.79-.5,1.09-.87.91-1.07,1.87-1.85,2.83-2.67-2.25,2.31-4.34,4.75-6.21,7.37.38-.25.76-.48,1.14-.73-.08.15-.15.3-.21.45h0c0,.18-.72,1.08-.03.57.29-.03.75-.54,1.02-.91.35-.47.71-.88,1.07-1.26,5.94-3.65,12.24-6.78,18.81-9.29,4.48-1.72,9.06-3.24,13.89-4.3,1.06-.24,2.14-.45,3.22-.63,0,0-.01,0-.01.02.15.14.32.03.48.01,0-.03,0-.06-.01-.09-.01-.01-.03-.02-.04-.02.18-.03.36-.05.54-.08-.13.06-.28.09-.28.25-.02,0-.03.01-.05.02l.03.19c.07.16.15.32.34.39.04.02.09.04.13.05.13.04.26.1.35.19.1.11.1.28.26.36-.06.16.02.27.18.35h.07c-.01-.15,0-.29.09-.42h0s.06-.02.09-.03c.14-.11.17-.27.29-.4.1-.14.22-.28.13-.46-.11-.11-.22-.23-.36-.29.11-.07.11-.2.17-.3l-.15-.09c.21-.03.41-.05.62-.08.02.04.05.08.09.11-.01,0-.03,0-.04,0-.39.32-.03.43.13.53-.04,0-.1.02-.16.08,0,.03,0,.06,0,.08,0,.2-.19.31-.29.46l-.06.19h-.02c-.11.06-.27.07-.2.24.23.04.37.41.68.11v-.28s.08-.02.08-.02c-.03-.22.17-.21.32-.25.03-.17-.17-.49.32-.33.08-.11.21-.11.34-.1.11,0,.2-.04.28-.1.12-.07-.05-.27.19-.28.09-.15.08-.33.2-.47.04-.06.07-.12.08-.18.03,0,.05,0,.08,0h-.01c.04.08.02.18.14.19.1,0,.2-.02.3-.05.17-.07.34-.04.5.03.05.01.1.01.15,0,.44-.11.17.23.28.33-.04.09.21.21-.03.29-.14-.04-.29-.06-.44,0l-.02.02c-.14-.08-.27-.18-.4-.27-.09-.05-.19-.09-.3-.09-.14.02-.25.07-.36.14-.3.14-.25.35-.17.57.01.03.03.06.04.09.26-.04.35.22.58.24.18-.18.36-.11.55-.03,0,0-.02.02-.03.03-.03.08-.04.16-.01.24.05.12.1.24.23.31l.19-.11c.15-.12.3-.13.46-.11,0,.02,0,.05,0,.08l.47.19c.3.11.53-.03.77-.15.05-.04.07-.08.05-.13.08-.04.14-.09.17-.18l.02-.09c.09-.01.19-.01.23-.11.02-.05.02-.1,0-.14,0,0-.01,0-.02-.02.01-.09-.02-.2.11-.25.09-.07.1-.17.08-.27-.03-.06-.06-.11-.09-.16l.07.03s.06.01.09.02c.14.14.26.29.28.49.08.14.27.11.4.18l.21.02c.17-.04.31,0,.44.09-.01.07.18.11.03.2l.09.11h.22s.38-.14.38-.14c.06,0,.12.02.17.04.06.02.12.03.19.03h.09s.07.07.07.07l.32.11c.23-.04.49.03.7-.07h.06s-.04.25-.04.25c0,.06.01.12.07.16.04,0,.07.02.1.03.21.08.32-.06.45-.17.22-.32.22.05.32.09.02-.02.03-.04.04-.06.01.06.04.11.08.17.21-.12.1-.31.14-.48h-.05s-.05,0-.05,0c-.03.03-.06.06-.08.1,0-.04-.02-.07-.05-.11h-.07c.07-.1.08-.2.03-.31.08,0,.16,0,.21-.08.13-.02.21.07.3.13h0s0,0,0,0l-.08.24-.06.04c.05.28.41.16.54.34.16-.02.2.05.18.17.02.07.07.11.14.13.16,0,.27-.1.4-.17.07-.04.13-.09.18-.15.04-.06.05-.12.03-.17h0s.21.01.21.01l.05-.19h-.04s-.08-.2-.08-.2h.03s.07-.09.07-.14c.07.03.14.06.21.08,0,.02,0,.04.02.05-.09.04-.15.11-.16.21.09.17.2.31.41.36-.02.01-.04.03-.05.05-.05.08-.09.16-.12.25,0,.1.03.17.13.21l.34-.02c.25.1.5.14.7-.07.03-.04.03-.09.02-.14.15-.04.31-.14.43.07l.37-.12s.06,0,.08.01l.12.22c.41.06.65.49,1.11.44l.13-.12s.04.1.07.14c.22.26.56.28.86.39.12.04.24.11.37.11.17-.19.23.09.36.09.21.05.42.05.63.1.05,0,.09,0,.14-.01.1-.04.19-.02.27.03-.06.03-.09.08-.11.15.02.17.14.25.31.28.13.11.28.08.43.1.08-.09.25-.09.31-.21.08,0,.16.02.24.04-.06.1,0,.2.11.31l.37-.09.09-.06h0c.23.08.58-.02.62.35,0,.07.02.14.07.19.19.12.37-.17.57.02.17.06.27.19.37.32.23.04.51.02.54.35.15.05.33,0,.47.12.22.07.39-.06.59-.08.06-.06.12-.11.13-.17l.05.03s.04.02.06.03l.06.03c.08.05.17.09.26.12,0,.01.02.03.03.04-.04.12-.07.23.08.33.27,0,.52.1.76.24l.02-.02h.01s.48.23.48.23c.03.08.1.13.17.17.08.04.17.07.16.18l.05.14c.22.03.5-.04.59.28l.1.05c.27.19.51.43.81.59.02.02.05.04.08.05l.31-.24s.05.03.07.05l.03.02c-.28.3-.26.4.07.61.2.03.45-.05.53.25.02.18.17.19.3.23.11.02.23.02.33-.02.07-.03.11-.08.12-.13h0c.04.13.12.19.25.19-.04.02-.05.07-.05.13.01.05.03.09.05.14.09.14.09.31.19.45.05.06.11.09.19.08h.15c.16-.04.25.07.34.19.23.22.54.3.79.5l.16.15c.13.15.25.27.35.08h0c.13.13.22.28.33.42.11.16.21.33.35.47.34.35.56.84,1.12.93.06,0,.09.11.13.17.54.67,1.09,1.31,1.78,1.84.03.01.06.04.07.07.33.25.51.67.85.9.21.16.35.43.61.55h0s0,0,0,0c.06.07.1.18.21.14l.03.22c-.02.42.19.64.57.74.45.29.51.94,1,1.18h0c.12,0,.27.37.36,0,.16-.16.1-.41.01-.55-.24-.4-.31-.82-.42-1.24,1.18,1.98,2.18,4.07,2.87,6.23,0,0,0,.01,0,.02-.01,0-.01-.01-.03-.02-.12.18.02.34.06.52.03,0,.06,0,.09-.02,0-.01,0-.02,0-.03.05.17.1.34.15.51-.07-.12-.13-.25-.28-.24,0-.02-.02-.03-.03-.05l-.18.06c-.15.1-.29.2-.33.41-.01.05-.02.1-.03.15-.02.15-.06.28-.13.4-.09.12-.26.14-.32.32-.17-.04-.26.06-.32.23l.02.07c.14-.03.28-.03.42.04h0s.03.06.05.09c.13.14.3.15.43.26.16.09.31.2.48.08.09-.13.19-.26.23-.42.09.11.21.09.32.15l.07-.16c.06.22.1.44.16.65-.03.03-.06.06-.09.11,0-.02-.01-.04-.01-.04-.37-.38-.43.02-.51.2,0-.04-.03-.1-.1-.17-.03,0-.06,0-.08.01-.2.02-.33-.16-.5-.25l-.2-.04v-.02c-.07-.11-.11-.27-.27-.19,0,.24-.35.44-.01.73l.28-.04.03.09c.22-.06.23.16.29.31.17.01.47-.23.37.3.12.08.13.21.14.35.02.11.06.21.13.29.08.12.27-.08.3.18.16.08.34.05.49.18.06.04.12.06.18.07,0,.03,0,.05.01.08h0c-.06.05-.16.03-.16.16,0,.11.03.21.08.31.09.18.08.36.02.54,0,.05,0,.11.01.16.15.46-.21.2-.3.32-.1-.04-.19.24-.29,0,.03-.16.04-.31-.03-.47l-.02-.03c.07-.16.15-.3.23-.45.04-.1.07-.21.06-.33-.03-.14-.1-.26-.18-.37-.17-.3-.38-.23-.59-.13-.03.02-.06.03-.09.05.07.27-.19.39-.18.64.2.17.14.38.08.58-.01,0-.02-.02-.03-.03-.08-.03-.16-.03-.24,0-.12.06-.23.13-.29.27l.12.19c.13.15.15.31.14.47-.02,0-.05,0-.08.01l-.15.5c-.09.31.07.54.2.79.04.06.09.07.13.05.04.09.1.15.19.17h.09c.01.11.03.22.12.26.05.02.1.02.14-.01,0,0,0-.01.01-.02.09,0,.19-.03.26.1.08.1.17.1.27.07.05-.03.1-.07.15-.11l-.02.07s0,.07-.01.1c-.13.16-.28.29-.47.33-.14.1-.1.29-.16.43v.23c.04.18,0,.33-.08.48-.07-.01-.1.2-.2.04l-.11.11v.24s.17.4.17.4c0,.06-.01.13-.03.19-.01.07-.02.13-.02.2v.1s-.06.08-.06.08l-.1.35c.05.24-.01.52.1.75v.06s-.25-.03-.25-.03c-.06,0-.12.02-.16.08,0,.04-.01.07-.03.11-.07.23.07.35.18.48.33.22-.04.24-.08.35.02.02.04.03.06.04-.06.02-.11.05-.17.09.12.22.32.09.48.13v-.06s0-.06,0-.06c-.03-.04-.07-.06-.1-.08.03-.01.07-.03.11-.05v-.08c.1.08.2.08.31.03,0,.09,0,.17.09.22.02.14-.07.22-.12.33h0s0,0,0,0l-.24-.08-.05-.06c-.28.07-.15.45-.33.59.03.17-.05.21-.17.2-.07.02-.11.07-.13.16,0,.17.11.29.17.42.04.07.09.14.15.19.06.05.12.06.17.03h0s0,.23,0,.23l.19.05v-.04s.2-.09.2-.09v.03c.04.05.09.07.14.07-.03.07-.06.15-.08.24-.02,0-.04.01-.05.02-.04-.1-.11-.16-.21-.17-.17.1-.31.23-.36.46-.01-.02-.03-.04-.05-.05-.08-.06-.16-.1-.25-.12-.1,0-.17.04-.21.16l.03.37c-.09.28-.11.56.09.76.04.03.09.03.14.02.04.16.14.32-.07.45l.12.39s0,.06-.02.09l-.21.13c-.06.44-.49.72-.42,1.21l.13.14s-.09.04-.14.08c-.13.13-.19.28-.25.43l-.14.53c-.04.14-.11.27-.12.42.19.18-.09.26-.09.4-.04.23-.04.46-.09.69,0,.05,0,.1.02.15.04.11.02.2-.02.28-.03-.06-.08-.09-.15-.1-.17.03-.25.16-.28.34-.11.13-.07.29-.1.44.09.08.1.25.22.31-.01.1-.03.2-.05.29-.1-.06-.21.01-.32.14l.08.39.06.09h0c-.08.26.02.63-.37.7-.07.01-.14.03-.2.09-.12.22.18.39-.01.62-.06.19-.19.31-.32.43-.04.26,0,.56-.33.63-.05.17.01.36-.1.53-.06.24.06.41.08.62.06.06.11.12.18.12l-.03.06s-.02.04-.03.06l-.03.06c-.05.09-.09.19-.13.29l-.04.03c-.12-.03-.24-.06-.34.12,0,.29-.08.57-.22.83l.02.02h0s-.2.55-.2.55c-.08.04-.12.12-.17.2-.04.08-.07.19-.19.18l-.14.07c-.03.24.05.52-.27.66l-.05.11c-.19.32-.42.6-.57.94-.02.03-.04.06-.05.09l.26.31s-.03.06-.04.08l-.02.03c-.32-.26-.42-.23-.62.15-.02.22.07.47-.24.6-.19.04-.18.21-.22.35-.01.12-.01.24.03.35.04.07.08.11.14.11h0c-.13.06-.18.16-.17.3-.03-.04-.07-.04-.13-.03-.05.02-.09.05-.14.08-.14.12-.32.14-.46.26-.05.06-.09.13-.07.21l.02.16c.04.17-.06.28-.18.39-.22.28-.29.63-.47.93l-.14.2c-.14.16-.26.31-.06.38h0c-.12.16-.27.29-.41.43-.15.15-.32.28-.45.45-.33.42-.82.75-.86,1.35,0,.06-.11.11-.16.17-.64.7-1.25,1.41-1.71,2.24-.01.04-.03.07-.06.09-.22.4-.63.68-.83,1.09-.14.26-.39.47-.47.76h0s0,0,0,0c-.07.08-.17.14-.11.25l-.22.08c-.44.08-.63.35-.67.75-.22.52-.89.74-1.06,1.3h0c.03.12-.34.37.06.36.19.12.44,0,.58-.12.37-.34.81-.51,1.22-.73-2.23,1.99-4.73,3.79-7.53,5.29-.69.38-1.42.7-2.13,1.05-.74.32-1.46.64-2.24.91-.79.27-1.57.55-2.38.77-.15.04-.3.08-.45.12.04-.02.08-.03.12-.06-.52-.04-1.24.21-1.89.35-.03.04-.02.07,0,.09.12,0,.27-.02.44-.08.14-.04.29-.06.45-.08-.37.08-.73.16-1.1.23-.59.12-1.19.22-1.79.31.53-.12,1.14-.23,1.23-.41l.22-.05-.03-.19c-.22-.13-.44-.25-1.17-.24-.16,0-.32,0-.49,0-.5,0-.96-.01-1.3-.09-.36-.09-.27-.26-.84-.32.3-.18.05-.27-.54-.33l-.28.02c-.03.14-.15.28-.55.42h0c-.13,0-.25.02-.37.03-.61.09-.81.25-1.34.34-.49.11-1.01.21-.77.41.39.14.75.28,1.28.37-.5.05-.54.17-.84.25l.54.12c-.84-.02-1.68-.06-2.52-.14-.07-.05-.16-.1-.32-.15.06,0,.14.01.16.01,1.74-.12.35-.38-.22-.57.15.02.4.03.7,0,.04-.02.05-.05.03-.08.12-.18.91-.21,1.39-.33l.34-.17h.06c.45-.02,1.09-.02.93-.19-.87-.08-1.22-.47-2.58-.31l-.12.27-.35-.02c0,.23-.79.11-1.4.04-.2.13.36.59-1.43.06-.39.03-.87-.09-1.36-.23-.41-.11-.78-.18-1.13-.22-.48-.09,0,.3-.9,0-.43.01-.51.18-1.08.11-.19-.01-.35-.01-.43.03,0,0,0,0,0,0-.11-.04-.23-.08-.34-.12l.09.02c-.11-.11.05-.15-.39-.35-.38-.17-.75-.31-1.12-.45-.68-.25-1.27-.57-1.78-.93-.17-.1-.34-.2-.52-.3-1.58-.83-.4-.52-.72-.82.21.02-.55-.6.31-.15.45.33.94.65,1.5.89.04.01.06.02.1.03.44.32.83.63,1.26.93.29.2.61.38,1.03.56.51.2.98.32,1.44.42,1.22.28,1.16.02,1.02-.25-.04-.04-.06-.09-.08-.12-1-.31-1.16-.65-1.97-1.01-.77-.13-1.38-.5-1.99-.9.04,0,.08.02.11.03.18,0,.24-.06.22-.16-.07-.18-.21-.37-.6-.66l-.71-.27c-.57-.2-1.1-.51-1.59-.87.05,0,.06-.01.04-.07-.46-.39-.92-.79-1.35-1.2-.77-.74-1.58-1.28-2.34-1.85-.18-.12-.25-.13-.25-.07-.26-.21-.47-.34-.61-.36-.04,0-.07,0-.12,0-.27-.26-.53-.54-.72-.61-.1-.04-.13,0-.1.1l.04.07c-.1.02-.1.18-.49-.16-.31-.23-.4-.21-.42-.07.02.11.06.24.11.37l-.15-.22c-.08-.1-.14-.19-.21-.28-.25-.52-.41-.97-.31-1.16-.09-.35-.55-.91-.78-1.36l-.46-.72c-.4-.53-.66-1.04-.84-1.54h0c.08.01-.26-.67.11-.21l-.08-.38-.41-.77c-.28-.42-.55-.85-.8-1.28-.09-.22-.18-.44-.25-.65-.09-.23-.17-.46-.26-.69l-.14-.35-.06-.31c-.12-.42-.24-.84-.35-1.26-.35-.85-.58-1.85-.91-2.64l-.05-.24c.09.03.17.03.26.04.06-.02.1-.1.07-.35-.03-.14-.06-.28-.08-.41-.14-.87-.37-1.25-.58-1.71-.48-.72-.14-.9-.19-1.34-.03-.06-.06-.09-.09-.13.04-.08.08-.22.1-.41-.25-.77-.36-.24-.54-.32l.03.21.04.21c.06.12.11.21.15.27-.03.05-.05.13-.06.24l.05.3c-.14-.25-.24-.25-.3,0-.07-.32-.12-.64-.23-.78-.11-.52-.08-.86-.08-1.26l.28.21.08.23c.22-.35-.11-1.74-.02-2.38-.1-.62-.05-.82.07-.81.06-.11.07-.33.05-.65-.08-.66-.22-1.06-.33-1.56-.06-.26-.13-.49-.21-.65-.08-.15-.13-.16-.17-.05v-.02s-.06-.86-.06-.86l-.2-.09.02.15-.17.44v-.12c-.07-.18-.12-.23-.17-.21,0-.3,0-.61.01-.92.02-.02.03-.06.05-.11.07.35.15.56.25.52.14-.45.25-.99.24-1.88.02.07.04.13.06.18.09.17.18.29.27.34.1-.02.16-.21.17-.68l-.09-1.4c.04-1.12.06-2.17-.18-2.89-.05-.08-.09-.08-.14,0-.03-.3-.08-.58-.09-.86-.02-.29,0-.57.12-.85l-.05-.65c0-.21,0-.41,0-.62.01-.1.03-.2.05-.3.08-.18.2-.34.31-.5.36-1.44,1.19-2.32,1.97-3.62l.1-.38c.09-.05.2-.11.33-.19.77-.6,1.63-1.38,2.59-1.91.38-.25.81-.36,1.21-.6.31-.34.81-.29,1.21-.41.36-.09.7-.22,1.06-.26.36-.07.71-.15,1.09-.15.16-.02.31-.04.46-.08.31-.08.62-.04.92-.01-.16.03-.24.09-.22.16.12.09.29.14.51.19.21.07.47.11.77.15.25.07.49.16.73.2.25.04.48.1.72.18.19-.05.75.09.84.02.26.11.52.21.78.34-.12.05.1.29.47.6.35.13.67.33,1.01.49.08.02.15.06.22.08l.02.02c.65.55,1.49,1.21,1.56,1.91.01.13.06.26.14.49.37.68.76.72,1.02,1.58.1.3.19.57.25.83.03.27.05.52.07.77.13.38.19.79.27,1.18.02.39,0,.75-.14,1.03-.03.57.09.98-.07,1.81-.08,1,.06,1.46.09,2.22.06.13.13.29.19.2l-.03.26c-.01.09-.02.18-.03.28l-.03.28c-.04.41-.08.83-.1,1.24-.01.06-.03.12-.04.19-.13.05-.25.14-.33.96.06,1.08.04,2.26.02,3.48l.03.02v.06c.01.79.04,1.59.1,2.39-.03.31-.02.67.01,1.06.04.4.11.84.04,1.04l-.02.54c.25.97.62,1.85.81,3.08l.2.53c.22.56.46,1.11.78,1.65.37.6.67.98,1.1,1.56l.35.34.31.29c.21.19.54.44.77.59.1.08.24.18.4.27.28.03.54.03.81.03l.39.2.17.08c-.25.11-.31.21-.05.41.26.18.85.46,1.88.72.9.12,1.74.08,2.93.34.6.17,1.3.07,1.91-.04.5-.12.95-.22,1.22-.37.17-.1.19-.17.06-.19h.05c.49,0,.96-.12,1.4-.32-.06.06.02.08.2.08l.14-.02c.1-.02.17-.03.25-.05.04,0,.26-.08.27-.08l.15-.03c.7-.18,1.15-.2,1.91-.5.34-.15.63-.3.82-.47l.43-.35c.4-.36.95-.67,1.52-1,1.28-.83,2.26-1.81,3.31-2.81.25-.23.49-.47.73-.71.65-.61,1.18-1.21.87-1.17h0c.55-.6,1.08-1.17,1.6-1.78.56-.66,1.12-1.34,1.62-2.09.08-.13.17-.26.25-.37l.3-.43.77-1.28.37-.62.3-.64c.38-.86.77-1.71.94-2.56.04-.2.24-.57.37-.87,1.41-3.65,2.1-7.61,1.72-11.44-.03-.14-.04-.3-.04-.46-.21-1.82-.47-3.85-1.2-5.54-.21-.56-.47-1.14-.73-1.71-.28-.55-.58-1.08-.9-1.51h0s0,0,0,0c-.19-.36-.44-.79-.61-.85-.14-.26-.27-.54-.42-.79-.7-1.42-1.71-2.4-2.78-3.03-.84-.62-1.74-1.36-2.68-2.02-.94-.66-1.95-1.23-2.88-1.53h0c-.23-.01-1.78-.79-.78-.04.17.31,1.03.83,1.63,1.18,1.68.98,2.95,2.14,4.12,3.42-1.14-1.09-2.42-2.09-3.84-2.96-3.21-1.93-6.95-3.27-10.92-3.86-.39-.06-.79-.11-1.18-.16,0,0,.02,0,.03-.02-.13-.18-.37-.13-.57-.16-.01.03-.02.06-.01.09.03.04.08.05.13.04,0,0,.01,0,.02,0-.26-.03-.53-.05-.79-.07.17-.02.38,0,.43-.17.02,0,.04,0,.07,0l.02-.19c-.04-.17-.09-.34-.31-.47-.05-.03-.1-.06-.15-.09-.15-.08-.29-.16-.39-.28-.1-.13-.06-.3-.23-.41.11-.14.04-.27-.15-.38h-.1c-.02.14-.07.27-.21.38h0s-.08,0-.12.01c-.21.07-.28.23-.46.33-.16.12-.33.24-.26.43.12.13.23.26.39.35-.16.05-.18.17-.27.26l.16.12c-.26-.01-.51-.03-.77-.04-.02-.05-.05-.09-.1-.12.02,0,.04,0,.05,0,.54-.25.11-.42-.07-.54.05,0,.12,0,.22-.06.01-.03.02-.06.01-.08.04-.19.3-.27.45-.4l.12-.17h.02c.15-.03.36-.01.32-.19-.28-.08-.39-.48-.86-.24l-.04.28h-.11c0,.23-.26.19-.46.2-.06.16.13.51-.46.29-.12.1-.28.08-.44.06-.14-.01-.26.02-.37.08-.15.06.03.28-.27.26-.13.14-.13.32-.3.45-.06.05-.1.11-.12.18,0,0,0,0,0,0-.04,0-.07,0-.11,0l.03-.02c-.04-.07,0-.16-.15-.19-.13-.02-.25,0-.37.03-.22.06-.42.04-.62-.04-.06-.01-.12-.01-.19,0-.55.11-.2-.23-.34-.33.06-.09-.26-.21.04-.29.18.04.37.06.56.01l.03-.02c.18.08.33.18.49.27.11.06.23.1.37.1.17,0,.32-.06.47-.11.39-.12.35-.34.28-.56-.02-.03-.03-.06-.04-.1-.34.02-.43-.25-.73-.28-.25.17-.48.09-.72,0,.01,0,.03-.02.04-.03.05-.08.06-.16.03-.24-.05-.12-.12-.24-.29-.31l-.26.11c-.2.12-.41.13-.61.11.01-.02.01-.05,0-.08l-.62-.17c-.4-.09-.7.07-1.02.2-.07.04-.09.09-.07.13-.11.04-.19.1-.21.19l-.02.09c-.12.02-.25.04-.3.14-.03.05-.02.1.02.14.01,0,.02,0,.03.01,0,.09.04.19-.12.26-.12.08-.12.18-.08.28.04.05.08.1.13.15l-.09-.02s-.08,0-.11,0c-.19-.12-.35-.26-.4-.45-.12-.13-.36-.08-.53-.13h-.28c-.21.08-.4.06-.58,0h0c0-.07-.25-.08-.07-.19l-.14-.1-.29.03-.47.22c-.08,0-.16,0-.23,0-.08,0-.16,0-.25,0l-.12.02-.11-.04-.44-.03c-.29.09-.64.09-.89.25h-.08c0-.08,0-.16,0-.24-.01-.06-.04-.11-.13-.14-.05,0-.09,0-.14,0-.3-.01-.41.15-.55.29-.2.37-.3.02-.45.01-.02.02-.02.05-.03.07-.03-.05-.09-.1-.16-.14-.23.18-.03.33-.04.5h.07s.07-.03.07-.03c.04-.04.06-.08.07-.12.02.03.05.06.09.09h.1c-.07.1-.05.2.04.29-.1.02-.2.05-.24.14-.16.06-.28,0-.41-.02l.03-.26.07-.06c-.15-.25-.57-.02-.8-.13-.19.08-.27.02-.28-.1-.05-.06-.12-.08-.23-.07-.21.06-.31.2-.46.31-.07.06-.13.13-.17.21-.03.08-.03.13.02.17h0s-.27.07-.27.07v.2s.06-.02.06-.02l.17.16h-.04c-.04.07-.05.13-.04.17-.1,0-.19,0-.29,0,0-.02-.02-.03-.05-.04.1-.08.15-.16.12-.26-.17-.12-.36-.21-.64-.17.02-.02.03-.04.04-.06.04-.09.06-.18.05-.28-.03-.09-.1-.15-.25-.14l-.42.17c-.36.03-.68.1-.85.38-.01.05,0,.1.03.14-.17.11-.31.27-.55.14l-.39.29s-.07.02-.11.03l-.25-.13c-.52.15-1.03-.11-1.55.2l-.09.18s-.1-.06-.16-.08c-.41-.11-.82.07-1.23.16-.17.04-.34.04-.5.12-.09.26-.32.07-.47.14-.27.09-.52.22-.79.31-.06.03-.11.06-.15.1-.09.1-.2.13-.32.15.04-.06.05-.12.02-.19-.14-.13-.32-.11-.54-.02-.22,0-.37.13-.55.2-.03.13-.22.25-.2.37-.09.05-.19.09-.29.14,0-.11-.14-.15-.34-.16l-.34.33-.05.11h0c-.31.11-.6.43-.92.19-.06-.04-.13-.08-.22-.09-.3.06-.26.4-.62.42-.22.08-.43.08-.64.06-.27.15-.54.39-.84.19-.2.08-.34.26-.58.3-.28.13-.34.36-.52.53,0,.08-.03.17.02.22l-.08.03s-.05.01-.08.03l-.08.03c-.12.04-.24.08-.35.13h-.06c-.06-.11-.13-.21-.37-.14-.26.24-.58.38-.92.51v.03s-.01,0-.01,0l-.64.3c-.1-.01-.21.01-.31.05-.11.04-.22.11-.31.04l-.18-.03s-.16.12-.26.19c-.1.07-.2.14-.31.2-.21.13-.45.22-.79.24l-.24.11c-.2.34-.41.69-.61,1.03l-.28.48c-.06.1-.11.2-.16.31-.03.03-.05.07-.06.11l.25.33s-.03.07-.05.1l-.02.04c-.32-.27-.42-.22-.66.28-.03.27.05.55-.27.76-.19.09-.19.29-.23.46-.01.15,0,.29.04.41.04.08.09.11.15.1h0c-.13.11-.18.23-.17.39-.03-.03-.08-.03-.14,0-.05.04-.09.08-.14.13-.14.17-.32.26-.45.44-.05.09-.08.18-.05.27l.03.18c.06.19-.04.35-.15.51-.19.4-.2.83-.34,1.24l-.1.28c-.11.24-.2.46.02.46h0c-.09.23-.21.44-.32.65-.12.23-.24.46-.34.71-.22.63-.59,1.25-.42,1.93.02.07-.06.18-.1.27-.35,1.11-.61,2.25-.61,3.4,0,.04,0,.09-.01.14.01.55-.21,1.11-.13,1.66.02.36-.07.74.04,1.07h0s0,0,0,0c0,.12-.05.26.06.32l-.13.24c-.29.42-.29.82-.05,1.21.17.63-.17,1.38.12,1.99h0c.1.07.03.59.3.24.22-.07.31-.37.32-.58.02-.58.23-1.06.4-1.56-.5,4.55-.36,9.17.43,13.67-.02-.03-.03-.06-.05-.09-.1.38.08.91.16,1.37.03.02.06.01.09-.01,0-.04,0-.09,0-.14.11.56.24,1.12.37,1.68-.14-.38-.25-.92-.44-.98l-.04-.15-.19.04c-.14.17-.27.35-.25.9,0,.12,0,.24.01.37.03.38.04.73,0,1-.05.29-.23.26-.21.7-.21-.2-.27.02-.25.49l.06.22c.15,0,.3.05.5.31h0s.1.27.1.27c.23.42.44.52.66.87.24.31.48.64.6.4.02-.32.06-.61,0-1.01.17.33.3.32.45.49l-.02-.41c.19.58.37,1.15.58,1.72-.02.06-.04.14-.03.27-.02-.04-.04-.09-.04-.11-.65-1.09-.49-.07-.43.38-.04-.11-.12-.27-.24-.46-.03-.01-.06-.01-.08.01-.21,0-.48-.54-.73-.84l-.25-.19-.02-.05c-.15-.32-.3-.79-.43-.62.15.66-.12,1.07.47,2l.29-.02c.03.08.06.17.1.25.21-.09.4.48.59.92.2.07.35-.5.68.88.2.23.32.58.47.93.13.3.28.54.44.75.21.31.22-.18.51.47.26.21.42.15.71.46.11.09.21.16.29.17,0,0,0,0,0,0,.04.08.08.15.12.23l-.04-.05c-.01.12-.14.08,0,.4.13.27.28.52.44.76.3.43.49.88.66,1.3.06.13.14.25.22.38.75,1.06.03.51.11.83-.15-.08.12.62-.32.03-.18-.39-.38-.77-.66-1.15-.02-.02-.04-.04-.05-.06-.13-.39-.2-.76-.3-1.15-.07-.25-.16-.52-.32-.81-.19-.36-.42-.64-.61-.93-.5-.78-.65-.61-.78-.36-.01.05-.03.09-.05.12.35.72.21,1.02.51,1.65.43.44.61.97.8,1.5-.02-.02-.04-.05-.07-.06-.12-.07-.21-.05-.26.03-.05.16-.1.36.05.74l.4.48c.35.36.6.77.83,1.2-.03-.02-.06,0-.07.05.18.45.42.87.63,1.31.43.82.95,1.39,1.53,1.92.14.11.2.13.21.07.19.19.35.31.47.32.03,0,.07,0,.11,0,.19.23.37.46.53.51.08.03.12,0,.11-.09l-.03-.06c.1-.02.12-.16.41.12.24.19.33.15.36.03,0-.09-.02-.2-.04-.31l.1.18c.05.08.1.15.16.22.17.41.27.77.17.95.06.28.45.69.66,1.03.14.17.27.35.42.51.39.34.66.69.89,1.04h0c-.08.02.31.48-.07.21l.12.29.48.5c.31.25.65.47.97.7.13.13.26.26.38.4.13.14.27.28.41.42l.21.2.14.21.72.73c.59.41,1.16,1,1.76,1.3l.15.12c-.08.04-.14.09-.22.14-.04.05-.03.13.11.27.09.07.17.14.25.22.52.47.88.55,1.25.69.69.1.57.43.83.65.05,0,.09,0,.13,0,.01.08.07.18.16.31.6.23.37-.14.53-.23l-.13-.09-.14-.09c-.1-.03-.18-.04-.25-.04-.01-.05-.04-.11-.09-.18l-.19-.14c.23.04.29-.04.2-.23.21.13.43.27.57.26.35.2.51.41.75.61h0s0,0,0,0l-.29.1-.18-.06c.05.37,1.05.85,1.39,1.21.44.21.54.35.46.45.03.1.16.22.38.35.46.24.78.32,1.17.42.2.05.39.08.53.08.13,0,.17-.05.12-.13h.01s.6.29.6.29l.15-.14-.11-.04-.2-.32.08.04c.15.02.21,0,.22-.06.19.12.39.24.59.36,0,.02.02.05.05.08-.26-.07-.44-.08-.46.02.24.28.53.61,1.15.89-.05,0-.1-.01-.15,0-.16.02-.28.06-.35.13-.03.09.07.22.4.38l1.02.37c.38.2.76.38,1.11.51.36.11.7.17,1,.15.07-.02.09-.07.05-.13.45.09.9.12,1.29.46.36.08.73.12,1.09.16.09.02.17.05.25.08l.42.32c1.25.38,2.18.97,3.59,1.15l.35-.07c.07.06.17.12.29.18.82.36,1.9.52,2.91.68.41.06.82.15,1.24.18.41-.18.79.13,1.19.14.68.04,1.35.03,2.03.07.15,0,.29-.01.42-.03.28-.04.56-.05.84-.03-.15.04-.21.1-.19.17.22.16.67.21,1.23.2.5.07.95.02,1.43-.02.15-.12.68-.2.72-.32.25-.03.51-.05.77-.07-.07.11.22.18.67.23.34-.07.67-.18,1.01-.28l.19-.1h.02c.78-.09,1.66-.36,2.25-.11.11.05.24.09.46.09.73-.06.87-.43,1.69-.44.57-.09,1.04-.13,1.5-.13.72-.2,1.48-.46,2.05-.33.51-.14.93-.37,1.49-.47.71-.21.97-.5,1.48-.76.06-.1.15-.21.06-.24l.19-.06c.07-.02.13-.04.2-.06l.2-.06.87-.28s.09-.01.14-.02c.08.1.19.19.76,0,.69-.4,1.48-.71,2.3-1.04v-.03s.04-.02.04-.02l1.54-.73c.22-.04.46-.13.71-.24.25-.13.51-.29.68-.26l.37-.09c.56-.4,1.04-.83,1.82-1.05l.3-.19c.93-.55,1.92-.98,2.79-1.66.09-.05.17-.11.25-.17l.14-.55c.07-.05.15-.1.22-.15l.09-.06c.05.46.27.41,1.33-.36.41-.44.7-.91,1.43-1.23.39-.13.67-.45.96-.74.22-.26.4-.51.49-.71.05-.14.03-.19-.07-.18l.02-.02c.3-.15.54-.37.73-.64,0,.06.06.06.18.02.11-.06.23-.13.36-.21.43-.28.75-.43,1.16-.76.18-.16.33-.32.41-.48l.19-.33c.16-.33.49-.62.84-.91.72-.74,1.25-1.54,1.92-2.3.16-.17.3-.36.45-.54.41-.46.77-.88.51-.89h0c.37-.44.76-.83,1.12-1.25.39-.47.79-.91,1.17-1.41.48-.62.98-1.25,1.41-1.9.43-.65.85-1.3,1.06-2,.04-.14.24-.37.36-.56,1.5-2.28,2.72-4.72,3.66-7.19.03-.1.07-.19.12-.29.39-1.21,1.09-2.41,1.37-3.63.21-.79.59-1.63.68-2.37h0s0,0,0,0c.08-.27.21-.58.14-.71l.29-.54c.58-.92.8-1.84.77-2.72.2-1.44.94-3.12.93-4.53h0c-.07-.17.24-1.36-.19-.56-.25.15-.48.84-.6,1.32-.31,1.34-.8,2.44-1.27,3.59.17-.56.35-1.12.51-1.69,1.53-5.53,2.47-11.27,2.58-17,.01.02.01.05.02.07.17-.34.09-.87.11-1.33-.03-.02-.06-.02-.09,0-.04.08-.05.18-.03.31,0,.01,0,.02,0,.03,0-.6,0-1.2-.02-1.8.05.38.05.85.22.93v.15s.21,0,.21,0c.17-.13.33-.28.43-.8.02-.11.05-.23.07-.35.05-.36.11-.7.2-.94.11-.26.28-.19.36-.62.16.23.27.04.34-.41v-.21c-.16-.02-.3-.11-.44-.4ZM135.37,55.53c0-.08,0-.16,0-.23.04.24.08.49.13.72.07.19.11.34.12.47-.07-.05-.15-.14-.23-.27h0s-.06-.27-.06-.27c-.05-.13-.1-.23-.15-.32-.04-.22-.07-.45-.11-.67.09.31.17.69.3.56ZM132.67,46.23s.02,0,.03.01c-.01.06-.02.13-.02.21l-.06-.29s.04.05.06.07ZM125.05,33.46c.27.22.51.33.8.61.32.34.25.44.29.61l-.02.02-.66-.56c-.02-.06-.06-.15-.16-.28-.08-.08-.16-.14-.24-.22-.09-.12-.18-.24-.29-.35l-.19-.2-.06-.1s.01-.07.01-.12c-.02-.05-.05-.1-.08-.15.2.24.41.47.6.72ZM115.62,24.81c.26.13.5.29.75.43-.28-.11-.53-.28-.8-.43.02,0,.04,0,.05,0ZM108.22,22.14s-.05-.05-.07-.07c.62.12,1.23.27,1.5.58.04.07.13.09.25.09-.18.06-.1.16.18.31-.01,0-.02.01-.02.02-.24-.06-.47-.11-.69-.14-.11,0-.17,0-.21.01-.09-.07-.2-.14-.36-.2l-.18-.06c.02-.11-.12-.22-.59-.35.18-.03.21-.11.19-.2ZM102.21,21.57c.23.11.48.1.72.1-.04.01-.07.03-.09.04-.26-.03-.47-.09-.66-.15h.03ZM38.5,43.72s.04,0,.07,0l-.32.31s-.04-.01-.06-.02l.31-.29ZM68.91,37.78s0,0-.01,0c0,0,.02,0,.03,0,0,0-.01,0-.02,0ZM70.74,37.86c-.08-.03-.17-.04-.28-.02-.1.06-.18.17-.33.15-.08-.03-.15-.09-.25-.11l-.11-.02.26-.06s0-.05-.02-.08c0-.04-.01-.07-.03-.1.17-.03.34-.05.52-.08l-.02.02c-.02.17.17.21.26.31ZM71.97,37.6c-.07.05-.12.06-.17.06.01-.07.04-.13.08-.2h0s.06-.02.09-.03c.04-.03.06-.06.08-.09.09,0,.18-.02.27-.03-.11.04-.24.07-.19.22.03,0,.06.02.09.03-.09,0-.18.02-.26.04ZM75.56,37.18v.03s-.05-.07-.08-.1l.1.04s-.02.02-.03.03ZM80.81,37.59c-.12.05-.21.15-.35.17-.16,0-.17-.12-.22-.2v-.03s.3-.11.3-.11c.02.03.05.05.1.07.04,0,.08-.02.11-.02.05.01.1.03.16.03h.1s.04.04.04.04c0,.03.01.06.02.09.02.02.03.04.05.05l-.32-.1ZM84.91,39.41l-.27-.09c.1-.02.19.02.28.07l-.02.03ZM87.39,39.96s0,.04.01.06c-.2-.03-.4-.06-.46-.3,0-.06-.04-.06-.08-.04.07-.09.06-.18-.03-.26,0,0,0-.02.01-.02.08,0,.16,0,.24-.01.04-.02.06-.03.08-.05.02.05.06.09.11.13l.06.03c-.02.11.01.19.17.24-.07.05-.09.13-.1.23ZM89.23,39.88s.05.03.07.05c-.04,0-.08,0-.12,0,.02-.01.03-.03.04-.05ZM89.42,40.01s-.03-.02-.04-.03c.02.01.04.02.05.04h-.01ZM109.32,52.5l-.08-.13s.02-.03.03-.04l.09.13s-.03.03-.04.04ZM113.64,61.79c-.18,0-.19.21-.28.31.02-.09.01-.19-.02-.31-.08-.1-.2-.17-.19-.33.02-.09.07-.17.07-.28v-.12s.11.27.11.27c.03,0,.05-.01.08-.03.04,0,.07-.02.1-.04.05.18.11.36.16.54l-.02-.02ZM113.89,63.56s0,.06-.02.09c-.02-.09-.04-.19-.07-.27-.06-.06-.08-.12-.08-.17.07,0,.14.03.21.07h0s.03.07.04.1c.03.03.07.05.1.07.02.09.05.19.07.28-.05-.11-.1-.25-.24-.17ZM114.64,67.11l-.04.12s-.02-.02-.03-.03h-.03s.06-.06.09-.09ZM114.43,72.26h.03s.12.32.12.32c-.03.02-.05.06-.07.12,0,.04.02.08.03.12-.01.06-.02.11-.03.17v.1s-.04.04-.04.04c-.03,0-.06.01-.09.03-.02.02-.04.04-.05.06l.09-.35c-.05-.13-.16-.22-.18-.37,0-.17.11-.18.2-.24ZM112.76,77.07c.02.11-.02.21-.06.31,0,0-.02-.01-.03-.02l.08-.3ZM112.38,79.55c.06,0,.06-.04.04-.09.09.07.18.05.26-.04,0,0,.02,0,.02.01,0,.09,0,.17.01.26.02.04.04.07.06.08-.05.03-.09.07-.12.12l-.02.06c-.11-.02-.19.02-.24.19-.06-.07-.14-.09-.23-.1-.02,0-.04.01-.06.02.02-.22.05-.43.28-.51ZM112.25,82.07s-.03.05-.05.08c0-.04,0-.08,0-.13.01.02.03.03.05.04ZM112.12,82.28s.02-.03.03-.05c-.01.02-.02.04-.04.06h0ZM100.53,105.1s.03.02.05.02l-.12.12s-.03-.02-.05-.03l.12-.11ZM76.21,115.18c.31.04.67.06,1.13.05.44-.06.8-.17,1.38-.17.32.02.57.07.92.07.14,0,.29,0,.43,0l-1.06.13s0,.05.03.08c-.02.04,0,.08.08.11-.7.06-1.4.09-2.11.1h.07c.17-.19-.56-.24-.87-.36ZM70.46,114.8c-.11-.03-.22-.06-.31-.1.35.07.7.13,1.03.17.29,0,.51.03.69.06-.1.05-.24.1-.45.12h0c-.13-.01-.26-.03-.39-.04-.18,0-.33,0-.46,0-.32-.06-.64-.12-.96-.19.45.07.97.15.85-.03ZM57.9,109.27s.02,0,.04,0c.04.08.09.16.15.24-.1-.09-.2-.19-.3-.29.04.02.08.04.11.05ZM47.82,92.67c.19.62.09.7.08.93h-.03s-.46-1.11-.46-1.11c0-.08,0-.22-.05-.44-.05-.16-.1-.29-.15-.43-.04-.21-.09-.42-.13-.63l-.09-.38v-.17s.04-.07.06-.13c0-.07,0-.15,0-.23l.23,1.3c.17.46.36.75.54,1.29ZM46.85,75.01c-.03-.4,0-.81.02-1.22,0,.02.02.04.03.05-.02.39-.03.78-.05,1.16ZM48.15,66.28c-.07.03-.12.13-.15.27-.01-.21-.13-.15-.36.17,0-.02,0-.02-.01-.03.13-.26.22-.54.34-.78.05-.12.07-.2.07-.24.1-.08.22-.2.34-.36.04-.06.09-.13.14-.18.1.05.28-.05.64-.51-.07.2-.01.27.09.28.03,0,.07-.03.1-.04-.45.57-.8,1.19-1.19,1.43ZM54.97,60.78c-.31,0-.6.08-.87.21.04-.03.07-.06.09-.09.31-.08.58-.11.82-.13h-.04ZM97.63,58.58c.1.18.2.36.29.55-.01.02-.01.05,0,.1-.09-.19-.2-.38-.31-.57.01-.02.02-.05.03-.07ZM75.66,46.98c.09.04.2.07.35.08.14-.04.26-.13.44-.07.1.05.16.13.27.17l.13.05h-.33s0,.05,0,.07c-.01.04,0,.08.01.12-.21-.02-.43-.03-.65-.04l.03-.02c.07-.17-.16-.24-.25-.36ZM73.87,47.08s-.07-.02-.1-.04c.11,0,.22,0,.32,0,.09-.04.16-.05.21-.04-.03.07-.07.13-.14.18h0s-.08.01-.12.02c-.05.02-.08.06-.12.09-.11,0-.23,0-.34,0,.14-.03.33-.03.28-.2ZM69.62,47.28v-.03s.06.06.1.09l-.13-.04s.02-.02.03-.03ZM63.07,47.69c.14-.08.22-.2.39-.26.2-.04.23.08.31.15v.03s-.34.18-.34.18c-.03-.02-.07-.04-.14-.04-.05.01-.09.04-.13.05-.07,0-.13,0-.2.01l-.12.02-.06-.02s-.03-.06-.05-.09c-.03-.02-.05-.03-.08-.04h.42ZM57.41,47.44l.37-.04c-.12.06-.25.06-.38.07,0-.01,0-.02.01-.03ZM54.81,48.16s.07.04.11,0c-.04.12.02.18.17.21,0,0,0,.02,0,.03-.1.04-.19.08-.27.13-.04.04-.06.07-.06.09-.05-.03-.12-.05-.19-.05h-.08c-.03-.09-.12-.15-.32-.11.05-.08.04-.17,0-.25-.01-.02-.03-.03-.05-.04.25-.09.51-.16.7,0ZM52.09,49.25s-.02.04-.02.06c-.04.01-.07,0-.11,0,.05-.02.09-.04.13-.07ZM51.79,49.32s.05,0,.07,0c-.03,0-.06,0-.08,0h.01ZM34.6,71.49s.04,0,.05-.02l-.02.19s-.04,0-.06,0l.03-.18ZM35.14,87.95s0-.03,0-.05c.01.06.03.12.04.17,0-.04-.02-.08-.03-.12ZM36.24,92.44c-.2-.07-.1.45-.13.7-.03-.23-.1-.48-.2-.8-.13-.3-.31-.52-.37-.95-.02-.24,0-.42-.03-.68l-.04-.31.22.74s.05-.01.07-.04c.05,0,.09-.03.1-.11.13.5.26,1,.41,1.5l-.03-.05ZM37.72,97.03c.02.08.04.16.05.24-.1-.24-.19-.48-.3-.7-.12-.18-.19-.32-.23-.45.09.04.18.11.29.22h0s.12.25.12.25c.07.11.14.2.21.27.09.23.18.46.28.68-.16-.29-.32-.68-.43-.51ZM42.63,105.78s-.02,0-.03,0c0-.07-.01-.14-.03-.21l.13.27s-.05-.04-.07-.06ZM52.99,117.2c-.32-.17-.59-.22-.93-.48-.38-.3-.32-.41-.39-.58v-.03s.77.47.77.47c.03.06.09.14.21.25.1.07.19.11.29.17.12.1.24.2.36.3l.23.17.08.1s0,.07.01.12c.03.05.07.09.1.14l-.73-.64ZM63.67,124.88c-.27-.12-.53-.26-.79-.39.29.09.56.25.84.38-.02,0-.04,0-.05.01ZM71.37,127.3s.05.05.07.07c-.63-.14-1.26-.28-1.55-.57-.04-.06-.13-.09-.26-.08.18-.06.1-.16-.2-.3.01,0,.02-.01.02-.02.24.05.49.09.72.11.11,0,.18,0,.22-.02.09.07.21.13.38.19l.18.06c-.01.11.13.22.61.35-.18.03-.21.1-.19.2ZM77.59,127.78c-.25-.1-.5-.08-.75-.09.04-.01.07-.03.1-.04.26.04.49.07.69.14h-.03ZM131.64,88.38s-.04.01-.07.04l.14-.44s.04,0,.07-.01l-.14.42ZM136.23,61.3c-.04.23-.1.4-.12.65l-.03.3-.05-.74s-.05,0-.08.02c-.05-.02-.09,0-.12.07-.03-.5-.06-1-.1-1.5l.03.08c.18.11.21-.41.3-.63-.01.22-.02.47,0,.79.07.31.18.56.17.97Z"/>
    <path class="cls-2" d="M137.22,65.99l-.02.64c.14.34,0,1.25.23,1.37.03-.45.06-.9.07-1.35v-.99s-.05,0-.08.02c-.09-.04-.15.06-.2.31Z"/>
    <polygon class="cls-2" points="81.71 39.45 81.71 39.44 81.71 39.44 81.71 39.45"/>
    <polygon class="cls-2" points="72.27 38.33 72.27 38.33 72.27 38.34 72.27 38.33"/>
    <polygon class="cls-2" points="71.47 37.53 71.47 37.53 71.48 37.52 71.47 37.53"/>
    <path class="cls-2" d="M67.99,38.06c-.21-.11-.4-.02-.59.08-.1.06-.2.13-.2.25.04.16.17.26.32.33.19.06.38.1.58.02.05-.03.09-.07.11-.11l.11-.21c-.17-.08-.34-.14-.34-.35Z"/>
    <path class="cls-2" d="M68.05,39.58l.45-.07.32-.09s0-.05-.02-.08c0-.09-.05-.15-.14-.18l-.21.04c-.09.16-.41.13-.4.37Z"/>
    <path class="cls-2" d="M69.55,39.5c.13-.07.11-.21.17-.31l-.26-.16h-.05s-.05.02-.05.02l-.1.12c-.02.19.21.21.29.34Z"/>
    <path class="cls-2" d="M65.8,39.54c.12,0,.19-.06.24-.14.02-.04.02-.09.01-.13-.02-.04-.05-.07-.1-.08-.14-.05,0-.24-.16-.28l-.35-.02.04.19c.1.12.1.27.22.38.03.03.07.06.11.08Z"/>
    <polygon class="cls-2" points="113.1 63.79 113.1 63.79 113.09 63.78 113.1 63.79"/>
    <polygon class="cls-2" points="112.59 73.91 112.59 73.91 112.59 73.91 112.59 73.91"/>
    <polygon class="cls-2" points="113.8 62.85 113.8 62.85 113.81 62.86 113.8 62.85"/>
    <path class="cls-2" d="M111.23,59.49l.15.45.14.32s.05-.02.08-.03c.09-.01.14-.07.15-.17l-.08-.22c-.17-.07-.19-.4-.43-.36Z"/>
    <path class="cls-2" d="M112.45,59.6c.05-.19.09-.38.28-.4.07-.24-.05-.43-.19-.61-.08-.1-.17-.19-.29-.18-.15.07-.22.22-.26.39-.03.21-.03.41.09.61.04.05.08.08.13.1l.23.08Z"/>
    <path class="cls-2" d="M111.55,61.04c.09.13.23.09.34.14l.11-.29v-.06s-.03-.05-.03-.05l-.13-.09c-.19,0-.18.24-.29.34Z"/>
    <path class="cls-2" d="M111.19,56.75c-.09.12-.24.16-.32.3-.03.04-.04.08-.05.13.02.12.1.18.19.22.05,0,.09,0,.13-.01.04-.03.06-.07.06-.12.02-.15.23-.05.24-.22l-.07-.37-.18.08Z"/>
    <path class="cls-2" d="M89.39,112.74c.41-.2.76-.44.82-.6-.12-.13-.53-.04-1.09.07-.69.16-1.36.4-2.16.71-.2.08-.36.17-.48.25l-.49.36c.61-.09,1.24-.19,1.16.05.77-.08,1.51-.49,2.25-.84Z"/>
    <path class="cls-2" d="M95.24,109.01c.4-.23.79-.47,1.18-.72l-.09-.17c-.3.06-.3-.13-.66-.03-.09.02-.21.06-.35.12-.39.24-.63.46-.84.67-.06.09-.09.15-.07.2.05.02.17-.01.33-.1.45-.21-.03.3.49.04Z"/>
    <polygon class="cls-2" points="70.45 113.96 70.45 113.96 70.48 113.96 70.45 113.96"/>
    <path class="cls-2" d="M81.85,113.72l.21-.03.2-.05c.14-.06.29-.12.43-.19.15-.22-.7-.1-.96-.19-.53.15-.53.28-.8.42.31.02.62.03.93.04Z"/>
    <polygon class="cls-2" points="73.11 115.25 73.1 115.25 73.07 115.25 73.11 115.25"/>
    <polygon class="cls-2" points="48.18 86.93 48.17 86.94 48.18 86.95 48.18 86.93"/>
    <path class="cls-2" d="M87.44,111.87c-.54.23-1.15.38-1.72.58-.42.13-.84.32-1.26.41,0,.03.01.05.04.07-.02.09.12.14.47.08l.83-.27c.4-.28,1.61-.56,1.64-.87Z"/>
    <path class="cls-2" d="M82.36,47.23s-.05-.08-.09-.12c-.14-.06-.25-.03-.36.01-.04.03-.07.07-.08.11,0,.05.03.09.08.12.14.11-.11.22.05.33l.4.18.06-.19c-.05-.15.02-.29-.06-.44Z"/>
    <path class="cls-2" d="M78.49,45.97s0,.05,0,.08c-.03.08,0,.16.12.21l.28.03c.17-.12.56.02.64-.21l-.6-.09-.44-.03Z"/>
    <path class="cls-2" d="M79.77,47.69c.14-.01.28-.04.34-.14.01-.16-.09-.31-.26-.44-.2-.14-.42-.24-.7-.23-.07,0-.13.03-.18.07l-.2.16c.18.13.35.25.28.44.21.18.47.15.72.15Z"/>
    <path class="cls-2" d="M77.63,46.16h.07s.16-.08.16-.08c.08-.18-.19-.26-.26-.4-.19.04-.21.17-.31.25l.28.22h.07Z"/>
    <polygon class="cls-2" points="61.44 46.16 61.45 46.16 61.45 46.16 61.44 46.16"/>
    <polygon class="cls-2" points="73.83 46.26 73.83 46.26 73.84 46.26 73.83 46.26"/>
    <polygon class="cls-2" points="74.7 47.18 74.69 47.18 74.68 47.18 74.7 47.18"/>
  </g>
</svg>