<svg width="218" height="218" viewBox="0 0 218 218" fill="none" xmlns="http://www.w3.org/2000/svg">
<path d="M188.468 28.5754C182.284 22.8784 152.535 13.6715 108.106 13.5625H107.423C63.1254 13.6715 33.2449 22.8856 27.061 28.5754C20.5282 34.367 11.9463 64.5091 11.9463 108.749C11.9463 152.988 20.5282 183.13 27.061 188.922C33.2449 194.619 63.0092 203.826 107.423 203.935H108.106C152.513 203.935 182.284 194.728 188.468 188.922C194.986 183.13 203.568 152.988 203.568 108.749C203.568 64.5091 194.986 34.3815 188.468 28.5754Z" fill="#FAAF40"/>
<path d="M45.8965 138.039V138.046L45.911 138.068L45.8965 138.039Z" fill="white"/>
<path d="M41.0496 126.343L40.897 125.428C40.6282 124.97 40.57 123.64 40.2285 123.531L40.4756 125.486L40.7444 126.896C40.7808 126.896 40.8171 126.881 40.8534 126.852C40.977 126.881 41.0496 126.729 41.0496 126.351V126.343Z" fill="white"/>
<path d="M41.6893 129.714L41.6457 129.496L41.5948 129.278L41.3623 128.828C41.0716 128.683 41.1733 129.605 41.0498 129.896C41.2533 130.47 41.4422 130.448 41.6384 130.725L41.6893 129.707V129.714Z" fill="white"/>
<path d="M41.3767 121.855C41.3113 122.588 41.304 123.359 41.4784 124.238C41.5365 124.456 41.6019 124.63 41.6819 124.768L42.0234 125.313C42.0743 124.674 42.1251 124.027 42.4158 124.144C42.5175 123.359 42.3431 122.552 42.1833 121.731C42.0743 121.28 41.9798 120.866 41.8054 120.75C41.5874 120.815 41.4421 121.251 41.3694 121.855H41.3767Z" fill="white"/>
<path d="M70.2396 173.28L70.225 173.266H70.2178L70.2396 173.28Z" fill="white"/>
<path d="M40.5552 113.805C40.4971 113.892 40.4462 114.016 40.4026 114.176C40.3445 114.655 40.4171 114.997 40.5116 115.302C40.5625 115.411 40.6279 115.469 40.686 115.476C40.7514 115.44 40.795 115.324 40.8241 115.128C40.9403 114.619 41.1511 115.324 41.2528 114.728L41.4054 113.325L41.1366 113.289C40.9476 113.572 40.7296 113.449 40.5479 113.812L40.5552 113.805Z" fill="white"/>
<path d="M45.8236 141.194L45.8018 141.172L45.8236 141.194Z" fill="white"/>
<path d="M167.098 47.25L167.105 47.2645L167.112 47.2718L167.098 47.25Z" fill="white"/>
<path d="M183.113 85.3801V85.3655L183.099 85.3438L183.113 85.3801Z" fill="white"/>
<path d="M183.927 82.4219L183.941 82.4437L183.927 82.4219Z" fill="white"/>
<path d="M184.254 98.1401C184.086 98.736 183.927 99.3463 183.658 99.1792C183.403 99.9059 183.44 100.705 183.469 101.505C183.49 101.948 183.527 102.362 183.672 102.493C183.905 102.464 184.101 102.079 184.29 101.519C184.479 100.836 184.61 100.109 184.602 99.2519C184.588 99.0339 184.551 98.8522 184.493 98.7141L184.254 98.1328V98.1401Z" fill="white"/>
<path d="M185.431 94.0535V94.2642L185.438 94.475L185.583 94.94C185.845 95.1362 185.91 94.2497 186.092 93.9954C186.005 93.414 185.823 93.4068 185.685 93.1016L185.431 94.0462V94.0535Z" fill="white"/>
<path d="M183.978 107.688C183.912 107.709 183.847 107.818 183.789 108C183.6 108.465 183.498 107.767 183.302 108.32L182.968 109.635L183.229 109.708C183.455 109.468 183.651 109.613 183.883 109.293C183.949 109.213 184.014 109.104 184.08 108.966C184.196 108.523 184.181 108.182 184.13 107.884C184.094 107.775 184.043 107.709 183.985 107.695L183.978 107.688Z" fill="white"/>
<path d="M185.482 89.2945L185.424 88.9094C185.257 88.2845 185.002 88.0955 184.806 87.5796C184.581 87.1 184.355 86.6059 184.116 86.8893C183.992 87.3035 183.84 87.6741 183.781 88.2118C183.651 87.7322 183.476 87.7104 183.324 87.4415L183.222 87.9938C183.142 87.1799 183.048 86.3733 182.946 85.5667C183.004 85.4868 183.048 85.3923 183.077 85.2179C183.084 85.2761 183.098 85.3487 183.098 85.3705C183.68 86.991 183.723 85.6103 183.811 84.9999C183.818 85.1525 183.876 85.3923 183.985 85.6757C184.029 85.7048 184.065 85.7048 184.101 85.683C184.377 85.7557 184.617 86.5332 184.842 86.991L185.126 87.3035V87.3689C185.235 87.8267 185.293 88.4879 185.511 88.299C185.511 87.3979 186.041 86.9329 185.482 85.5595L185.082 85.5013L185.024 85.1453C184.712 85.2107 184.675 84.3895 184.537 83.7646C184.283 83.612 183.905 84.3169 183.905 82.413C183.694 82.0569 183.629 81.5628 183.556 81.0541C183.484 80.6254 183.382 80.2548 183.222 79.9278C183.04 79.4627 182.866 80.0949 182.684 79.1575C182.401 78.8087 182.161 78.8378 181.863 78.3437C181.747 78.1911 181.631 78.0603 181.529 78.0312C181.529 78.0312 181.529 78.0457 181.521 78.053C181.492 77.9295 181.456 77.8059 181.427 77.6824L181.485 77.7769C181.543 77.6243 181.703 77.7187 181.623 77.2537C181.543 76.854 181.442 76.4834 181.289 76.1273C181.02 75.4733 180.875 74.8484 180.809 74.2235C180.773 74.0345 180.729 73.8456 180.65 73.6567C179.966 72.0435 180.766 72.9809 180.766 72.5376C180.955 72.6829 180.795 71.6801 181.209 72.5812C181.34 73.1407 181.485 73.7075 181.71 74.2889C181.725 74.3252 181.74 74.3543 181.761 74.3833C181.798 74.9429 181.79 75.4443 181.805 75.9747C181.834 76.3235 181.856 76.7014 181.958 77.1374C182.096 77.6606 182.285 78.1039 182.466 78.5399C182.888 79.7098 183.157 79.5354 183.411 79.2447C183.44 79.1866 183.476 79.143 183.513 79.1067C183.265 78.0603 183.549 77.7042 183.375 76.7813C182.968 76.0692 182.866 75.328 182.771 74.5795C182.793 74.6159 182.815 74.6522 182.844 74.6813C182.997 74.8048 183.113 74.8121 183.2 74.7176C183.324 74.5214 183.425 74.2816 183.382 73.7293L183.018 72.9663C182.662 72.3923 182.437 71.7746 182.263 71.1351C182.299 71.1715 182.335 71.1569 182.372 71.0915C182.263 70.4448 182.117 69.8053 181.958 69.1659C181.66 67.9451 181.093 67.0658 180.497 66.1865C180.352 65.9976 180.272 65.9613 180.235 66.0339C180.046 65.7287 179.865 65.5253 179.705 65.4744C179.661 65.4744 179.61 65.4671 179.56 65.4526C179.392 65.0965 179.196 64.7332 178.993 64.6315C178.891 64.5733 178.833 64.6097 178.818 64.7259L178.84 64.8131C178.702 64.8131 178.622 64.9875 178.317 64.5588C178.048 64.2536 177.91 64.2827 177.83 64.428C177.808 64.5515 177.801 64.6969 177.794 64.8422L177.706 64.5879C177.663 64.4716 177.612 64.3699 177.568 64.2536C177.481 63.6577 177.459 63.1418 177.656 62.9311C177.677 62.5314 177.241 61.8919 177.067 61.3905L176.646 60.5985C176.253 60.0244 175.963 59.5012 175.766 58.9635C175.875 58.9635 175.483 58.2441 175.926 58.7019L175.839 58.2804L175.33 57.4956C174.974 57.0887 174.582 56.7035 174.211 56.3111C174.073 56.1004 173.935 55.8897 173.812 55.6789C173.674 55.4537 173.528 55.2357 173.376 55.0177L173.129 54.7052L172.99 54.4L172.22 53.2301C171.573 52.5034 170.861 51.6532 170.149 51.0864L169.989 50.8829C170.106 50.8466 170.207 50.7885 170.316 50.7376C170.374 50.6722 170.389 50.5705 170.251 50.3379C170.156 50.2144 170.062 50.0981 169.967 49.9819C169.357 49.2407 168.892 49.059 168.412 48.8047C167.49 48.5358 167.751 48.0925 167.431 47.7437C167.359 47.7219 167.315 47.7147 167.257 47.7074C167.257 47.5984 167.199 47.4458 167.097 47.2569C166.334 46.8281 166.567 47.3804 166.334 47.4821L166.494 47.6347L166.661 47.7801C166.799 47.8382 166.901 47.8673 166.988 47.8818C166.988 47.9472 167.017 48.0344 167.068 48.1434L167.301 48.3614C166.995 48.2669 166.894 48.3614 166.981 48.6303C166.719 48.4123 166.458 48.187 166.262 48.1725C165.826 47.8382 165.651 47.5257 165.382 47.1987L165.796 47.1115L166.029 47.2278C166.051 46.6973 164.75 45.9125 164.372 45.3385C163.82 44.9679 163.718 44.7644 163.834 44.6409C163.805 44.5028 163.66 44.3066 163.384 44.1031C162.788 43.718 162.338 43.5872 161.836 43.3692C161.567 43.2675 161.327 43.1875 161.131 43.1657C160.95 43.1512 160.891 43.2093 160.95 43.3329H160.935C160.688 43.1512 160.419 43.0059 160.165 42.8533L159.94 43.0277L160.078 43.1003L160.31 43.5581L160.201 43.4927C160.005 43.4564 159.918 43.4855 159.896 43.5509C159.656 43.3619 159.402 43.1803 159.14 42.9986C159.14 42.9695 159.118 42.9259 159.082 42.8751C159.431 42.9986 159.671 43.0277 159.714 42.8896C159.438 42.4609 159.06 42.0176 158.275 41.5162C158.348 41.5307 158.413 41.5453 158.472 41.5525C158.69 41.5525 158.857 41.5162 158.966 41.429C159.017 41.3055 158.908 41.1093 158.479 40.8331L157.127 40.2227C156.132 39.5833 155.114 39.1182 154.301 39.1182C154.199 39.14 154.177 39.2054 154.228 39.2999C153.632 39.1182 153.014 39.0528 152.498 38.5805L151.023 38.2753L150.682 38.1517L150.13 37.6867C148.436 37.1344 147.216 36.2261 145.304 35.979L144.825 36.0807C144.723 35.9935 144.607 35.9063 144.44 35.8119C143.342 35.2523 141.875 35.0561 140.53 34.8091C139.971 34.7146 139.433 34.5693 138.859 34.5257C138.299 34.7727 137.798 34.3658 137.268 34.344C136.352 34.2423 135.458 34.2568 134.543 34.1914C134.346 34.1914 134.15 34.2059 133.976 34.2205C133.598 34.2786 133.22 34.2786 132.849 34.235C133.046 34.1841 133.14 34.1115 133.111 34.0097C132.82 33.7699 132.224 33.69 131.483 33.6755C130.822 33.5519 130.212 33.6609 129.587 33.6755C129.383 33.8281 128.671 33.8935 128.613 34.0751C128.271 34.1042 127.93 34.126 127.581 34.1405C127.676 33.9879 127.298 33.8789 126.702 33.7917C126.251 33.8862 125.801 33.9952 125.35 34.1115L125.089 34.235H125.052C124.02 34.2713 122.821 34.6347 122.066 34.2059C121.928 34.126 121.76 34.0533 121.463 34.0243C120.496 34.0243 120.285 34.5257 119.203 34.4603C118.447 34.5184 117.822 34.4821 117.212 34.4167C116.238 34.5693 115.228 34.8817 114.501 34.562C113.811 34.6565 113.237 34.8817 112.488 34.9181C111.536 35.0925 111.137 35.4122 110.432 35.652C110.33 35.7683 110.192 35.8991 110.301 35.9645L110.047 35.9935C109.959 35.9935 109.872 36.0081 109.778 36.0226L109.509 36.0589C109.109 36.1171 108.717 36.1752 108.317 36.2479C108.259 36.2479 108.201 36.2479 108.128 36.2406C108.048 36.0807 107.925 35.9354 107.14 36.0299C106.152 36.3569 105.054 36.6112 103.921 36.7929L103.906 36.8365H103.855C103.129 36.9891 102.402 37.1707 101.675 37.3306C101.385 37.3161 101.05 37.3669 100.702 37.4323C100.346 37.505 99.9532 37.614 99.7497 37.5195L99.2556 37.4977C98.4126 37.8175 97.6642 38.2607 96.5887 38.2026L96.1382 38.3261C94.7575 38.6386 93.3623 38.8784 91.9962 39.3289C91.8654 39.3507 91.7418 39.3871 91.611 39.4307L91.2186 40.0847C91.1024 40.121 90.9934 40.1501 90.8771 40.1791L90.7318 40.2227C90.8553 39.5978 90.5574 39.576 88.9151 40.0992C88.2102 40.4553 87.6362 40.9058 86.5898 40.9712C86.0448 40.9494 85.5579 41.2401 85.0638 41.4653C84.6641 41.6761 84.3226 41.8795 84.1191 42.0975C83.9956 42.2429 83.9956 42.3301 84.1191 42.3591L84.0755 42.3737C83.6322 42.4173 83.2326 42.5699 82.8692 42.8169C82.9056 42.7443 82.8256 42.7079 82.6585 42.7007C82.4914 42.7152 82.3097 42.7443 82.1135 42.7806C81.4522 42.9259 80.9654 42.9187 80.3041 43.1003C79.9989 43.2021 79.73 43.3183 79.5556 43.4782L79.156 43.7834C78.7854 44.1177 78.2404 44.2921 77.6663 44.4737C76.3874 44.9824 75.2974 45.6364 74.0984 46.2323L73.2409 46.6247C72.4779 46.9299 71.8094 47.2423 72.1291 47.4095H72.1218C71.4388 47.7365 70.7557 48.0053 70.0726 48.296C69.3169 48.6012 68.583 48.9209 67.8345 49.3061C65.9742 50.2507 63.9541 51.1373 62.5662 52.5397C62.4281 52.6778 62.0502 52.8304 61.7814 52.9757C58.6422 54.8433 55.641 56.9361 53.0323 59.3559C52.9451 59.4576 52.8361 59.5448 52.7053 59.632C51.4627 60.8019 49.944 61.8629 48.8176 63.12C48.0764 63.9266 47.1245 64.7187 46.5504 65.5471C46.2816 65.8159 45.94 66.0993 45.9473 66.3101L45.2642 66.7751C44.0071 67.5236 43.1787 68.4828 42.6773 69.5583C41.58 71.1787 39.6471 72.7338 38.826 74.4487C38.8114 74.6958 37.7069 75.9311 38.7242 75.2481C39.1239 75.2263 39.8215 74.5432 40.243 74.0345C41.5146 72.5449 42.8444 71.4621 44.1888 70.3067C41.0641 73.5186 38.1429 76.9267 35.5342 80.5673C36.0574 80.2257 36.5951 79.8915 37.1256 79.5499C37.0166 79.7534 36.9148 79.9641 36.8276 80.1676C36.8276 80.4147 35.8248 81.6791 36.784 80.9597C37.1837 80.9161 37.8232 80.2112 38.201 79.688C38.6806 79.034 39.1893 78.4672 39.698 77.9295C47.9674 72.8501 56.7456 68.4901 65.9016 64.9803C72.1509 62.5895 78.5165 60.4749 85.2527 58.9925C86.7278 58.6655 88.232 58.3676 89.7435 58.106C89.7435 58.1205 89.729 58.1205 89.7217 58.1351C89.9252 58.3313 90.165 58.1714 90.3975 58.1569C90.3975 58.1133 90.3975 58.0769 90.383 58.0333C90.3612 58.0188 90.3466 58.0115 90.3248 58.0043C90.5719 57.9607 90.8262 57.9316 91.0733 57.888C90.8989 57.9679 90.6882 58.0115 90.6809 58.2368C90.6591 58.2441 90.6373 58.2513 90.6082 58.2659L90.6518 58.5275C90.7536 58.7455 90.8553 58.9707 91.1314 59.0725C91.1896 59.1015 91.2477 59.1233 91.3131 59.1451C91.4948 59.2033 91.6692 59.2832 91.8072 59.4067C91.9526 59.5521 91.9526 59.7991 92.1706 59.9009C92.0906 60.1261 92.1996 60.2715 92.4249 60.3805L92.5266 60.3659C92.5121 60.1697 92.5266 59.9735 92.6429 59.7919C92.6865 59.7773 92.7301 59.7628 92.7664 59.7483C92.9626 59.6029 92.999 59.3631 93.1661 59.196C93.3114 58.9998 93.464 58.8036 93.3478 58.5493C93.1879 58.4039 93.0426 58.2368 92.8391 58.1496C92.999 58.0479 92.9917 57.8735 93.0716 57.7354L92.8609 57.6046C93.1516 57.5683 93.4422 57.5319 93.7256 57.5029C93.7547 57.561 93.7983 57.6119 93.8564 57.6555C93.8346 57.6555 93.8056 57.6627 93.8056 57.6627C93.2606 58.106 93.7692 58.2586 93.9945 58.4039C93.9364 58.4039 93.8564 58.433 93.762 58.5202C93.762 58.5565 93.762 58.6001 93.762 58.6365C93.762 58.9053 93.5004 59.0652 93.3623 59.2759L93.2824 59.5375H93.2606C93.108 59.6175 92.89 59.6393 92.9772 59.8718C93.2896 59.9227 93.4931 60.4459 93.9218 60.0244L93.9073 59.632L94.0236 59.6029C93.98 59.2905 94.2561 59.3123 94.4741 59.2614C94.5104 59.0289 94.2416 58.5711 94.9101 58.7963C95.0264 58.6437 95.2008 58.651 95.3752 58.6583C95.5278 58.6583 95.6513 58.6001 95.7676 58.5129C95.9274 58.4185 95.6949 58.1278 96.0292 58.1278C96.1527 57.9171 96.1382 57.67 96.3126 57.4811C96.3707 57.4011 96.4143 57.3212 96.4288 57.2267C96.4652 57.2267 96.5015 57.2267 96.5378 57.2195L96.5233 57.2413C96.5814 57.3285 96.5451 57.4665 96.7122 57.4883C96.8576 57.5029 96.9884 57.4665 97.1264 57.4229C97.3662 57.3285 97.5988 57.3575 97.824 57.4593C97.8894 57.4738 97.9621 57.4738 98.0348 57.4593C98.6379 57.2994 98.2673 57.779 98.4272 57.9098C98.369 58.0406 98.7251 58.2005 98.3908 58.3167C98.1874 58.2586 97.9839 58.2368 97.7732 58.3022L97.7368 58.324C97.5406 58.215 97.3662 58.0769 97.1773 57.9534C97.0538 57.8807 96.9157 57.8299 96.7631 57.8371C96.5742 57.8589 96.4143 57.9389 96.2617 58.0333C95.8475 58.2295 95.9202 58.5275 96.0219 58.8327C96.0437 58.8763 96.0582 58.9199 96.0728 58.9635C96.4361 58.9126 96.5669 59.2759 96.8794 59.305C97.1264 59.0507 97.388 59.1597 97.6424 59.2614C97.6278 59.2759 97.6133 59.2832 97.606 59.2977C97.5624 59.4067 97.5552 59.523 97.5842 59.632C97.6496 59.8064 97.7296 59.9663 97.9112 60.0607L98.1728 59.9081C98.3763 59.741 98.5943 59.7265 98.8123 59.7628C98.7978 59.7919 98.7978 59.8282 98.8196 59.8791L99.4663 60.1407C99.8805 60.286 100.2 60.0898 100.535 59.9299C100.607 59.8718 100.629 59.8137 100.607 59.7555C100.723 59.7047 100.803 59.6247 100.84 59.5012L100.862 59.3777C100.992 59.3631 101.123 59.3559 101.189 59.2251C101.218 59.1597 101.218 59.0943 101.181 59.0289C101.167 59.0216 101.167 59.0143 101.152 59.0071C101.167 58.8835 101.123 58.7382 101.298 58.6583C101.428 58.5565 101.436 58.4257 101.407 58.2877C101.37 58.2077 101.327 58.1351 101.283 58.0697L101.377 58.1133C101.421 58.1278 101.457 58.1278 101.501 58.1423C101.704 58.3385 101.864 58.5493 101.893 58.8181C102.01 59.0143 102.264 58.9707 102.446 59.0652L102.744 59.1015C102.976 59.0434 103.172 59.1015 103.361 59.2251C103.339 59.3195 103.608 59.3777 103.405 59.5012L103.536 59.6611H103.841L104.371 59.4576C104.451 59.4721 104.538 59.4867 104.611 59.5085C104.698 59.5303 104.786 59.5448 104.873 59.5521H105.004L105.105 59.6465L105.556 59.7991C105.876 59.741 106.232 59.8355 106.53 59.6974L106.609 59.7192L106.551 60.0535C106.551 60.1407 106.566 60.2206 106.646 60.2787C106.697 60.286 106.74 60.3005 106.784 60.3223C107.082 60.4313 107.234 60.2351 107.416 60.0898C107.721 59.6465 107.721 60.1625 107.867 60.2133C107.888 60.1843 107.903 60.1552 107.925 60.1261C107.939 60.2061 107.983 60.286 108.041 60.3659C108.324 60.1988 108.179 59.9299 108.23 59.7047H108.157L108.085 59.6974C108.034 59.741 107.997 59.7846 107.976 59.8355C107.961 59.7846 107.939 59.7337 107.91 59.6829L107.808 59.6611C107.91 59.5375 107.925 59.3995 107.859 59.2469C107.976 59.2469 108.085 59.2469 108.143 59.1379C108.324 59.1088 108.426 59.2396 108.557 59.3123L108.441 59.6465L108.353 59.7119C108.426 60.1043 108.928 59.9299 109.109 60.1843C109.327 60.1552 109.378 60.2569 109.356 60.4241C109.378 60.5185 109.451 60.5767 109.552 60.5985C109.778 60.5985 109.93 60.4531 110.112 60.3659C110.206 60.3151 110.294 60.2497 110.359 60.1625C110.417 60.0753 110.432 60.0026 110.41 59.9299L110.701 59.9445L110.766 59.6829H110.715L110.606 59.4067H110.65C110.722 59.3486 110.751 59.2759 110.751 59.2105C110.846 59.2541 110.948 59.2977 111.049 59.3268C111.049 59.3486 111.064 59.3777 111.078 59.3995C110.948 59.4576 110.868 59.5521 110.86 59.6901C110.984 59.9227 111.137 60.1261 111.427 60.1843C111.398 60.2061 111.376 60.2206 111.355 60.2497C111.282 60.3587 111.224 60.4677 111.187 60.5912C111.173 60.7293 111.224 60.831 111.376 60.8819L111.849 60.8601C112.205 60.9909 112.539 61.049 112.83 60.7583C112.866 60.7002 112.873 60.6348 112.859 60.5694C113.07 60.5113 113.288 60.3659 113.455 60.6639L113.971 60.4967C114.007 60.4967 114.051 60.504 114.087 60.5185L114.254 60.8165C114.821 60.9037 115.162 61.4995 115.795 61.4269L115.976 61.2597C115.998 61.3251 116.027 61.3905 116.078 61.4559C116.383 61.8265 116.855 61.8483 117.27 61.9937C117.444 62.0445 117.597 62.1463 117.786 62.1463C118.025 61.8847 118.105 62.2698 118.28 62.2771C118.57 62.3425 118.868 62.3425 119.152 62.4151C119.217 62.4151 119.283 62.4151 119.348 62.3933C119.493 62.3352 119.61 62.3715 119.719 62.4297C119.639 62.466 119.588 62.5387 119.573 62.6331C119.602 62.8729 119.769 62.9819 120.002 63.0255C120.176 63.1781 120.394 63.1345 120.598 63.1709C120.707 63.0401 120.954 63.0401 121.027 62.8729C121.143 62.8802 121.252 62.902 121.361 62.9238C121.281 63.0619 121.361 63.2072 121.513 63.3525L122.022 63.229L122.146 63.1491H122.153C122.473 63.2581 122.952 63.1127 123.01 63.6432C123.025 63.7377 123.039 63.8321 123.112 63.9121C123.381 64.0792 123.635 63.6723 123.904 63.9339C124.137 64.0211 124.289 64.1955 124.42 64.3844C124.74 64.4425 125.132 64.4135 125.176 64.864C125.394 64.9367 125.634 64.8713 125.83 65.0311C126.135 65.1256 126.375 64.9439 126.651 64.9149C126.731 64.8349 126.825 64.7623 126.833 64.6751L126.905 64.7114C126.905 64.7114 126.956 64.7477 126.985 64.755L127.065 64.7986C127.181 64.864 127.298 64.9221 127.421 64.973C127.428 64.9948 127.443 65.0166 127.458 65.0311C127.399 65.191 127.356 65.3509 127.574 65.4962C127.959 65.4962 128.3 65.6343 128.627 65.8232L128.649 65.7941H128.664L129.34 66.1139C129.39 66.2229 129.47 66.2955 129.572 66.3537C129.674 66.4118 129.812 66.4554 129.79 66.608L129.863 66.7969C130.175 66.8405 130.553 66.7388 130.684 67.1821L130.822 67.2547C131.207 67.5236 131.534 67.8579 131.956 68.0759C131.985 68.1122 132.021 68.134 132.065 68.1485L132.501 67.8143C132.501 67.8143 132.566 67.8506 132.602 67.8797L132.646 67.9087C132.253 68.3302 132.275 68.461 132.748 68.7662C133.031 68.8025 133.373 68.7008 133.482 69.1223C133.503 69.3766 133.721 69.3839 133.896 69.442C134.056 69.4711 134.208 69.4711 134.361 69.4202C134.463 69.3766 134.521 69.3112 134.528 69.2385H134.543C134.593 69.4202 134.71 69.5001 134.884 69.5001C134.833 69.5365 134.811 69.5946 134.819 69.6745C134.833 69.7399 134.862 69.8053 134.891 69.8635C135.015 70.0597 135.022 70.2995 135.153 70.4957C135.226 70.5756 135.306 70.6192 135.415 70.6047H135.625C135.851 70.5538 135.981 70.6919 136.09 70.8663C136.41 71.1787 136.846 71.2877 137.195 71.5639L137.427 71.7673C137.602 71.9708 137.776 72.1379 137.914 71.8836C138.089 72.0653 138.227 72.2687 138.372 72.4722C138.532 72.6902 138.67 72.9227 138.859 73.1262C139.339 73.6203 139.644 74.2961 140.421 74.4197C140.501 74.4342 140.545 74.5723 140.596 74.6522C141.351 75.5823 142.114 76.4761 143.074 77.2101C143.117 77.2319 143.154 77.2609 143.175 77.3118C143.64 77.6679 143.88 78.2492 144.367 78.5689C144.665 78.7942 144.854 79.1648 145.225 79.3319C145.304 79.4337 145.355 79.579 145.515 79.5281L145.552 79.8333C145.53 80.4219 145.82 80.7271 146.344 80.8652C146.961 81.2649 147.048 82.1732 147.746 82.5147C147.913 82.5002 148.124 83.0379 148.24 82.5147C148.458 82.2895 148.378 81.9479 148.262 81.7445C147.928 81.1922 147.833 80.5963 147.673 80.015C149.316 82.7691 150.711 85.683 151.677 88.6987C151.677 88.7059 151.677 88.7205 151.685 88.7277C151.67 88.7277 151.67 88.7132 151.648 88.7059C151.488 88.953 151.685 89.1855 151.735 89.4253C151.779 89.4253 151.815 89.4108 151.852 89.389C151.859 89.3745 151.859 89.3599 151.866 89.3454C151.939 89.5852 152.004 89.825 152.077 90.0575C151.983 89.8904 151.895 89.7087 151.692 89.7305C151.677 89.7015 151.67 89.6869 151.655 89.6579L151.401 89.7378C151.198 89.8759 150.994 90.0139 150.936 90.3119C150.922 90.3773 150.9 90.4427 150.893 90.5153C150.863 90.7188 150.813 90.915 150.704 91.0676C150.58 91.242 150.34 91.2711 150.268 91.5109C150.035 91.4527 149.904 91.5908 149.824 91.8379L149.853 91.9396C150.05 91.9033 150.246 91.896 150.442 91.9977C150.464 92.0413 150.486 92.0849 150.507 92.1285C150.682 92.3175 150.922 92.332 151.11 92.4846C151.328 92.6154 151.547 92.7607 151.779 92.6009C151.903 92.4119 152.048 92.2375 152.106 92.0195C152.23 92.1794 152.404 92.1503 152.549 92.223L152.644 91.9977C152.724 92.3029 152.789 92.6081 152.862 92.9061C152.811 92.9424 152.775 92.986 152.745 93.0514C152.745 93.0296 152.731 93.0005 152.731 92.9933C152.215 92.4628 152.128 93.0223 152.019 93.2767C152.019 93.2185 151.968 93.1386 151.874 93.0441C151.83 93.0441 151.794 93.0441 151.757 93.0659C151.488 93.095 151.292 92.8407 151.067 92.7171L150.791 92.659V92.6372C150.689 92.4846 150.631 92.2521 150.42 92.3756C150.413 92.7171 149.926 92.986 150.398 93.3857L150.791 93.3275L150.834 93.4511C151.14 93.3711 151.154 93.6691 151.234 93.8871C151.467 93.9016 151.888 93.5673 151.757 94.3013C151.924 94.4103 151.939 94.5992 151.953 94.7809C151.975 94.9407 152.041 95.0715 152.142 95.1805C152.251 95.3404 152.513 95.0715 152.557 95.4276C152.782 95.5366 153.029 95.5003 153.232 95.6747C153.312 95.7255 153.392 95.7619 153.479 95.7691C153.479 95.8055 153.494 95.8418 153.501 95.8781C153.421 95.9435 153.276 95.9217 153.276 96.1034C153.276 96.2633 153.32 96.4013 153.385 96.5394C153.501 96.7937 153.494 97.0408 153.414 97.2879C153.407 97.3605 153.414 97.4405 153.429 97.5131C153.632 98.1526 153.131 97.782 153.007 97.9637C152.869 97.9055 152.738 98.2979 152.6 97.9491C152.644 97.7311 152.651 97.5131 152.557 97.2951L152.535 97.2588C152.629 97.0408 152.753 96.8446 152.847 96.6266C152.905 96.4885 152.942 96.3359 152.927 96.1688C152.884 95.9726 152.789 95.8055 152.68 95.6456C152.44 95.2241 152.15 95.3259 151.859 95.4639C151.823 95.493 151.779 95.5148 151.735 95.5293C151.83 95.9072 151.474 96.0816 151.488 96.4159C151.765 96.6557 151.692 96.9391 151.605 97.2225C151.59 97.2079 151.576 97.1934 151.561 97.1861C151.445 97.1425 151.336 97.1498 151.227 97.1861C151.06 97.2661 150.907 97.3605 150.827 97.564L151.002 97.8256C151.183 98.0291 151.212 98.2543 151.205 98.4869C151.176 98.4723 151.14 98.4796 151.089 98.5014L150.878 99.199C150.754 99.635 150.98 99.9547 151.154 100.304C151.212 100.383 151.27 100.398 151.336 100.376C151.394 100.492 151.474 100.58 151.605 100.609L151.728 100.631C151.75 100.769 151.764 100.921 151.903 100.979C151.968 101.008 152.033 101.001 152.099 100.965C152.106 100.95 152.113 100.943 152.121 100.928C152.251 100.943 152.389 100.885 152.477 101.074C152.586 101.212 152.716 101.219 152.855 101.176C152.927 101.132 153 101.081 153.065 101.03L153.029 101.132C153.014 101.183 153.014 101.219 153.007 101.27C152.825 101.495 152.622 101.677 152.353 101.728C152.164 101.866 152.222 102.135 152.135 102.331L152.121 102.651C152.193 102.898 152.135 103.116 152.026 103.319C151.932 103.305 151.881 103.595 151.75 103.377L151.597 103.523V103.85L151.837 104.409C151.83 104.496 151.815 104.591 151.794 104.671C151.779 104.765 151.765 104.852 151.757 104.954V105.092L151.67 105.209L151.539 105.695C151.605 106.037 151.525 106.422 151.677 106.735L151.663 106.822L151.329 106.778C151.241 106.778 151.161 106.8 151.11 106.887C151.11 106.938 151.089 106.989 151.074 107.04C150.972 107.359 151.169 107.519 151.321 107.708C151.772 108.021 151.263 108.043 151.212 108.195C151.241 108.217 151.27 108.231 151.299 108.253C151.22 108.275 151.14 108.319 151.06 108.384C151.234 108.682 151.503 108.515 151.728 108.566V108.486V108.406C151.685 108.355 151.634 108.319 151.59 108.29C151.641 108.275 151.685 108.253 151.735 108.217L151.75 108.108C151.881 108.217 152.019 108.224 152.164 108.144C152.164 108.268 152.164 108.384 152.288 108.449C152.317 108.646 152.193 108.762 152.121 108.9L151.786 108.791L151.721 108.704C151.328 108.798 151.51 109.321 151.27 109.532C151.307 109.765 151.205 109.823 151.038 109.801C150.943 109.83 150.885 109.903 150.863 110.019C150.863 110.259 151.009 110.419 151.103 110.608C151.161 110.709 151.227 110.797 151.307 110.869C151.394 110.935 151.474 110.949 151.539 110.913L151.532 111.233L151.794 111.298V111.24L152.07 111.116V111.16C152.135 111.233 152.201 111.262 152.273 111.262C152.23 111.363 152.193 111.472 152.157 111.589C152.135 111.589 152.106 111.603 152.077 111.625C152.019 111.487 151.924 111.4 151.786 111.392C151.554 111.531 151.35 111.705 151.285 112.032C151.263 112.003 151.249 111.981 151.22 111.959C151.111 111.879 151.002 111.821 150.878 111.792C150.74 111.785 150.638 111.843 150.587 112.01L150.631 112.526C150.507 112.918 150.471 113.304 150.754 113.587C150.813 113.623 150.878 113.631 150.951 113.616C151.009 113.834 151.154 114.067 150.863 114.248L151.031 114.793C151.031 114.837 151.023 114.88 151.009 114.917L150.711 115.106C150.631 115.723 150.028 116.101 150.122 116.792L150.297 116.988C150.231 117.017 150.166 117.053 150.108 117.104C149.926 117.278 149.839 117.489 149.766 117.707L149.57 118.441C149.512 118.637 149.41 118.819 149.41 119.03C149.672 119.284 149.287 119.393 149.287 119.589C149.228 119.909 149.228 120.229 149.163 120.541C149.163 120.614 149.17 120.679 149.192 120.752C149.25 120.905 149.221 121.028 149.163 121.152C149.119 121.072 149.054 121.021 148.952 121.006C148.712 121.05 148.604 121.232 148.567 121.479C148.415 121.668 148.465 121.886 148.436 122.096C148.567 122.205 148.574 122.445 148.734 122.532C148.72 122.663 148.698 122.808 148.662 122.932C148.524 122.852 148.371 122.946 148.218 123.121L148.335 123.666L148.415 123.789V123.804C148.298 124.153 148.436 124.669 147.906 124.763C147.811 124.785 147.71 124.814 147.63 124.894C147.463 125.199 147.877 125.439 147.615 125.759C147.528 126.02 147.354 126.195 147.172 126.362C147.121 126.718 147.172 127.139 146.714 127.234C146.642 127.474 146.729 127.735 146.583 127.968C146.496 128.309 146.671 128.542 146.7 128.84C146.78 128.92 146.86 129.007 146.947 129.007L146.903 129.087C146.903 129.087 146.867 129.145 146.86 129.174L146.816 129.261C146.75 129.392 146.692 129.523 146.642 129.661L146.583 129.704C146.416 129.654 146.256 129.625 146.111 129.872C146.126 130.279 145.995 130.671 145.813 131.034L145.842 131.056V131.071L145.552 131.819C145.45 131.877 145.377 131.979 145.319 132.095C145.261 132.211 145.217 132.357 145.065 132.35L144.868 132.444C144.832 132.778 144.934 133.171 144.491 133.367L144.418 133.519C144.156 133.97 143.829 134.355 143.626 134.835C143.597 134.871 143.568 134.915 143.553 134.958L143.917 135.387C143.902 135.423 143.88 135.467 143.851 135.496L143.822 135.547C143.379 135.184 143.241 135.22 142.95 135.765C142.928 136.07 143.045 136.426 142.623 136.593C142.361 136.651 142.369 136.884 142.318 137.073C142.296 137.247 142.303 137.414 142.361 137.56C142.412 137.661 142.478 137.712 142.558 137.712V137.727C142.369 137.8 142.296 137.938 142.303 138.127C142.267 138.076 142.202 138.061 142.122 138.083C142.056 138.112 141.991 138.148 141.925 138.192C141.729 138.352 141.482 138.388 141.293 138.555C141.221 138.642 141.17 138.737 141.199 138.846L141.221 139.071C141.271 139.304 141.133 139.464 140.966 139.609C140.661 140.001 140.567 140.488 140.312 140.902L140.116 141.179C139.913 141.404 139.753 141.615 140.029 141.716C139.862 141.942 139.651 142.116 139.462 142.312C139.244 142.523 139.019 142.705 138.83 142.944C138.365 143.533 137.689 143.983 137.631 144.826C137.631 144.906 137.486 144.986 137.406 145.059C136.519 146.04 135.669 147.028 135.029 148.184C135.015 148.234 134.986 148.278 134.942 148.307C134.637 148.867 134.063 149.245 133.794 149.833C133.591 150.196 133.249 150.487 133.133 150.887C133.038 150.989 132.9 151.083 132.973 151.236L132.668 151.345C132.057 151.461 131.788 151.831 131.73 152.391C131.418 153.118 130.488 153.416 130.248 154.193C130.284 154.353 129.776 154.709 130.328 154.695C130.589 154.854 130.938 154.695 131.127 154.527C131.65 154.062 132.254 153.815 132.835 153.517C129.732 156.293 126.251 158.8 122.349 160.886C121.39 161.416 120.373 161.867 119.377 162.339C118.345 162.775 117.35 163.226 116.252 163.603C115.148 163.981 114.058 164.374 112.939 164.672C112.735 164.73 112.525 164.781 112.314 164.839C112.365 164.81 112.43 164.795 112.481 164.759C111.754 164.693 110.751 165.057 109.858 165.246C109.821 165.297 109.829 165.34 109.872 165.369C110.039 165.384 110.243 165.347 110.49 165.253C110.686 165.202 110.897 165.173 111.108 165.151C110.599 165.268 110.09 165.377 109.574 165.478C108.746 165.645 107.917 165.783 107.082 165.907C107.816 165.747 108.673 165.587 108.789 165.333L109.087 165.26L109.037 164.999C108.739 164.817 108.426 164.65 107.409 164.664C107.191 164.664 106.966 164.664 106.726 164.664C106.028 164.672 105.381 164.643 104.924 164.541C104.429 164.417 104.546 164.178 103.761 164.098C104.182 163.851 103.826 163.727 103.005 163.633L102.613 163.654C102.569 163.858 102.402 164.047 101.85 164.236C101.675 164.25 101.501 164.265 101.327 164.272C100.476 164.403 100.193 164.621 99.4663 164.752C98.7832 164.911 98.0566 165.05 98.3981 165.326C98.9504 165.515 99.4372 165.718 100.186 165.842C99.4954 165.907 99.43 166.081 99.023 166.19L99.7788 166.365C98.6161 166.343 97.4389 166.278 96.269 166.161C96.1745 166.089 96.0437 166.023 95.8257 165.951C95.9129 165.958 96.0219 165.965 96.0437 165.972C98.4635 165.813 96.5378 165.435 95.7385 165.18C95.9492 165.209 96.2908 165.224 96.7122 165.188C96.7631 165.151 96.7776 165.115 96.7558 165.071C96.9302 164.817 98.0275 164.781 98.6888 164.614L99.1611 164.381H99.2483C99.8805 164.352 100.767 164.359 100.542 164.119C99.3355 164.01 98.8414 163.473 96.9448 163.691L96.7704 164.069L96.2908 164.032C96.2908 164.352 95.1935 164.192 94.3433 164.083C94.0599 164.257 94.8447 164.904 92.3595 164.17C91.8218 164.207 91.1387 164.039 90.4702 163.851C89.8961 163.705 89.3802 163.603 88.8933 163.545C88.2248 163.422 88.9078 163.96 87.6434 163.545C87.0476 163.56 86.9386 163.792 86.132 163.698C85.8704 163.683 85.6378 163.676 85.5361 163.742C85.3762 163.683 85.2164 163.633 85.0638 163.574L85.1946 163.596C85.042 163.444 85.2672 163.385 84.6568 163.102C84.1336 162.862 83.6104 162.673 83.0945 162.477C82.1498 162.128 81.3287 161.685 80.6166 161.176C80.384 161.031 80.1442 160.893 79.8899 160.762C77.6954 159.607 79.3304 160.043 78.8944 159.621C79.1923 159.658 78.1241 158.778 79.3231 159.411C79.9553 159.876 80.6311 160.312 81.4159 160.646C81.4668 160.66 81.5031 160.675 81.554 160.69C82.1644 161.133 82.7094 161.569 83.3125 161.983C83.7122 162.259 84.17 162.513 84.7513 162.761C85.4634 163.037 86.1102 163.204 86.7569 163.349C88.45 163.742 88.3774 163.378 88.1739 163C88.123 162.935 88.0867 162.884 88.0649 162.826C86.6697 162.397 86.4444 161.918 85.3181 161.416C84.2499 161.235 83.3997 160.726 82.5495 160.166C82.6004 160.181 82.6585 160.188 82.7094 160.203C82.9564 160.203 83.0436 160.123 83.0146 159.985C82.9201 159.738 82.7239 159.469 82.1789 159.069L81.1979 158.691C80.3986 158.415 79.6719 157.979 78.9888 157.47C79.0542 157.478 79.076 157.449 79.047 157.369C78.4075 156.831 77.768 156.264 77.1649 155.69C76.0967 154.665 74.9631 153.91 73.9022 153.103C73.6478 152.929 73.5534 152.914 73.5534 153.009C73.19 152.718 72.8994 152.529 72.7032 152.507C72.6523 152.515 72.6014 152.522 72.5433 152.515C72.1727 152.151 71.8094 151.759 71.5405 151.664C71.4024 151.613 71.3588 151.664 71.4024 151.802L71.4606 151.904C71.3152 151.933 71.3152 152.151 70.7848 151.679C70.356 151.352 70.2325 151.388 70.2034 151.577C70.2252 151.73 70.2906 151.904 70.356 152.086L70.1453 151.781C70.0436 151.643 69.9491 151.519 69.8474 151.388C69.4913 150.669 69.2733 150.044 69.4114 149.775C69.2878 149.295 68.6411 148.511 68.3214 147.878L67.6819 146.883C67.1296 146.142 66.7663 145.437 66.5047 144.739C66.621 144.754 66.1486 143.802 66.6573 144.449L66.541 143.918L65.967 142.85C65.5818 142.261 65.204 141.665 64.8479 141.062C64.7244 140.757 64.5936 140.459 64.4991 140.154C64.3828 139.834 64.2593 139.514 64.1358 139.187L63.9468 138.701L63.8669 138.272C63.6925 137.691 63.5326 137.109 63.3728 136.521C62.8932 135.343 62.5589 133.941 62.1011 132.836L62.0284 132.509C62.152 132.553 62.2682 132.553 62.3918 132.568C62.4717 132.538 62.5298 132.437 62.4935 132.088C62.4499 131.892 62.4136 131.703 62.3845 131.514C62.1883 130.3 61.8686 129.77 61.5779 129.13C60.9021 128.128 61.3817 127.873 61.3163 127.263C61.2727 127.183 61.2364 127.139 61.1928 127.088C61.2509 126.979 61.2945 126.791 61.3308 126.514C60.982 125.439 60.8294 126.18 60.5824 126.078L60.626 126.369L60.6768 126.66C60.7568 126.834 60.8222 126.95 60.8876 127.038C60.8512 127.11 60.8222 127.212 60.8004 127.372L60.8658 127.786C60.6696 127.43 60.5242 127.445 60.4443 127.793C60.3498 127.343 60.2699 126.892 60.1173 126.711C59.972 125.991 60.0083 125.519 60.001 124.952L60.3862 125.25L60.5024 125.562C60.8149 125.076 60.3498 123.135 60.4806 122.256C60.3426 121.384 60.408 121.108 60.5824 121.123C60.6623 120.977 60.6841 120.665 60.655 120.221C60.546 119.306 60.3571 118.739 60.1972 118.041C60.11 117.678 60.0156 117.366 59.9066 117.133C59.8048 116.93 59.7249 116.915 59.6668 117.068V117.046L59.5796 115.84L59.3034 115.723L59.3252 115.934L59.0854 116.552V116.377C58.991 116.13 58.9183 116.05 58.8456 116.079C58.8456 115.658 58.8602 115.237 58.8674 114.801C58.8892 114.779 58.911 114.721 58.9328 114.641C59.0273 115.128 59.1363 115.418 59.2744 115.375C59.4706 114.742 59.6159 114.001 59.6086 112.759C59.6304 112.853 59.6595 112.933 59.6886 113.006C59.8121 113.245 59.9356 113.413 60.0592 113.478C60.1972 113.442 60.2844 113.187 60.299 112.526L60.1754 110.579C60.2408 109.024 60.2554 107.556 59.9211 106.553C59.8557 106.437 59.7903 106.451 59.7249 106.553C59.6813 106.131 59.6159 105.739 59.5941 105.354C59.565 104.954 59.6086 104.555 59.7612 104.177L59.6813 103.268C59.6668 102.97 59.6813 102.694 59.6813 102.396C59.6958 102.258 59.7176 102.12 59.7467 101.982C59.863 101.735 60.0301 101.51 60.1754 101.277C60.6841 99.2717 61.8395 98.0509 62.9222 96.2342L63.0603 95.7037C63.1838 95.6311 63.3364 95.5511 63.5181 95.4421C64.5936 94.6065 65.7926 93.5237 67.1296 92.7825C67.6601 92.441 68.2632 92.2811 68.8082 91.9541C69.2442 91.4745 69.9346 91.5472 70.4941 91.3801C70.9882 91.2638 71.4606 91.0749 71.9692 91.0095C72.4634 90.915 72.9648 90.806 73.488 90.806C73.7132 90.7769 73.924 90.7479 74.1202 90.7043C74.5489 90.5953 74.9776 90.6534 75.4064 90.6897C75.1811 90.7406 75.0794 90.8133 75.1084 90.9077C75.2683 91.0313 75.5154 91.0967 75.8133 91.1766C76.1112 91.2711 76.4746 91.3365 76.8815 91.3873C77.2303 91.4891 77.5573 91.6126 77.8988 91.6707C78.2404 91.7289 78.5746 91.8015 78.8944 91.9251C79.156 91.8524 79.9335 92.0559 80.0643 91.9469C80.4204 92.0995 80.791 92.2448 81.147 92.4265C80.9799 92.4991 81.2924 92.8334 81.801 93.2549C82.2879 93.4365 82.7239 93.7127 83.2108 93.9379C83.3198 93.967 83.4142 94.0179 83.516 94.0542L83.545 94.0833C84.4534 94.839 85.616 95.7691 85.7178 96.7501C85.7396 96.9245 85.7977 97.1062 85.914 97.4259C86.4299 98.3706 86.9749 98.4287 87.3382 99.6277C87.4836 100.042 87.5926 100.42 87.6798 100.783C87.7234 101.161 87.7524 101.51 87.7815 101.851C87.9559 102.382 88.0504 102.956 88.1521 103.486C88.1812 104.024 88.1376 104.533 87.9632 104.918C87.9196 105.71 88.0867 106.284 87.8687 107.439C87.7597 108.827 87.9559 109.474 87.9922 110.535C88.0794 110.709 88.1666 110.942 88.2611 110.811L88.2248 111.174C88.203 111.298 88.1957 111.429 88.1884 111.56L88.1521 111.945C88.094 112.519 88.0431 113.1 88.0068 113.674C87.9922 113.754 87.9704 113.841 87.9486 113.936C87.7742 114.001 87.5998 114.132 87.4908 115.273C87.5708 116.784 87.5417 118.419 87.5199 120.12L87.5562 120.156V120.236C87.578 121.341 87.6144 122.452 87.7016 123.564C87.658 123.993 87.6725 124.502 87.7161 125.047C87.767 125.599 87.8687 126.209 87.767 126.5L87.7452 127.256C88.0867 128.614 88.6099 129.828 88.8715 131.55L89.1549 132.291C89.4528 133.069 89.8016 133.832 90.2376 134.595C90.7608 135.423 91.175 135.954 91.7709 136.76L92.2578 137.24L92.6865 137.64C92.9772 137.901 93.435 138.257 93.762 138.454C93.9073 138.57 94.0962 138.701 94.3215 138.831C94.7066 138.868 95.0772 138.882 95.4478 138.882L96.0001 139.158L96.2326 139.267C95.8838 139.42 95.8039 139.565 96.1672 139.834C96.5306 140.089 97.3517 140.481 98.7832 140.837C100.04 141.011 101.21 140.946 102.867 141.309C103.696 141.542 104.677 141.404 105.527 141.258C106.224 141.091 106.849 140.961 107.22 140.743C107.46 140.604 107.489 140.51 107.307 140.474L107.372 140.459C108.048 140.466 108.71 140.307 109.32 140.023C109.24 140.103 109.349 140.139 109.603 140.132L109.8 140.11C109.938 140.081 110.039 140.074 110.148 140.038C110.199 140.03 110.512 139.929 110.519 139.936L110.722 139.885C111.689 139.631 112.321 139.602 113.375 139.195C113.84 138.991 114.254 138.781 114.523 138.541L115.126 138.054C115.678 137.552 116.449 137.116 117.248 136.659C119.035 135.503 120.402 134.137 121.862 132.742C122.204 132.415 122.545 132.088 122.88 131.754C123.788 130.896 124.522 130.068 124.093 130.126L124.108 130.111C124.871 129.283 125.612 128.491 126.331 127.648C127.116 126.725 127.886 125.78 128.584 124.727C128.7 124.545 128.816 124.371 128.933 124.204L129.354 123.6L130.43 121.813L130.938 120.948L131.36 120.047C131.89 118.848 132.428 117.664 132.66 116.479C132.719 116.203 132.995 115.68 133.169 115.266C135.131 110.179 136.098 104.671 135.56 99.3298C135.524 99.1336 135.502 98.9156 135.502 98.6903C135.204 96.1543 134.848 93.3348 133.838 90.9731C133.554 90.1956 133.176 89.3817 132.82 88.5897C132.428 87.8194 132.014 87.0782 131.57 86.4823C131.302 85.9882 130.953 85.3851 130.72 85.2979C130.531 84.9345 130.35 84.5494 130.139 84.1933C129.165 82.2168 127.755 80.8434 126.266 79.9787C125.096 79.1139 123.846 78.0821 122.531 77.1592C121.223 76.2436 119.813 75.4443 118.52 75.0301C118.2 75.0083 116.042 73.9255 117.437 74.9719C117.669 75.4007 118.876 76.1346 119.711 76.6142C122.058 77.9876 123.817 79.5935 125.445 81.3811C123.861 79.8624 122.073 78.4745 120.104 77.2537C115.635 74.5577 110.424 72.6975 104.887 71.8763C104.342 71.7964 103.79 71.7237 103.245 71.6583C103.26 71.6511 103.267 71.6511 103.281 71.6365C103.1 71.3822 102.765 71.4476 102.489 71.4113C102.475 71.4476 102.467 71.4912 102.475 71.5348C102.518 71.5929 102.584 71.6075 102.664 71.5857C102.671 71.5857 102.678 71.5857 102.685 71.5857C102.322 71.5421 101.951 71.5203 101.581 71.4839C101.821 71.4476 102.104 71.4694 102.177 71.2441C102.213 71.2441 102.242 71.2441 102.271 71.2441L102.3 70.9753C102.242 70.7355 102.184 70.4957 101.872 70.3213C101.806 70.2777 101.741 70.2413 101.661 70.205C101.45 70.096 101.254 69.9797 101.116 69.8199C100.971 69.6382 101.036 69.4057 100.789 69.2458C100.949 69.0496 100.847 68.8752 100.585 68.7226H100.455C100.426 68.9115 100.353 69.1005 100.157 69.2531C100.099 69.2531 100.04 69.2603 99.9822 69.2749C99.6916 69.3766 99.5898 69.6019 99.35 69.7327C99.1175 69.8998 98.885 70.0597 98.9867 70.3285C99.1538 70.5029 99.3064 70.6919 99.5317 70.8227C99.3137 70.8953 99.2846 71.0625 99.1538 71.1787L99.3791 71.3459C99.023 71.3313 98.667 71.3095 98.3109 71.295C98.2818 71.2296 98.2455 71.1715 98.1728 71.1206C98.2019 71.1206 98.231 71.1206 98.2382 71.1206C98.9867 70.7718 98.3981 70.532 98.1438 70.3649C98.2092 70.3794 98.3182 70.3576 98.4562 70.2849C98.4708 70.2486 98.478 70.205 98.4708 70.1687C98.5289 69.8998 98.885 69.7981 99.103 69.6164L99.2628 69.3766H99.2919C99.5026 69.333 99.7933 69.3548 99.7279 69.115C99.3355 68.9987 99.1829 68.4465 98.5362 68.7807L98.478 69.1731H98.3182C98.3182 69.5001 97.9621 69.4347 97.6787 69.4565C97.5915 69.6818 97.8604 70.1687 97.0392 69.8562C96.8721 69.9943 96.6468 69.9652 96.4216 69.9361C96.2326 69.9216 96.0655 69.9725 95.9056 70.0451C95.6876 70.1251 95.9492 70.4303 95.5278 70.4085C95.3534 70.6047 95.3461 70.859 95.1063 71.0334C95.0264 71.1061 94.9682 71.186 94.9392 71.2805C94.8883 71.2805 94.8374 71.2805 94.7866 71.2805L94.8229 71.2514C94.7648 71.1642 94.8229 71.0261 94.6049 70.9898C94.4232 70.968 94.2561 70.9898 94.089 71.0334C93.7838 71.1206 93.5004 71.0843 93.2242 70.9825C93.137 70.968 93.0498 70.968 92.9626 70.9825C92.1996 71.1351 92.6792 70.6628 92.4903 70.5247C92.5702 70.3939 92.127 70.2341 92.5484 70.1178C92.8028 70.1759 93.0571 70.205 93.3332 70.1396L93.3768 70.1178C93.6239 70.2341 93.8346 70.3721 94.0672 70.4957C94.2198 70.5756 94.3869 70.6337 94.5831 70.641C94.8229 70.6337 95.0264 70.5611 95.2298 70.4884C95.7676 70.3213 95.7167 70.0233 95.615 69.7109C95.5932 69.6673 95.5786 69.6237 95.5641 69.5801C95.0918 69.6091 94.961 69.2313 94.554 69.1877C94.2125 69.4202 93.8855 69.3039 93.5512 69.2022C93.5658 69.1877 93.5876 69.1804 93.6021 69.1659C93.6675 69.0569 93.682 68.9479 93.653 68.8316C93.5803 68.6572 93.4858 68.4973 93.246 68.3956L92.89 68.5409C92.6138 68.7008 92.3232 68.7226 92.0398 68.6863C92.0616 68.6572 92.0543 68.6209 92.0325 68.57L91.1678 68.3302C90.6155 68.1994 90.1868 68.4247 89.7435 68.6063C89.649 68.6645 89.6272 68.7299 89.649 68.788C89.4964 68.8461 89.3947 68.9261 89.3511 69.0569L89.3293 69.1804C89.1622 69.2095 88.9878 69.2313 88.9151 69.3693C88.8788 69.442 88.886 69.5074 88.9369 69.5655C88.9514 69.5728 88.9587 69.5801 88.9732 69.5873C88.9587 69.7181 89.0241 69.8562 88.8061 69.9507C88.6462 70.0669 88.639 70.1977 88.6971 70.3358C88.748 70.4085 88.8061 70.4739 88.8715 70.5393L88.748 70.5102C88.6898 70.4957 88.639 70.5102 88.5881 70.4957C88.3192 70.3213 88.1012 70.1323 88.0286 69.8635C87.8614 69.6818 87.5344 69.7545 87.2946 69.6818L86.9022 69.6963C86.6116 69.7981 86.3427 69.7617 86.0956 69.6745C86.1102 69.5728 85.7541 69.5655 86.0012 69.4057L85.8122 69.2749L85.4126 69.3257L84.7513 69.6309C84.6423 69.6309 84.5333 69.6382 84.4316 69.6309C84.3153 69.6309 84.2063 69.6309 84.09 69.6455L83.9156 69.6673L83.763 69.6091L83.1526 69.5655C82.753 69.6963 82.2661 69.6818 81.9173 69.9143H81.8083C81.8083 69.8053 81.8083 69.6891 81.801 69.5801C81.7865 69.4929 81.7429 69.4202 81.6194 69.3911C81.554 69.3911 81.4886 69.3911 81.4232 69.3911C81.009 69.3693 80.8491 69.6019 80.6602 69.7981C80.384 70.3213 80.246 69.8271 80.0425 69.8199C80.0207 69.8562 80.0062 69.8853 79.9989 69.9216C79.9553 69.8489 79.8826 69.7835 79.7809 69.7254C79.4612 69.9797 79.7373 70.1905 79.73 70.423L79.8245 70.4085L79.919 70.3867C79.9698 70.3285 79.9989 70.2704 80.0207 70.2195C80.0498 70.2631 80.0934 70.2995 80.1442 70.3431L80.2823 70.3285C80.1878 70.4811 80.2096 70.6192 80.3404 70.7427C80.1951 70.7791 80.057 70.8154 80.0134 70.9462C79.7882 71.0334 79.6283 70.9462 79.4394 70.9171L79.483 70.5611L79.5702 70.4739C79.3594 70.1178 78.7708 70.4521 78.4584 70.2849C78.1895 70.3939 78.0878 70.314 78.0587 70.1469C77.9933 70.0597 77.8843 70.0306 77.7462 70.0524C77.4628 70.1396 77.3102 70.3358 77.114 70.4811C77.0123 70.5683 76.9251 70.6628 76.8742 70.7718C76.8306 70.8735 76.8379 70.9535 76.896 71.0116L76.5254 71.1133L76.54 71.3822L76.6054 71.3531L76.8452 71.5784L76.7943 71.5929C76.7289 71.6801 76.7216 71.7528 76.7434 71.8255C76.6054 71.8255 76.4746 71.8255 76.3365 71.8327C76.322 71.8109 76.3002 71.7891 76.2711 71.7746C76.4019 71.6656 76.4746 71.5493 76.431 71.4185C76.1912 71.2514 75.9223 71.1206 75.5372 71.186C75.559 71.1569 75.5808 71.1279 75.5953 71.0988C75.6462 70.968 75.6752 70.8445 75.668 70.7137C75.6316 70.5829 75.5299 70.5029 75.3192 70.5175L74.7378 70.75C74.2437 70.7863 73.7859 70.8808 73.5606 71.2877C73.5388 71.3604 73.5606 71.4185 73.6042 71.4767C73.3717 71.6293 73.1682 71.8618 72.8412 71.6801L72.2962 72.0798C72.2454 72.1016 72.2018 72.1089 72.1509 72.1161L71.8094 71.9345C71.0827 72.1452 70.3706 71.7891 69.6439 72.2106L69.5131 72.4577C69.4477 72.4141 69.375 72.3705 69.2878 72.3414C68.721 72.1815 68.147 72.4359 67.5729 72.5594C67.3404 72.6103 67.0933 72.6248 66.868 72.7338C66.7372 73.0971 66.4175 72.8283 66.2068 72.93C65.8362 73.0535 65.4874 73.2425 65.1168 73.3587C65.0368 73.4023 64.9714 73.4459 64.906 73.5041C64.7752 73.6421 64.6226 73.693 64.4628 73.7148C64.5282 73.6349 64.5354 73.5477 64.4991 73.4532C64.3102 73.2788 64.0486 73.3006 63.7506 73.4169C63.4454 73.4096 63.2274 73.5913 62.9804 73.7003C62.944 73.8747 62.6752 74.0418 62.7042 74.2235C62.5734 74.2961 62.4354 74.3543 62.2973 74.4124C62.29 74.2525 62.1011 74.1944 61.825 74.1871L61.3526 74.6449L61.28 74.7903H61.2654C60.844 74.9429 60.437 75.3934 59.9792 75.0519C59.892 74.9865 59.8048 74.9356 59.6668 74.9283C59.2526 75.0083 59.2962 75.4951 58.8093 75.5097C58.4968 75.6187 58.2062 75.6114 57.9155 75.5896C57.5304 75.8003 57.167 76.1273 56.7456 75.8512C56.4622 75.9675 56.2732 76.2145 55.939 76.2654C55.5538 76.4543 55.4666 76.7668 55.2123 77.0066C55.1978 77.1229 55.176 77.2464 55.2414 77.3118L55.1324 77.3481C55.096 77.3481 55.0597 77.3699 55.0234 77.3845L54.9144 77.4208C54.7472 77.4789 54.5801 77.5371 54.4202 77.6097H54.333C54.2531 77.4499 54.1514 77.3118 53.8171 77.4135C53.461 77.7405 53.0105 77.9513 52.5382 78.1257V78.162H52.5164L51.6226 78.5762C51.4845 78.5617 51.3392 78.5907 51.1866 78.6489C51.0412 78.707 50.8814 78.8015 50.7578 78.6997L50.5108 78.6634C50.4599 78.7143 50.2855 78.8305 50.1474 78.9323C50.0021 79.034 49.864 79.1285 49.7114 79.2157C49.4135 79.3901 49.0865 79.5209 48.6069 79.5499L48.2726 79.7025C47.9892 80.1821 47.6986 80.6617 47.4152 81.1413L47.03 81.8099C46.9501 81.9479 46.8774 82.0933 46.812 82.2386C46.7757 82.2822 46.7466 82.3403 46.7248 82.3912L47.0736 82.8563C47.0518 82.9071 47.03 82.9507 47.001 83.0016L46.9719 83.0597C46.5286 82.6819 46.3833 82.7545 46.049 83.4521C46.0127 83.8227 46.1217 84.2151 45.6784 84.5058C45.4096 84.6293 45.4096 84.9055 45.3587 85.1525C45.3442 85.3633 45.3514 85.5595 45.4168 85.7193C45.475 85.8283 45.5404 85.8719 45.6276 85.8574V85.8719C45.4386 86.0027 45.366 86.1771 45.3805 86.3951C45.3369 86.3443 45.2715 86.3443 45.1843 86.3951C45.1116 86.446 45.0535 86.5041 44.9881 86.5695C44.7919 86.8093 44.5448 86.9256 44.3632 87.1799C44.2905 87.3035 44.2542 87.4343 44.2905 87.5505L44.3341 87.8049C44.414 88.0665 44.2832 88.2845 44.1306 88.517C43.8763 89.0765 43.8545 89.6724 43.6583 90.2392L43.513 90.6316C43.3604 90.9659 43.2368 91.2711 43.542 91.2783C43.4185 91.5981 43.2514 91.8815 43.0988 92.1794C42.9244 92.5064 42.7572 92.8189 42.6337 93.1749C42.3212 94.0542 41.8053 94.9189 42.0451 95.8709C42.0669 95.9653 41.9579 96.1179 41.907 96.2487C41.4129 97.7965 41.0496 99.3879 41.0496 100.994C41.0641 101.059 41.0568 101.117 41.035 101.183C41.0496 101.953 40.7371 102.731 40.8461 103.501C40.8824 103.995 40.7516 104.533 40.9042 104.991C40.897 105.158 40.8388 105.347 40.9914 105.434L40.817 105.775C40.4101 106.357 40.4101 106.923 40.7516 107.461C40.9914 108.34 40.5118 109.387 40.9188 110.23C41.0641 110.324 40.9551 111.051 41.333 110.557C41.6309 110.455 41.7617 110.034 41.7762 109.743C41.8053 108.936 42.096 108.261 42.3285 107.563C41.6309 113.899 41.8271 120.33 42.9244 126.609C42.9026 126.565 42.888 126.522 42.8517 126.478C42.7136 127.001 42.9607 127.742 43.077 128.396C43.1206 128.418 43.1642 128.418 43.2005 128.382C43.215 128.324 43.215 128.258 43.2005 128.193C43.3604 128.978 43.5348 129.763 43.7164 130.54C43.5202 130.002 43.3676 129.254 43.0988 129.181L43.0406 128.963L42.779 129.014C42.5901 129.247 42.4012 129.494 42.4302 130.264C42.4302 130.431 42.4302 130.598 42.4448 130.787C42.4811 131.31 42.5029 131.805 42.4448 132.175C42.3794 132.575 42.1178 132.531 42.1468 133.149C41.8562 132.873 41.7617 133.171 41.8053 133.839L41.8925 134.137C42.096 134.123 42.314 134.21 42.5974 134.573L42.7427 134.951C43.0697 135.54 43.3531 135.678 43.6656 136.165C43.9998 136.601 44.3414 137.051 44.5012 136.717C44.523 136.266 44.5812 135.859 44.5158 135.307C44.7556 135.765 44.93 135.75 45.1407 135.99L45.1116 135.416C45.3732 136.215 45.6276 137.022 45.9255 137.814C45.8892 137.901 45.8674 138.01 45.8892 138.185C45.8674 138.127 45.8383 138.054 45.831 138.039C44.9227 136.521 45.148 137.938 45.2279 138.57C45.177 138.417 45.0535 138.199 44.8936 137.923C44.8428 137.901 44.8064 137.909 44.7774 137.938C44.4867 137.923 44.1088 137.182 43.7673 136.768L43.4112 136.506L43.3894 136.441C43.186 135.997 42.968 135.343 42.7936 135.583C43.0043 136.499 42.6264 137.073 43.4476 138.359L43.8545 138.33C43.8981 138.446 43.9344 138.57 43.9926 138.679C44.2832 138.548 44.5448 139.355 44.8137 139.958C45.0971 140.052 45.2933 139.26 45.7511 141.179C46.0272 141.491 46.2016 141.985 46.4124 142.472C46.594 142.886 46.7975 143.228 47.0228 143.526C47.3062 143.954 47.3352 143.279 47.7276 144.187C48.0837 144.478 48.3162 144.39 48.7232 144.826C48.8758 144.957 49.0211 145.059 49.1301 145.066V145.059C49.1882 145.168 49.2464 145.27 49.3045 145.379L49.2391 145.313C49.2246 145.48 49.0429 145.422 49.2391 145.873C49.4135 146.251 49.6242 146.599 49.8495 146.934C50.2637 147.537 50.5253 148.155 50.7724 148.743C50.8596 148.925 50.9613 149.099 51.0776 149.274C52.124 150.756 51.1212 149.978 51.2302 150.429C51.0122 150.32 51.4046 151.301 50.7869 150.48C50.5398 149.942 50.2564 149.404 49.8713 148.881C49.8422 148.852 49.8204 148.823 49.7986 148.801C49.617 148.256 49.5298 147.74 49.3844 147.203C49.2827 146.854 49.1592 146.483 48.9484 146.069C48.6796 145.575 48.3671 145.182 48.0982 144.776C47.4079 143.686 47.1899 143.925 47.0082 144.274C46.9937 144.34 46.9646 144.39 46.9356 144.441C47.4224 145.444 47.2262 145.866 47.6477 146.745C48.2436 147.355 48.4979 148.089 48.7595 148.83C48.7304 148.801 48.7014 148.765 48.6723 148.743C48.4979 148.649 48.3816 148.67 48.3162 148.787C48.2436 149.005 48.1782 149.288 48.3816 149.811L48.9412 150.48C49.4208 150.981 49.7841 151.555 50.1038 152.158C50.0602 152.129 50.0239 152.158 50.0094 152.231C50.2637 152.863 50.5907 153.445 50.8814 154.062C51.4772 155.21 52.2039 155.995 53.0105 156.736C53.1994 156.896 53.2866 156.911 53.3012 156.831C53.5628 157.093 53.788 157.26 53.9624 157.281C54.006 157.274 54.0569 157.274 54.1078 157.274C54.3694 157.594 54.6237 157.921 54.849 157.986C54.9652 158.023 55.0088 157.986 54.9943 157.856L54.958 157.768C55.096 157.739 55.1324 157.543 55.5248 157.928C55.8518 158.183 55.9753 158.132 56.0262 157.972C56.0262 157.841 56.0044 157.696 55.9753 157.543L56.1134 157.79C56.1788 157.906 56.2587 157.994 56.3314 158.095C56.5639 158.669 56.7092 159.164 56.5712 159.418C56.6511 159.81 57.2034 160.384 57.4868 160.857C57.683 161.096 57.8646 161.344 58.0754 161.569C58.6204 162.041 58.9982 162.528 59.3107 163.022C59.2017 163.051 59.7394 163.691 59.209 163.313L59.3834 163.72L60.0519 164.41C60.4879 164.752 60.9602 165.064 61.4108 165.391C61.5924 165.573 61.7741 165.762 61.934 165.943C62.1156 166.14 62.3046 166.336 62.5008 166.525L62.7987 166.808L62.9876 167.099L63.9904 168.116C64.8116 168.69 65.6036 169.511 66.4466 169.933L66.65 170.1C66.5338 170.158 66.4466 170.231 66.3521 170.296C66.3012 170.369 66.3085 170.47 66.4974 170.681C66.621 170.783 66.7372 170.885 66.8462 170.986C67.5729 171.64 68.067 171.757 68.5902 171.946C69.5567 172.091 69.3823 172.541 69.7529 172.854C69.8256 172.868 69.8764 172.861 69.9346 172.861C69.9564 172.97 70.029 173.108 70.1598 173.29C70.9955 173.617 70.6758 173.094 70.8938 172.963L70.7048 172.832L70.5159 172.716C70.3706 172.68 70.2616 172.665 70.1744 172.658C70.1598 172.592 70.1235 172.505 70.0508 172.403L69.782 172.214C70.1017 172.265 70.1889 172.156 70.0581 171.902C70.356 172.091 70.654 172.273 70.8502 172.265C71.337 172.541 71.5696 172.832 71.8893 173.116L71.4824 173.261L71.2353 173.181C71.308 173.697 72.6959 174.358 73.1755 174.867C73.7932 175.165 73.924 175.354 73.815 175.484C73.8586 175.623 74.0475 175.782 74.3382 175.971C74.9776 176.306 75.4282 176.415 75.9732 176.56C76.2566 176.633 76.5109 176.676 76.7144 176.676C76.9033 176.669 76.9542 176.604 76.8815 176.495H76.896L77.7244 176.901L77.9352 176.705L77.7826 176.647L77.4992 176.204L77.6154 176.262C77.8189 176.284 77.9061 176.247 77.9206 176.175C78.1822 176.349 78.4584 176.516 78.7418 176.676C78.7418 176.705 78.7708 176.749 78.8144 176.792C78.4511 176.698 78.2113 176.683 78.175 176.822C78.502 177.214 78.9089 177.679 79.7736 178.064C79.701 178.057 79.6283 178.05 79.5702 178.05C79.3522 178.079 79.1778 178.137 79.076 178.224C79.0397 178.355 79.1778 178.522 79.6283 178.754L81.0453 179.27C81.5758 179.547 82.099 179.801 82.6004 179.975C83.1018 180.128 83.5741 180.215 83.9956 180.186C84.0973 180.157 84.1191 180.092 84.061 180.004C84.6859 180.135 85.3108 180.171 85.8631 180.651C86.3645 180.753 86.8732 180.811 87.3818 180.876C87.4981 180.905 87.6216 180.942 87.7379 180.985L88.3265 181.436C90.0705 181.974 91.364 182.787 93.3187 183.042L93.8056 182.947C93.9073 183.035 94.0381 183.114 94.2125 183.194C95.3606 183.689 96.8648 183.921 98.26 184.146C98.8341 184.234 99.4009 184.357 99.9968 184.393C100.571 184.146 101.094 184.575 101.646 184.59C102.598 184.64 103.528 184.626 104.48 184.691C104.691 184.691 104.887 184.677 105.069 184.655C105.461 184.597 105.854 184.582 106.246 184.619C106.043 184.677 105.948 184.749 105.977 184.851C106.282 185.076 106.907 185.149 107.685 185.135C108.375 185.236 109.015 185.164 109.669 185.106C109.879 184.938 110.621 184.837 110.672 184.655C111.028 184.611 111.384 184.582 111.747 184.561C111.653 184.72 112.052 184.815 112.684 184.88C113.157 184.779 113.622 184.633 114.087 184.495L114.356 184.357H114.392C115.475 184.234 116.71 183.856 117.531 184.204C117.684 184.27 117.866 184.328 118.178 184.328C119.195 184.241 119.384 183.732 120.532 183.71C121.324 183.587 121.978 183.536 122.625 183.536C123.628 183.253 124.682 182.889 125.474 183.071C126.193 182.875 126.767 182.555 127.545 182.417C128.533 182.133 128.904 181.727 129.601 181.356C129.688 181.218 129.812 181.065 129.688 181.022L129.95 180.942C130.044 180.92 130.132 180.891 130.226 180.862L130.502 180.782L131.716 180.397C131.774 180.389 131.839 180.382 131.912 180.375C132.021 180.52 132.174 180.644 132.966 180.375C133.925 179.808 135.037 179.387 136.163 178.922V178.878L136.221 178.856L138.365 177.839C138.67 177.781 139.004 177.657 139.346 177.497C139.687 177.316 140.058 177.098 140.29 177.134L140.799 177.01C141.577 176.451 142.252 175.848 143.342 175.55L143.764 175.288C145.057 174.525 146.438 173.915 147.644 172.977C147.768 172.905 147.884 172.832 147.993 172.745L148.189 171.982C148.291 171.909 148.393 171.837 148.495 171.771L148.625 171.684C148.691 172.316 149.003 172.251 150.486 171.183C151.06 170.572 151.452 169.911 152.469 169.468C153.014 169.286 153.407 168.843 153.806 168.429C154.112 168.065 154.366 167.724 154.49 167.44C154.555 167.251 154.526 167.171 154.395 167.193L154.431 167.164C154.846 166.946 155.18 166.641 155.449 166.27C155.441 166.358 155.529 166.358 155.696 166.292C155.856 166.212 156.016 166.11 156.19 166.001C156.786 165.609 157.236 165.398 157.81 164.948C158.065 164.723 158.275 164.497 158.384 164.279L158.653 163.821C158.886 163.356 159.329 162.957 159.823 162.557C160.826 161.518 161.567 160.413 162.497 159.36C162.723 159.12 162.919 158.858 163.13 158.604C163.704 157.965 164.198 157.376 163.834 157.369H163.842C164.35 156.751 164.895 156.213 165.404 155.625C165.949 154.978 166.509 154.353 167.039 153.655C167.715 152.791 168.398 151.919 169.001 151.01C169.604 150.102 170.178 149.201 170.483 148.22C170.542 148.031 170.818 147.697 170.992 147.435C173.085 144.26 174.778 140.859 176.093 137.414C176.13 137.284 176.188 137.146 176.26 137.007C176.805 135.322 177.779 133.65 178.164 131.943C178.462 130.845 178.985 129.675 179.116 128.636C179.232 128.258 179.414 127.837 179.305 127.648L179.705 126.892C180.519 125.606 180.817 124.334 180.773 123.106C181.056 121.108 182.081 118.761 182.066 116.799C181.972 116.566 182.408 114.91 181.798 116.014C181.449 116.225 181.122 117.184 180.962 117.853C180.533 119.713 179.85 121.253 179.196 122.845C179.436 122.06 179.683 121.282 179.901 120.49C182.037 112.795 183.345 104.787 183.498 96.8083C183.513 96.8446 183.513 96.8809 183.534 96.91C183.767 96.4377 183.658 95.6965 183.687 95.057C183.643 95.0279 183.607 95.0207 183.563 95.0497C183.513 95.166 183.498 95.3041 183.527 95.4857C183.527 95.5003 183.527 95.5148 183.527 95.5293C183.527 94.6937 183.527 93.858 183.498 93.0223C183.563 93.5528 183.571 94.2068 183.811 94.3231L183.832 94.5411H184.101C184.334 94.3521 184.559 94.1559 184.697 93.4293C184.733 93.2694 184.762 93.1095 184.792 92.9351C184.857 92.4337 184.937 91.9614 185.068 91.6271C185.22 91.2638 185.467 91.3583 185.576 90.7697C185.802 91.0821 185.961 90.8205 186.049 90.1956L186.027 89.8977C185.823 89.8686 185.627 89.7451 185.438 89.3454L185.482 89.2945ZM182.83 82.7763C182.83 82.6601 182.83 82.5511 182.83 82.4493C182.888 82.7909 182.939 83.1324 183.011 83.4594C183.113 83.7283 183.156 83.939 183.178 84.1207C183.077 84.048 182.968 83.9317 182.859 83.7428L182.771 83.3722C182.706 83.1905 182.633 83.0525 182.561 82.9289C182.51 82.6165 182.466 82.304 182.408 81.9915C182.539 82.4203 182.641 82.958 182.83 82.7691V82.7763ZM179.073 69.8271C179.073 69.8271 179.102 69.8344 179.116 69.8417C179.102 69.9289 179.087 70.0233 179.087 70.1323L179 69.7327C179 69.7327 179.051 69.7981 179.08 69.8271H179.073ZM168.449 52.0383C168.827 52.3435 169.154 52.4889 169.561 52.8885C170.004 53.3609 169.909 53.5062 169.96 53.746L169.931 53.7751L169.008 52.9975C168.986 52.9103 168.921 52.7941 168.79 52.6124C168.674 52.4961 168.572 52.4089 168.456 52.3072C168.325 52.1401 168.202 51.9729 168.049 51.8203L167.78 51.5442L167.693 51.3989C167.708 51.3553 167.715 51.2971 167.708 51.2317C167.678 51.1591 167.642 51.0937 167.599 51.0283C167.875 51.3698 168.173 51.6895 168.434 52.0383H168.449ZM155.325 39.9902C155.689 40.1646 156.023 40.3899 156.372 40.5933C155.986 40.4407 155.63 40.2009 155.26 39.9975C155.289 39.9975 155.311 39.9975 155.325 39.9829V39.9902ZM145.014 36.2697C145.014 36.2697 144.948 36.2043 144.919 36.1679C145.777 36.3423 146.627 36.5458 147.012 36.9745C147.063 37.069 147.186 37.1053 147.361 37.1053C147.114 37.1853 147.216 37.3306 147.615 37.5341C147.593 37.5341 147.593 37.5559 147.579 37.5631C147.252 37.4832 146.925 37.4105 146.62 37.3742C146.474 37.3742 146.38 37.3742 146.322 37.3887C146.205 37.2943 146.038 37.1925 145.82 37.1126L145.573 37.0327C145.595 36.8801 145.406 36.7275 144.752 36.5531C144.999 36.5167 145.05 36.4077 145.021 36.2697H145.014ZM136.643 35.4776C136.97 35.6229 137.304 35.6229 137.645 35.6229C137.587 35.6375 137.551 35.6593 137.515 35.6883C137.159 35.6447 136.868 35.5648 136.599 35.4776H136.643ZM47.8948 66.3319C47.8948 66.3319 47.9529 66.3391 47.9965 66.3319L47.5532 66.7606C47.5532 66.7606 47.4951 66.7461 47.466 66.7315L47.8948 66.3246V66.3319ZM90.2522 58.0479H90.2376C90.2522 58.0479 90.2667 58.0479 90.274 58.0479C90.2667 58.0479 90.2594 58.0479 90.2522 58.0551V58.0479ZM92.81 58.1714C92.701 58.1351 92.5702 58.1205 92.4104 58.1496C92.265 58.2295 92.1633 58.3894 91.9526 58.3531C91.8363 58.3022 91.7346 58.2223 91.611 58.1932L91.4584 58.1569L91.8145 58.0697C91.8145 58.0333 91.8 57.997 91.7927 57.9607C91.7927 57.9025 91.7782 57.8589 91.7491 57.8153C91.9889 57.779 92.2287 57.7427 92.4685 57.7063L92.4467 57.7281C92.4176 57.9679 92.6792 58.0261 92.81 58.1641V58.1714ZM94.5177 57.8008C94.4232 57.8735 94.3506 57.888 94.2852 57.888C94.307 57.7935 94.3433 57.6991 94.4014 57.6119C94.445 57.5973 94.4886 57.5828 94.5322 57.5683C94.5831 57.5319 94.6122 57.4811 94.6485 57.4375C94.772 57.4229 94.8956 57.4084 95.0191 57.3939C94.8665 57.452 94.6776 57.4883 94.7575 57.6991C94.8011 57.7063 94.8374 57.7209 94.8738 57.7427C94.7502 57.7572 94.6267 57.7645 94.5177 57.8008ZM99.5172 57.2195V57.2558C99.4808 57.2122 99.4445 57.1613 99.4082 57.125L99.5535 57.1831C99.5535 57.1831 99.5244 57.2049 99.5172 57.2195ZM106.827 57.7935C106.653 57.8589 106.537 57.997 106.333 58.0261C106.108 58.0261 106.101 57.8589 106.035 57.7427V57.6991L106.457 57.5465C106.479 57.5901 106.53 57.6191 106.602 57.6482C106.66 57.6482 106.711 57.6264 106.762 57.6119C106.835 57.6337 106.907 57.6482 106.98 57.6555L107.118 57.67L107.169 57.7136C107.169 57.7572 107.184 57.8008 107.198 57.8444C107.22 57.8735 107.242 57.8953 107.271 57.9171L106.827 57.779V57.7935ZM112.539 60.3296L112.168 60.2061C112.307 60.1843 112.437 60.2424 112.561 60.3005L112.539 60.3369V60.3296ZM115.998 61.0926C115.998 61.0926 116.013 61.1507 116.02 61.1798C115.736 61.1435 115.468 61.0926 115.373 60.7656C115.366 60.6857 115.322 60.6784 115.264 60.7147C115.366 60.5912 115.344 60.4677 115.22 60.3587C115.228 60.3514 115.228 60.3369 115.235 60.3223C115.344 60.3296 115.46 60.3369 115.569 60.3078C115.62 60.286 115.656 60.2569 115.678 60.2351C115.707 60.3078 115.758 60.3659 115.831 60.4095L115.911 60.4459C115.882 60.5912 115.933 60.7147 116.143 60.7801C116.049 60.8528 116.013 60.9691 116.005 61.0999L115.998 61.0926ZM118.563 60.9836C118.607 60.9981 118.629 61.0345 118.665 61.0563C118.614 61.049 118.556 61.049 118.505 61.0563C118.527 61.0417 118.549 61.0199 118.563 60.9909V60.9836ZM118.825 61.1653C118.825 61.1653 118.781 61.1362 118.767 61.1217C118.788 61.1435 118.825 61.1507 118.839 61.1725H118.825V61.1653ZM146.547 78.5617L146.438 78.3873C146.438 78.3873 146.474 78.3509 146.482 78.3291L146.612 78.5108C146.612 78.5108 146.576 78.5471 146.554 78.5689L146.547 78.5617ZM152.557 91.5036C152.31 91.5036 152.295 91.787 152.171 91.9396C152.193 91.8161 152.193 91.678 152.142 91.5109C152.041 91.3655 151.866 91.2783 151.874 91.0458C151.903 90.915 151.968 90.806 151.975 90.6607V90.4935L152.128 90.8641C152.164 90.8569 152.201 90.8423 152.237 90.8278C152.288 90.8278 152.331 90.7987 152.368 90.7624C152.44 91.0167 152.52 91.2638 152.593 91.5181L152.564 91.4963L152.557 91.5036ZM152.905 93.9743C152.905 94.0179 152.891 94.0615 152.876 94.1051C152.847 93.9743 152.818 93.8435 152.775 93.7272C152.695 93.64 152.658 93.5601 152.658 93.4874C152.753 93.5019 152.854 93.531 152.949 93.5819C152.964 93.6255 152.985 93.6763 153.007 93.7199C153.051 93.7708 153.102 93.7853 153.145 93.8217C153.174 93.9525 153.211 94.0833 153.24 94.2068C153.167 94.0542 153.109 93.8653 152.905 93.967V93.9743ZM153.952 98.9156L153.901 99.0755C153.901 99.0755 153.879 99.0464 153.857 99.0391H153.821C153.865 98.9955 153.908 98.9592 153.945 98.9156H153.952ZM153.668 106.088H153.712L153.879 106.538C153.843 106.567 153.806 106.618 153.785 106.698C153.785 106.756 153.814 106.807 153.821 106.865C153.806 106.945 153.792 107.025 153.785 107.105V107.25L153.734 107.309C153.69 107.316 153.647 107.33 153.603 107.345C153.574 107.374 153.552 107.396 153.53 107.425L153.654 106.938C153.581 106.756 153.436 106.633 153.407 106.415C153.392 106.175 153.567 106.16 153.683 106.081L153.668 106.088ZM151.343 112.78C151.372 112.933 151.321 113.078 151.263 113.216C151.249 113.209 151.241 113.195 151.227 113.195L151.336 112.78H151.343ZM150.813 116.247C150.892 116.232 150.9 116.188 150.863 116.123C150.994 116.225 151.111 116.196 151.22 116.065C151.227 116.072 151.241 116.072 151.256 116.079C151.249 116.203 151.249 116.319 151.278 116.436C151.299 116.494 151.328 116.53 151.358 116.552C151.292 116.588 151.234 116.646 151.19 116.719L151.161 116.806C151.016 116.784 150.893 116.835 150.834 117.068C150.754 116.966 150.645 116.937 150.515 116.93C150.486 116.93 150.457 116.944 150.435 116.951C150.464 116.646 150.507 116.348 150.827 116.239L150.813 116.247ZM150.631 119.742C150.616 119.793 150.58 119.815 150.565 119.858C150.573 119.8 150.565 119.742 150.565 119.684C150.58 119.706 150.609 119.727 150.631 119.749V119.742ZM150.449 120.033C150.449 120.033 150.478 119.989 150.493 119.967C150.471 119.989 150.464 120.025 150.442 120.054V120.04L150.449 120.033ZM134.31 151.824C134.31 151.824 134.354 151.846 134.383 151.853L134.223 152.028C134.223 152.028 134.179 151.999 134.15 151.984L134.317 151.831L134.31 151.824ZM100.433 165.863C100.862 165.922 101.363 165.951 102.002 165.929C102.62 165.849 103.114 165.689 103.928 165.696C104.371 165.733 104.72 165.791 105.214 165.791C105.41 165.791 105.614 165.791 105.81 165.783L104.335 165.958C104.328 165.994 104.335 166.031 104.379 166.067C104.35 166.132 104.379 166.183 104.488 166.219C103.514 166.299 102.533 166.343 101.552 166.365L101.646 166.343C101.893 166.103 100.862 166.031 100.433 165.871V165.863ZM92.4176 165.34C92.2578 165.304 92.1197 165.253 91.9816 165.195C92.4685 165.289 92.9554 165.384 93.4204 165.435C93.8201 165.435 94.1253 165.471 94.3796 165.522C94.2416 165.595 94.0454 165.66 93.7474 165.689C93.5658 165.667 93.3841 165.653 93.2024 165.631C92.9481 165.624 92.7519 165.631 92.563 165.645C92.1197 165.565 91.6692 165.471 91.2259 165.377C91.8508 165.471 92.5848 165.587 92.4104 165.333L92.4176 165.34ZM74.9122 157.638C74.9122 157.638 74.9486 157.638 74.9704 157.638C75.0285 157.739 75.0866 157.856 75.1738 157.972C75.0285 157.841 74.8977 157.703 74.7596 157.565C74.8105 157.587 74.8686 157.616 74.9122 157.638ZM60.873 134.508C61.1419 135.372 60.9966 135.474 60.982 135.801L60.9457 135.823L60.3062 134.261C60.3062 134.144 60.2917 133.955 60.2336 133.65C60.1609 133.432 60.0955 133.251 60.0301 133.047C59.9647 132.756 59.9066 132.466 59.8412 132.168L59.7176 131.637V131.405C59.7394 131.361 59.7758 131.303 59.7976 131.223C59.7976 131.121 59.7976 131.012 59.7976 130.911L60.1173 132.72C60.3571 133.36 60.6187 133.767 60.873 134.515V134.508ZM59.5214 109.91C59.4778 109.351 59.5069 108.784 59.5505 108.21C59.565 108.239 59.5723 108.268 59.5868 108.282C59.565 108.827 59.5432 109.365 59.5214 109.903V109.91ZM61.3381 97.7602C61.2364 97.8038 61.1637 97.9419 61.1274 98.1308C61.1128 97.8401 60.9457 97.9273 60.6332 98.3633C60.6332 98.3415 60.6187 98.3343 60.6114 98.3197C60.7931 97.9564 60.9166 97.564 61.0838 97.2297C61.1492 97.0626 61.1782 96.9536 61.1782 96.8882C61.3236 96.7719 61.4762 96.6121 61.6506 96.3795C61.7087 96.2923 61.7668 96.2051 61.8395 96.1252C61.9703 96.1979 62.2246 96.0525 62.726 95.4203C62.6316 95.6965 62.7115 95.7909 62.8496 95.8127C62.8932 95.8127 62.944 95.7764 62.9876 95.7546C62.3627 96.5539 61.8758 97.4041 61.3236 97.7457L61.3381 97.7602ZM70.8429 90.0939C70.4142 90.0939 70.0072 90.2029 69.6366 90.3845C69.6948 90.3409 69.7311 90.2973 69.7529 90.261C70.1816 90.1447 70.5595 90.1084 70.8938 90.0866L70.8429 90.1011V90.0939ZM130.262 87.0346C130.4 87.2889 130.539 87.536 130.662 87.7976C130.648 87.8194 130.64 87.8703 130.648 87.9284C130.517 87.6595 130.371 87.3979 130.219 87.1363C130.233 87.1145 130.241 87.0709 130.255 87.0346H130.262ZM99.6625 70.8663C99.7933 70.9244 99.9459 70.968 100.142 70.9753C100.338 70.9244 100.505 70.7936 100.753 70.8735C100.883 70.9462 100.985 71.0479 101.13 71.1133L101.312 71.186L100.854 71.1715C100.854 71.2078 100.854 71.2441 100.854 71.2877C100.84 71.3459 100.847 71.404 100.869 71.4476C100.571 71.4258 100.266 71.4113 99.9677 71.3967L100.004 71.3749C100.091 71.1424 99.786 71.0334 99.6625 70.8735V70.8663ZM97.17 71.0116C97.1192 70.9971 97.0756 70.9753 97.032 70.9535C97.1846 70.9535 97.3372 70.9535 97.4825 70.9462C97.606 70.8881 97.7005 70.8808 97.7804 70.8953C97.7368 70.9825 97.6787 71.0697 97.5915 71.1497C97.5334 71.1497 97.4752 71.1642 97.4244 71.1787C97.3517 71.2078 97.3081 71.2587 97.2572 71.3023C97.0974 71.3023 96.9448 71.295 96.7849 71.295C96.9811 71.2514 97.2427 71.2514 97.1773 71.0189L97.17 71.0116ZM91.2404 71.2877L91.255 71.2514C91.2913 71.295 91.3349 71.3386 91.3785 71.3822L91.1968 71.3313C91.1968 71.3313 91.2332 71.3095 91.2477 71.2877H91.2404ZM82.1208 71.8545C82.317 71.7455 82.4332 71.5711 82.673 71.4985C82.9492 71.4331 82.9928 71.6075 83.109 71.7019V71.7383L82.6294 71.9853C82.5858 71.9563 82.5277 71.9272 82.426 71.9272C82.3533 71.949 82.3024 71.9781 82.237 72.0071C82.1426 72.0071 82.0481 72.0071 81.9609 72.0217L81.7938 72.0435L81.7138 72.0144C81.6993 71.9781 81.6775 71.9345 81.6412 71.8981C81.6048 71.8763 81.5685 71.8618 81.5322 71.8473H82.1135L82.1208 71.8545ZM74.2437 71.513L74.7524 71.4621C74.5925 71.5421 74.4108 71.5493 74.2292 71.5566C74.2292 71.5421 74.2437 71.5275 74.2437 71.513ZM70.6176 72.5085C70.6685 72.5739 70.7194 72.5594 70.7775 72.494C70.7266 72.6539 70.8138 72.7483 71.01 72.7847C71.01 72.7992 71.01 72.8137 71.01 72.821C70.872 72.8719 70.7412 72.93 70.6249 73.0099C70.574 73.0608 70.545 73.1044 70.5377 73.1335C70.465 73.0899 70.3778 73.0681 70.2761 73.0608L70.1671 73.0753C70.1235 72.93 70 72.8501 69.7166 72.9082C69.7892 72.7919 69.7674 72.6757 69.7093 72.5594C69.6875 72.5376 69.6657 72.5158 69.6439 72.494C70 72.3777 70.3488 72.2687 70.6249 72.5013L70.6176 72.5085ZM66.8317 74.0345C66.8317 74.0345 66.8099 74.0927 66.8026 74.1217C66.7445 74.1363 66.7009 74.1217 66.65 74.1217C66.7154 74.0999 66.7736 74.0636 66.839 74.0273L66.8317 74.0345ZM66.403 74.129C66.4393 74.1435 66.4684 74.129 66.5047 74.129C66.4684 74.129 66.4248 74.1363 66.3884 74.129H66.4102H66.403ZM42.4738 105.012C42.4738 105.012 42.5247 105.005 42.5465 104.991L42.5174 105.259C42.5174 105.259 42.4593 105.259 42.4375 105.267L42.4738 105.012ZM43.215 127.939C43.215 127.939 43.215 127.888 43.215 127.866C43.2296 127.946 43.2514 128.026 43.2659 128.106C43.2514 128.048 43.2441 127.997 43.2223 127.939H43.215ZM44.7483 134.195C44.4649 134.094 44.603 134.827 44.5594 135.176C44.5158 134.864 44.414 134.508 44.2832 134.064C44.0943 133.65 43.8545 133.331 43.76 132.735C43.7382 132.408 43.76 132.146 43.7164 131.783L43.6656 131.347L43.9635 132.386C43.9998 132.386 44.0362 132.364 44.0652 132.335C44.1379 132.342 44.1815 132.291 44.2106 132.182C44.3995 132.88 44.5812 133.578 44.7846 134.268L44.7338 134.195H44.7483ZM46.812 140.59C46.8484 140.706 46.8702 140.815 46.8847 140.917C46.7466 140.583 46.6158 140.248 46.4705 139.936C46.3034 139.689 46.2089 139.485 46.1508 139.304C46.267 139.355 46.4051 139.449 46.5577 139.616L46.7321 139.972C46.8338 140.132 46.9283 140.248 47.0228 140.35C47.1536 140.663 47.2698 140.982 47.4079 141.295C47.1899 140.888 46.9646 140.343 46.812 140.583V140.59ZM53.6427 152.776C53.6427 152.776 53.6136 152.776 53.5991 152.776C53.5991 152.682 53.5846 152.587 53.5628 152.478L53.7444 152.856C53.7444 152.856 53.679 152.798 53.6427 152.776ZM68.0743 168.69C67.631 168.45 67.2532 168.378 66.7881 168.022C66.2649 167.607 66.3376 167.448 66.2358 167.215L66.2576 167.179L67.3113 167.833C67.3476 167.913 67.4348 168.029 67.602 168.181C67.74 168.276 67.8708 168.341 68.0016 168.421C68.1688 168.559 68.3359 168.697 68.5103 168.835L68.83 169.075L68.939 169.206C68.939 169.257 68.939 169.308 68.9536 169.38C68.9972 169.446 69.048 169.511 69.0916 169.569L68.0743 168.676V168.69ZM82.9637 179.379C82.5858 179.212 82.2298 179.016 81.8592 178.834C82.2661 178.958 82.644 179.176 83.0291 179.365C83 179.365 82.9782 179.372 82.9637 179.379ZM93.6893 182.744C93.6893 182.744 93.7547 182.817 93.791 182.846C92.9118 182.657 92.0325 182.46 91.6256 182.054C91.5674 181.966 91.4439 181.93 91.2695 181.937C91.5166 181.85 91.4076 181.705 90.9934 181.523C91.0152 181.516 91.0152 181.501 91.0297 181.494C91.3712 181.567 91.7055 181.625 92.0252 181.654C92.1778 181.654 92.2723 181.647 92.3304 181.625C92.454 181.719 92.6284 181.806 92.8536 181.894L93.108 181.974C93.0934 182.126 93.2896 182.286 93.9582 182.468C93.7111 182.504 93.6602 182.613 93.6966 182.751L93.6893 182.744ZM102.344 183.427C102.002 183.289 101.654 183.318 101.298 183.303C101.356 183.289 101.399 183.267 101.428 183.245C101.799 183.303 102.104 183.347 102.38 183.434H102.337L102.344 183.427ZM177.641 128.535C177.641 128.535 177.583 128.556 177.547 128.585L177.75 127.975C177.75 127.975 177.816 127.96 177.845 127.953L177.641 128.535ZM184.021 90.8133C183.97 91.1257 183.89 91.3728 183.854 91.7216L183.818 92.1431L183.745 91.1039C183.709 91.1039 183.672 91.1039 183.636 91.133C183.571 91.1112 183.52 91.1403 183.476 91.2275C183.44 90.5299 183.396 89.8323 183.338 89.1347L183.382 89.2437C183.629 89.3963 183.672 88.6769 183.796 88.3571C183.774 88.6623 183.767 89.0184 183.803 89.4617C183.898 89.8904 184.058 90.2392 184.036 90.8133H184.021Z" fill="white"/>
<path d="M185.416 97.3484L185.395 98.2422C185.583 98.7218 185.395 99.979 185.714 100.146C185.765 99.5212 185.794 98.889 185.816 98.264V96.8906C185.816 96.8906 185.743 96.8906 185.707 96.9124C185.583 96.8616 185.496 96.9924 185.424 97.3484H185.416Z" fill="white"/>
<path d="M108.092 60.3745L108.085 60.3672V60.3745H108.092Z" fill="white"/>
<path d="M94.9389 58.8281L94.9316 58.8354L94.9389 58.8281Z" fill="white"/>
<path d="M93.8271 57.7026L93.8344 57.6953L93.8271 57.7026Z" fill="white"/>
<path d="M88.9737 58.4375C88.6757 58.2849 88.4141 58.4084 88.1525 58.5465C88.0072 58.6337 87.8764 58.7281 87.8691 58.888C87.9273 59.106 88.1017 59.2441 88.3197 59.3458C88.5813 59.433 88.8501 59.4839 89.1335 59.3676C89.2062 59.324 89.2571 59.2731 89.2934 59.2077L89.446 58.9171C89.2135 58.8081 88.9737 58.7136 88.9809 58.4375H88.9737Z" fill="white"/>
<path d="M89.0609 60.5584L89.6931 60.4567L90.1436 60.3404C90.1436 60.3041 90.1291 60.2678 90.1146 60.2314C90.1146 60.1079 90.0492 60.028 89.9184 59.9844L89.6204 60.0425C89.4969 60.2678 89.0464 60.2242 89.0609 60.5584Z" fill="white"/>
<path d="M91.1459 60.4509C91.3276 60.3491 91.3058 60.1602 91.3857 60.0149L91.0296 59.7969H90.957L90.8843 59.8187L90.7462 59.9785C90.7244 60.2401 91.0296 60.2765 91.1459 60.4436V60.4509Z" fill="white"/>
<path d="M85.9282 60.5021C86.0953 60.5094 86.1898 60.4221 86.2697 60.3131C86.2915 60.255 86.2988 60.1896 86.2915 60.1315C86.2697 60.0733 86.2188 60.037 86.1462 60.0152C85.9572 59.9425 86.1462 59.6882 85.9209 59.6228L85.4268 59.5938L85.4776 59.8626C85.6157 60.0225 85.623 60.2477 85.7828 60.3931C85.8264 60.4367 85.8773 60.4803 85.9354 60.5093L85.9282 60.5021Z" fill="white"/>
<path d="M151.808 94.2807L151.801 94.2734L151.808 94.2807Z" fill="white"/>
<path d="M151.096 108.39L151.103 108.383L151.096 108.39Z" fill="white"/>
<path d="M152.782 92.9688L152.789 92.976L152.797 92.9833L152.782 92.9688Z" fill="white"/>
<path d="M149.214 88.2969L149.418 88.9291L149.607 89.3796C149.643 89.3723 149.679 89.3578 149.708 89.336C149.825 89.3142 149.905 89.2415 149.919 89.1035L149.81 88.8055C149.57 88.7111 149.541 88.246 149.207 88.3041L149.214 88.2969Z" fill="white"/>
<path d="M150.899 88.4543C150.965 88.1927 151.016 87.9311 151.299 87.8948C151.401 87.5605 151.226 87.2989 151.038 87.0373C150.921 86.8992 150.805 86.7757 150.638 86.7902C150.434 86.892 150.333 87.0882 150.275 87.3352C150.238 87.6259 150.238 87.9093 150.398 88.1854C150.449 88.2508 150.507 88.3017 150.58 88.3308L150.899 88.447V88.4543Z" fill="white"/>
<path d="M149.65 90.4478C149.781 90.6222 149.963 90.5786 150.123 90.644L150.283 90.2371L150.268 90.1571L150.239 90.0845L150.057 89.9609C149.796 89.9682 149.803 90.3025 149.658 90.4405L149.65 90.4478Z" fill="white"/>
<path d="M149.148 84.4773C149.025 84.6517 148.807 84.7025 148.698 84.8987C148.661 84.9496 148.64 85.0077 148.625 85.0731C148.654 85.2403 148.763 85.3275 148.894 85.3856C148.959 85.4001 149.017 85.3856 149.076 85.3711C149.126 85.3347 149.155 85.2766 149.155 85.2039C149.185 84.9932 149.482 85.1313 149.49 84.8987L149.395 84.3828L149.148 84.4845V84.4773Z" fill="white"/>
<path d="M118.781 162.471C119.355 162.195 119.842 161.854 119.929 161.643C119.77 161.461 119.195 161.592 118.403 161.745C117.444 161.963 116.507 162.312 115.388 162.74C115.112 162.857 114.886 162.973 114.719 163.089L114.036 163.583C114.886 163.46 115.766 163.322 115.649 163.649C116.725 163.532 117.749 162.966 118.781 162.479V162.471Z" fill="white"/>
<path d="M126.935 157.268C127.487 156.941 128.032 156.606 128.57 156.265L128.439 156.025C128.018 156.105 128.018 155.836 127.516 155.981C127.385 156.01 127.225 156.061 127.037 156.149C126.499 156.476 126.157 156.788 125.874 157.086C125.787 157.209 125.75 157.304 125.779 157.362C125.852 157.391 126.012 157.34 126.244 157.224C126.877 156.933 126.208 157.638 126.935 157.275V157.268Z" fill="white"/>
<path d="M108.274 163.834L108.557 163.791L108.841 163.725C109.044 163.638 109.24 163.558 109.437 163.456C109.64 163.158 108.456 163.318 108.1 163.188C107.358 163.391 107.366 163.58 106.98 163.769C107.409 163.798 107.838 163.82 108.274 163.834Z" fill="white"/>
<path d="M96.1017 165.976L96.0871 165.969L96.0508 165.976H96.1017Z" fill="white"/>
<path d="M116.064 161.249C115.308 161.576 114.458 161.78 113.666 162.049C113.077 162.238 112.503 162.492 111.907 162.616C111.907 162.652 111.929 162.688 111.965 162.717C111.936 162.841 112.132 162.914 112.619 162.834L113.775 162.448C114.327 162.056 116.02 161.664 116.064 161.242V161.249Z" fill="white"/>
<path d="M108.986 71.2228C108.957 71.1647 108.92 71.1066 108.862 71.0557C108.673 70.9758 108.514 71.0048 108.361 71.0775C108.303 71.1211 108.266 71.172 108.252 71.2374C108.252 71.3028 108.296 71.3609 108.368 71.4045C108.557 71.5571 108.216 71.7024 108.441 71.855L109 72.1021L109.08 71.8405C109.008 71.637 109.102 71.4336 108.993 71.2301L108.986 71.2228Z" fill="white"/>
<path d="M103.601 69.4609C103.594 69.4973 103.594 69.5336 103.601 69.5772C103.565 69.6935 103.608 69.7952 103.761 69.8751L104.153 69.9187C104.386 69.7443 104.931 69.9478 105.04 69.6281L104.211 69.5045L103.601 69.4609Z" fill="white"/>
<path d="M105.382 71.8607C105.585 71.8389 105.767 71.8098 105.847 71.6572C105.861 71.4247 105.716 71.2285 105.491 71.0468C105.207 70.8433 104.902 70.7053 104.517 70.7198C104.415 70.7343 104.335 70.7634 104.27 70.8143L103.986 71.0395C104.233 71.2139 104.48 71.3883 104.379 71.6499C104.669 71.897 105.025 71.8607 105.389 71.8534L105.382 71.8607Z" fill="white"/>
<path d="M102.402 69.7305H102.496L102.714 69.6142C102.823 69.3672 102.446 69.2509 102.351 69.0547C102.089 69.1056 102.06 69.2945 101.915 69.4108L102.307 69.716L102.402 69.7305Z" fill="white"/>
<path d="M79.8535 69.7266L79.8608 69.7338H79.8681L79.8535 69.7266Z" fill="white"/>
<path d="M97.1123 69.8745L97.1196 69.8672L97.1123 69.8745Z" fill="white"/>
<path d="M98.3177 71.1406H98.3104L98.2959 71.1479L98.3177 71.1406Z" fill="white"/>
</svg>
