<svg width="938" height="230" viewBox="0 0 938 230" fill="none" xmlns="http://www.w3.org/2000/svg">
<path fill-rule="evenodd" clip-rule="evenodd" d="M7.50405 83.0916L76.3307 202.302C97.652 239.233 150.955 239.233 172.276 202.302L241.103 83.0915C262.424 46.1619 235.773 0 193.13 0H55.477C12.8343 0 -13.8172 46.1621 7.50405 83.0916ZM153.088 191.223C140.295 213.381 108.313 213.381 95.5199 191.223L93.7455 188.15L93.7933 185.322C93.9852 173.967 97.0828 162.852 102.791 153.033L122.717 118.76L145.235 157.492C149.517 164.857 152.343 172.977 153.561 181.409L154.599 188.605L153.088 191.223ZM170.946 160.292L203.489 103.926C196.952 105.44 190.246 106.211 183.498 106.211H141.052L164.39 146.354C166.982 150.811 169.173 155.475 170.946 160.292ZM221.07 73.4743L221.914 72.0126C234.707 49.8549 218.716 22.1577 193.13 22.1577H186.516L179.307 28.4424C173.83 33.2171 169.172 38.8576 165.52 45.1394L142.896 84.0527H183.498C193.072 84.0527 202.533 81.9848 211.233 77.9904L221.07 73.4743ZM154.61 22.1577C151.549 25.869 148.79 29.8296 146.364 34.0024L122.717 74.6758L100.069 35.7204C97.2627 30.894 94.0132 26.3545 90.3691 22.1577H154.61ZM57.101 22.1577H55.477C29.8914 22.1577 13.9004 49.855 26.6932 72.0127L27.603 73.5884L37.4286 78.0666C46.0839 82.0114 55.4848 84.0527 64.9966 84.0527H102.538L80.9132 46.8573C76.7034 39.6166 71.1632 33.2367 64.5842 28.0533L57.101 22.1577ZM45.1361 103.956L76.3233 157.975C78.2118 152.406 80.6569 147.019 83.6349 141.897L104.383 106.211H64.9966C58.2935 106.211 51.6316 105.45 45.1361 103.956Z" fill="white"/>
<path d="M339.796 190.16C331.396 190.16 323.596 188.6 316.396 185.48C309.196 182.24 303.076 177.86 298.036 172.34C292.996 166.82 289.276 160.46 286.876 153.26L304.876 145.7C308.116 153.98 312.856 160.34 319.096 164.78C325.336 169.22 332.536 171.44 340.696 171.44C345.496 171.44 349.696 170.72 353.296 169.28C356.896 167.72 359.656 165.56 361.576 162.8C363.616 160.04 364.636 156.86 364.636 153.26C364.636 148.34 363.256 144.44 360.496 141.56C357.736 138.68 353.656 136.4 348.256 134.72L323.056 126.8C312.976 123.68 305.296 118.94 300.016 112.58C294.736 106.1 292.096 98.54 292.096 89.9C292.096 82.34 293.956 75.74 297.676 70.1C301.396 64.34 306.496 59.84 312.976 56.6C319.576 53.36 327.076 51.74 335.476 51.74C343.516 51.74 350.836 53.18 357.436 56.06C364.036 58.82 369.676 62.66 374.356 67.58C379.156 72.5 382.636 78.2 384.796 84.68L367.156 92.42C364.516 85.34 360.376 79.88 354.736 76.04C349.216 72.2 342.796 70.28 335.476 70.28C331.036 70.28 327.136 71.06 323.776 72.62C320.416 74.06 317.776 76.22 315.856 79.1C314.056 81.86 313.156 85.1 313.156 88.82C313.156 93.14 314.536 96.98 317.296 100.34C320.056 103.7 324.256 106.22 329.896 107.9L353.296 115.28C363.976 118.52 372.016 123.2 377.416 129.32C382.816 135.32 385.516 142.82 385.516 151.82C385.516 159.26 383.536 165.86 379.576 171.62C375.736 177.38 370.396 181.94 363.556 185.3C356.716 188.54 348.796 190.16 339.796 190.16ZM454.359 190.16C444.999 190.16 436.419 187.94 428.619 183.5C420.939 179.06 414.819 173 410.259 165.32C405.699 157.64 403.419 148.94 403.419 139.22C403.419 129.38 405.699 120.68 410.259 113.12C414.819 105.44 420.939 99.44 428.619 95.12C436.299 90.68 444.879 88.46 454.359 88.46C463.959 88.46 472.539 90.68 480.099 95.12C487.779 99.44 493.839 105.44 498.279 113.12C502.839 120.68 505.119 129.38 505.119 139.22C505.119 149.06 502.839 157.82 498.279 165.5C493.719 173.18 487.599 179.24 479.919 183.68C472.239 188 463.719 190.16 454.359 190.16ZM454.359 171.26C460.119 171.26 465.219 169.88 469.659 167.12C474.099 164.36 477.579 160.58 480.099 155.78C482.739 150.86 484.059 145.34 484.059 139.22C484.059 133.1 482.739 127.64 480.099 122.84C477.579 118.04 474.099 114.26 469.659 111.5C465.219 108.74 460.119 107.36 454.359 107.36C448.719 107.36 443.619 108.74 439.059 111.5C434.619 114.26 431.079 118.04 428.439 122.84C425.919 127.64 424.659 133.1 424.659 139.22C424.659 145.34 425.919 150.86 428.439 155.78C431.079 160.58 434.619 164.36 439.059 167.12C443.619 169.88 448.719 171.26 454.359 171.26ZM571.237 190.16C561.517 190.16 552.877 187.94 545.317 183.5C537.877 178.94 531.937 172.82 527.497 165.14C523.177 157.46 521.017 148.76 521.017 139.04C521.017 129.44 523.177 120.8 527.497 113.12C531.817 105.44 537.757 99.44 545.317 95.12C552.877 90.68 561.517 88.46 571.237 88.46C577.837 88.46 584.017 89.66 589.777 92.06C595.537 94.34 600.517 97.52 604.717 101.6C609.037 105.68 612.217 110.42 614.257 115.82L596.437 124.1C594.397 119.06 591.097 115.04 586.537 112.04C582.097 108.92 576.997 107.36 571.237 107.36C565.717 107.36 560.737 108.74 556.297 111.5C551.977 114.14 548.557 117.92 546.037 122.84C543.517 127.64 542.257 133.1 542.257 139.22C542.257 145.34 543.517 150.86 546.037 155.78C548.557 160.58 551.977 164.36 556.297 167.12C560.737 169.88 565.717 171.26 571.237 171.26C577.117 171.26 582.217 169.76 586.537 166.76C590.977 163.64 594.277 159.5 596.437 154.34L614.257 162.8C612.337 167.96 609.217 172.64 604.897 176.84C600.697 180.92 595.717 184.16 589.957 186.56C584.197 188.96 577.957 190.16 571.237 190.16ZM634.137 188V90.62H654.477V188H634.137ZM634.137 77.3V53.9H654.477V77.3H634.137ZM707.418 190.16C700.818 190.16 694.998 189.02 689.958 186.74C685.038 184.34 681.198 181.1 678.438 177.02C675.678 172.82 674.298 167.9 674.298 162.26C674.298 156.98 675.438 152.24 677.718 148.04C680.118 143.84 683.778 140.3 688.698 137.42C693.618 134.54 699.798 132.5 707.238 131.3L741.078 125.72V141.74L711.198 146.96C705.798 147.92 701.838 149.66 699.318 152.18C696.798 154.58 695.538 157.7 695.538 161.54C695.538 165.26 696.918 168.32 699.678 170.72C702.558 173 706.218 174.14 710.658 174.14C716.178 174.14 720.978 172.94 725.058 170.54C729.258 168.14 732.498 164.96 734.778 161C737.058 156.92 738.198 152.42 738.198 147.5V122.48C738.198 117.68 736.398 113.78 732.798 110.78C729.318 107.66 724.638 106.1 718.758 106.1C713.358 106.1 708.618 107.54 704.538 110.42C700.578 113.18 697.638 116.78 695.718 121.22L678.798 112.76C680.598 107.96 683.538 103.76 687.618 100.16C691.698 96.44 696.438 93.56 701.838 91.52C707.358 89.48 713.178 88.46 719.298 88.46C726.978 88.46 733.758 89.9 739.638 92.78C745.638 95.66 750.258 99.68 753.498 104.84C756.858 109.88 758.538 115.76 758.538 122.48V188H739.098V170.36L743.238 170.9C740.958 174.86 738.018 178.28 734.418 181.16C730.938 184.04 726.918 186.26 722.358 187.82C717.918 189.38 712.938 190.16 707.418 190.16ZM782.321 188V51.74H802.661V188H782.321ZM864.062 188L816.542 53.9H839.402L878.282 168.38H873.782L912.482 53.9H935.342L887.822 188H864.062Z" fill="white"/>
</svg>
